<svg xmlns="http://www.w3.org/2000/svg" width="120" height="120" viewBox="0 0 120 120" fill="none">
  <path d="M101.541 43.2524C101.541 43.2524 93.9884 48.8206 90.7562 54.0264C89.0637 52.2053 87.653 50.1411 86.5713 47.9024C82.9988 40.61 78.4742 40.4996 76.4778 39.9068C75.1966 41.5187 72.7812 43.0368 70.6379 43.9664C69.1693 49.586 68.2273 55.3303 67.8249 61.1247C67.7491 62.1743 67.9819 63.2226 68.4941 64.1414L78.2473 81.335C80.612 80.6783 82.8263 79.5691 84.7683 78.0688C82.3684 71.3114 80.3708 65.0608 76.6653 60.6848C77.4043 59.249 78.4288 57.369 79.6425 54.8312C81.2413 57.5177 83.9289 60.1845 87.2632 62.6793C88.3253 63.4704 89.6452 63.8333 90.9622 63.6966C92.2792 63.5599 93.4971 62.9337 94.3741 61.942L106.724 47.9931C105.3 46.1102 103.543 44.5035 101.541 43.2524Z" fill="#9CE49A"/>
  <path d="M28.6658 46.5866C28.666 47.6006 28.3654 48.5918 27.8022 49.4348C27.239 50.278 26.4384 50.9352 25.5016 51.3232C24.5649 51.7113 23.5342 51.8129 22.5397 51.6152C21.5452 51.4175 20.6317 50.9292 19.9147 50.2124C19.1977 49.4954 18.7094 48.582 18.5115 47.5875C18.3137 46.5931 18.4152 45.5623 18.8032 44.6255C19.1912 43.6888 19.8482 42.8881 20.6912 42.3247C21.5343 41.7614 22.5255 41.4608 23.5394 41.4608C24.8987 41.4614 26.2022 42.0016 27.1634 42.9628C28.1247 43.9239 28.6651 45.2273 28.6658 46.5866Z" fill="#9CE49A"/>
  <path d="M39.6888 25.2433L45.0415 23.3269L39.2351 12.0316L28.0193 16.0465L29.3058 22.0481L21.226 19.21L20.6929 20.469L29.9918 25.245L30.6873 28.4784L31.572 28.1614C31.2885 27.8545 31.7302 27.6396 33.0347 27.6283L38.9092 25.5298C38.6793 24.8576 38.6226 24.3478 39.6888 25.2433Z" fill="#9CE49A"/>
  <path fill-rule="evenodd" clip-rule="evenodd" d="M36.7875 61.6662C38.5605 60.2633 39.9035 58.3899 40.6638 56.2604C40.9495 55.2549 41.1027 54.2216 41.1234 53.1864C41.5517 53.0557 41.9943 52.968 42.4446 52.9261C44.1948 52.7654 45.9371 53.3056 47.2893 54.4283C48.6415 55.5509 49.4931 57.1642 49.657 58.914C49.7777 60.2191 49.5087 61.5301 48.8842 62.6823C48.2596 63.8345 47.3075 64.7754 46.1482 65.3867C44.9889 65.9974 43.6744 66.2512 42.371 66.1151C41.0676 65.9795 39.8338 65.4601 38.8255 64.6232C37.8857 63.8429 37.1812 62.819 36.7875 61.6662ZM36.7531 61.5629C36.6427 61.1647 36.5531 60.7618 36.4842 60.3564C36.5292 60.7122 36.6033 61.0656 36.7064 61.4125C36.7214 61.4626 36.7369 61.5128 36.7531 61.5629Z" fill="#9CE49A"/>
  <path d="M30.4485 98.6181C29.5408 97.1716 28.249 96.0051 26.7173 95.2498C26.5503 96.9585 26.9233 98.676 27.784 100.161C28.6447 101.646 29.9495 102.824 31.5148 103.528C31.6262 101.824 31.2568 100.123 30.4485 98.6181Z" fill="#39276F"/>
  <path d="M40.6638 56.2604C39.9029 58.3917 38.5583 60.2663 36.7833 61.6698C36.1589 59.495 36.1566 57.1887 36.7767 55.0127C37.5368 52.8811 38.8816 51.0064 40.6572 49.6032C41.2798 51.7783 41.2821 54.0841 40.6638 56.2604Z" fill="#39276F"/>
  <path d="M20.8744 40.145C20.1706 39.4155 19.6838 38.5045 19.4685 37.514C20.4659 37.6926 21.3933 38.1476 22.1448 38.8274C22.8483 39.557 23.3351 40.468 23.5508 41.4584C22.5532 41.2798 21.6259 40.8248 20.8744 40.145Z" fill="#39276F"/>
  <path d="M28.371 75.7011C26.7069 74.4134 25.1723 72.9662 23.789 71.3806C23.3571 72.9018 23.1996 74.4874 23.3239 76.0641C23.6707 78.8455 24.7904 81.4741 26.5561 83.6513C27.8825 81.2192 28.5106 78.4676 28.371 75.7011Z" fill="#39276F"/>
  <path d="M64.6614 28.5888C64.7288 29.1446 65.1826 29.4509 66.2034 29.6324C66.3628 29.2921 66.5103 28.9518 66.6458 28.6115C65.6476 28.9178 64.7861 29.0312 64.6614 28.5888Z" fill="#39276F"/>
  <path d="M73.4164 28.6342C73.4164 28.6342 75.174 25.5728 72.4295 23.9281C67.1449 20.764 65.9879 24.5519 65.9879 24.5519C66.2804 24.5165 66.5777 24.5396 66.8613 24.62C66.6458 25.2092 66.6225 26.0146 66.9861 25.6062C67.6327 24.903 68.324 25.9579 67.0768 26.8199C67.684 30.3035 69.0977 33.5969 71.2045 36.437C71.7913 37.2952 72.62 37.9602 73.5847 38.3478C74.5495 38.7353 75.6074 38.828 76.6253 38.6143C77.3172 38.5002 77.9673 38.2095 78.5142 37.7702C79.0604 37.3309 79.4843 36.758 79.744 36.1069C81.9332 30.4831 73.4164 28.6342 73.4164 28.6342Z" fill="#39276F"/>
  <path d="M64.2077 37.8996C63.8835 38.1621 63.5456 38.4078 63.1964 38.6357C63.1964 38.6357 64.3772 39.77 65.9879 41.0297L64.2077 37.8996Z" fill="#39276F"/>
  <path d="M86.1402 82.4233C85.2788 81.1875 84.7671 80.5302 84.3492 79.8729C82.9182 80.4837 81.5595 81.252 80.298 82.163L80.9332 83.2854C82.1015 89.4207 83.2239 91.7114 84.9594 94.4332C85.9814 91.8362 86.5372 84.6913 86.1402 82.4233Z" fill="#39276F"/>
  <path d="M104.966 40.7348C104.081 41.9485 103.605 42.6398 103.129 43.2422C104.165 44.4001 105.325 45.4411 106.588 46.3466L107.472 45.383C112.894 42.2888 114.708 40.4853 116.715 37.9707C113.925 37.8429 106.984 39.6238 104.966 40.7348Z" fill="#39276F"/>
  <path d="M49.9973 16.579C56.4197 17.0244 62.5617 19.3825 67.632 23.3496" stroke="#39276F" stroke-linecap="round" stroke-linejoin="round"/>
  <path d="M72.8039 71.7293C69.2935 75.6312 64.8972 78.6324 59.9848 80.4801C55.0724 82.3278 49.7878 82.9678 44.5763 82.3463C39.3648 81.7248 34.3789 79.8598 30.0387 76.9088C25.6986 73.9579 22.1313 70.0069 19.6373 65.3885C17.1432 60.7707 15.7956 55.6208 15.7079 50.3731C15.6201 45.1254 16.7948 39.9334 19.133 35.2346C21.2472 30.986 24.2565 27.2531 27.9473 24.2892" stroke="#39276F" stroke-linecap="round" stroke-linejoin="round"/>
  <path d="M80.572 56.215C80.1028 58.5831 79.3727 60.8919 78.3948 63.099" stroke="#39276F" stroke-linecap="round" stroke-linejoin="round"/>
  <path d="M78.8145 37.5367C79.261 38.6376 79.6467 39.7621 79.9708 40.905" stroke="#39276F" stroke-linecap="round" stroke-linejoin="round"/>
  <path d="M53.3882 37.0489C61.1003 30.9595 64.6608 30.2903 66.5222 31.4694C68.1282 32.4878 69.2046 34.6114 70.3019 35.0836" stroke="#39276F" stroke-linecap="round" stroke-linejoin="round"/>
  <path d="M75.1399 38.7277C75.5662 39.1431 76.0169 39.5331 76.4891 39.8954" stroke="#39276F" stroke-linecap="round" stroke-linejoin="round"/>
  <path d="M65.9879 24.5519C65.9879 24.5519 67.1449 20.7628 72.4295 23.9281C75.1757 25.5716 73.4164 28.6342 73.4164 28.6342C73.4164 28.6342 81.9248 30.4795 79.7446 36.1081C79.4843 36.7591 79.061 37.3319 78.5142 37.7712C77.9679 38.2104 77.3178 38.5012 76.6259 38.6155C75.608 38.8298 74.5501 38.7373 73.5847 38.3497C72.62 37.9621 71.7919 37.2969 71.2051 36.4382C69.0989 33.5977 67.6858 30.3045 67.0774 26.8211C68.3246 25.9591 67.6267 24.8988 66.9867 25.6074C66.6201 26.0128 66.6464 25.211 66.8619 24.6212C66.5778 24.5409 66.281 24.5174 65.9879 24.5519Z" stroke="#39276F" stroke-linecap="round" stroke-linejoin="round"/>
  <path d="M66.2034 29.6324C63.7993 29.2014 64.5473 28.0897 65.9879 24.5519" stroke="#39276F" stroke-linecap="round" stroke-linejoin="round"/>
  <path d="M65.4661 31.061C65.9222 30.2786 66.3127 29.4599 66.6345 28.6133C65.6363 28.9196 64.7742 29.0312 64.6494 28.5793" stroke="#39276F" stroke-linecap="round" stroke-linejoin="round"/>
  <path d="M60.9552 32.0365C57.3135 30.1088 47.5502 22.9979 47.5502 22.9979C48.174 20.6846 49.3412 19.0058 51.0999 18.0195C51.0999 18.0195 59.7415 24.3024 64.9694 27.0695" stroke="#39276F" stroke-linecap="round" stroke-linejoin="round"/>
  <path d="M79.6533 54.8198C81.2526 57.5063 83.9397 60.1737 87.2746 62.668C88.3366 63.459 89.6566 63.822 90.9736 63.6853C92.2906 63.5486 93.5078 62.9223 94.3848 61.9307L106.724 47.9931C105.291 46.1147 103.536 44.5057 101.541 43.241C101.541 43.241 91.5043 50.6355 89.6112 56.3511" stroke="#39276F" stroke-linecap="round" stroke-linejoin="round"/>
  <path d="M76.6593 60.751C80.3792 65.1288 82.3642 71.2869 84.7684 78.0575C82.8263 79.5577 80.612 80.6669 78.2473 81.3236L68.4941 64.142C67.9813 63.2232 67.7491 62.1749 67.8249 61.1253C68.2267 55.3272 69.1682 49.5791 70.6374 43.9556C72.7812 43.0255 75.1967 41.5079 76.4778 39.896C78.4742 40.4859 82.9988 40.5993 86.5713 47.8916C87.6513 50.1282 89.0602 52.1905 90.7503 54.0103" stroke="#39276F" stroke-linecap="round" stroke-linejoin="round"/>
  <path d="M75.8659 62.3617C76.4891 60.9098 77.99 58.2806 79.2688 55.6479C83.5326 46.8642 81.0598 44.9765 80.3434 44.0691" stroke="#39276F" stroke-linecap="round" stroke-linejoin="round"/>
  <path d="M63.1964 38.6358C63.5456 38.4078 63.8835 38.1622 64.2077 37.8997L65.9879 41.0297" stroke="#39276F" stroke-linecap="round" stroke-linejoin="round"/>
  <path d="M70.6487 43.9556C68.2774 42.9688 65.0626 40.4262 63.1963 38.6358C61.2209 39.9865 59.169 41.2223 57.0514 42.3372C54.3864 43.607 52.8688 42.7551 50.0767 40.7605C46.8469 38.4549 42.2291 35.1129 42.2291 35.1129C42.3851 33.9323 42.8179 32.8053 43.4923 31.8239C44.1667 30.8424 45.0635 30.0342 46.1096 29.4652C51.8211 33.2956 55.224 35.6203 55.224 35.6203" stroke="#39276F" stroke-linecap="round" stroke-linejoin="round"/>
  <path d="M45.6881 17.7473C46.4045 18.45 47.2881 17.5987 46.6404 16.8739C46.1538 16.3288 45.5514 15.7062 45.155 15.2978C45.0404 15.1606 44.8768 15.0736 44.699 15.0552C44.5212 15.0368 44.3433 15.0883 44.203 15.1991C44.0626 15.3098 43.9711 15.4708 43.9476 15.648C43.9241 15.8252 43.9708 16.0046 44.0774 16.148C44.3897 16.5271 45.0302 17.1008 45.6881 17.7473Z" stroke="#39276F" stroke-linecap="round" stroke-linejoin="round"/>
  <path d="M48.06 14.2202C47.8212 13.9367 47.6421 13.7301 47.4134 13.4603C47.3047 13.3199 47.1454 13.2275 46.9695 13.2028C46.7936 13.1781 46.6151 13.223 46.4718 13.3279C46.3285 13.4329 46.2318 13.5896 46.2023 13.7647C46.1728 13.9398 46.2128 14.1195 46.3138 14.2656C46.5631 14.59 46.8331 14.8979 47.1221 15.1874" stroke="#39276F" stroke-linecap="round" stroke-linejoin="round"/>
  <path d="M47.0941 15.2184C46.8445 14.9462 46.2541 14.3456 46.0057 14.0728C45.8944 13.9269 45.7297 13.8312 45.5478 13.8067C45.3659 13.7822 45.1818 13.831 45.0359 13.9423C44.89 14.0536 44.7943 14.2183 44.7698 14.4002C44.7453 14.5821 44.7942 14.7663 44.9055 14.9122C45.2093 15.2996 45.9526 16.0196 46.6063 16.6924C47.1544 17.2566 47.7633 16.6697 47.7066 16.1366" stroke="#39276F" stroke-linecap="round" stroke-linejoin="round"/>
  <path d="M43.8732 17.8834C43.8732 17.8834 43.6476 19.6589 47.7919 22.2051" stroke="#39276F" stroke-linecap="round" stroke-linejoin="round"/>
  <path d="M40.5975 14.9689C41.7199 12.9498 44.3323 10.9558 46.6529 12.2358C47.0187 12.4432 47.333 12.7303 47.5726 13.0758C47.8121 13.4213 47.9708 13.8163 48.0367 14.2316" stroke="#39276F" stroke-linecap="round" stroke-linejoin="round"/>
  <path d="M29.9811 25.2206L20.6929 20.4691L21.2261 19.21L29.3005 22.0338" stroke="#39276F" stroke-linecap="round" stroke-linejoin="round"/>
  <path d="M33.0317 27.6253L38.8961 25.5304" stroke="#39276F" stroke-linecap="round" stroke-linejoin="round"/>
  <path d="M39.6889 25.2433L45.0416 23.3382L39.2351 12.0316L28.008 16.0459L30.6843 28.4641L31.5577 28.1578" stroke="#39276F" stroke-linecap="round" stroke-linejoin="round"/>
  <path d="M3.285 37.8656L5.2354 33.772L11.5409 31.6735L13.6394 24.9143" stroke="#39276F" stroke-linecap="round" stroke-linejoin="round"/>
  <path d="M11.28 26.2982L13.6507 24.8809L14.8411 27.3644" stroke="#39276F" stroke-linecap="round" stroke-linejoin="round"/>
  <path d="M79.5739 80.9266L80.935 83.2854C82.1033 89.4208 83.2257 91.7114 84.9612 94.4332C85.9815 91.8476 86.5373 84.6913 86.1403 82.4233C85.2621 81.2604 84.4454 80.0532 83.6926 78.8055" stroke="#39276F" stroke-linecap="round" stroke-linejoin="round"/>
  <path d="M84.3463 79.8729C82.9135 80.4854 81.5535 81.2556 80.2914 82.1696" stroke="#39276F" stroke-linecap="round" stroke-linejoin="round"/>
  <path d="M104.909 45.9174L98.5698 52.4497" stroke="#39276F" stroke-linecap="round" stroke-linejoin="round"/>
  <path d="M103.106 43.241C104.151 44.3991 105.318 45.4401 106.587 46.3454" stroke="#39276F" stroke-linecap="round" stroke-linejoin="round"/>
  <path d="M105.953 47.0517L107.45 45.3848C112.87 42.3001 114.685 40.4966 116.692 37.9791C113.903 37.8543 106.961 39.6351 104.943 40.7462C104.2 41.8473 103.398 42.9074 102.539 43.9216" stroke="#39276F" stroke-linecap="round" stroke-linejoin="round"/>
  <path d="M81.5768 80.0508L76.3196 69.9938" stroke="#39276F" stroke-linecap="round" stroke-linejoin="round"/>
  <path d="M42.3992 34.2693C40.8944 32.9189 39.2698 31.7082 37.5456 30.6521C36.1659 29.8931 34.705 29.2923 33.1905 28.8611C30.9691 28.2324 30.7977 27.5924 33.3153 27.6253C35.99 27.8401 38.6227 28.4201 41.1402 29.3488" stroke="#39276F" stroke-linecap="round" stroke-linejoin="round"/>
  <path d="M39.8136 28.8724C41.1175 28.9291 39.2901 26.5823 39.031 25.9012C38.6775 24.9722 38.3313 23.9245 40.3127 25.8218C41.956 27.2643 43.686 28.6051 45.4929 29.8366" stroke="#39276F" stroke-linecap="round" stroke-linejoin="round"/>
  <path d="M35.2203 29.553C34.6418 29.5416 33.4401 29.6008 33.0884 29.6211C31.4903 29.7124 31.6246 30.1452 31.8747 30.2109C32.8592 30.4694 34.4938 30.6885 35.4018 30.9476C36.8633 31.3619 39.7229 32.0705 40.7432 32.9213" stroke="#39276F" stroke-linecap="round" stroke-linejoin="round"/>
  <path d="M35.2932 30.9177C35.0293 30.9727 34.8209 31.0168 34.6962 31.0497C33.1314 31.39 33.3356 31.8109 33.5965 31.8323C34.6168 31.9165 36.2615 31.8759 37.203 31.9798C38.339 32.132 39.4582 32.3903 40.5462 32.7511" stroke="#39276F" stroke-linecap="round" stroke-linejoin="round"/>
  <path d="M28.6658 46.5866C28.666 47.6005 28.3654 48.5917 27.8022 49.4348C27.239 50.278 26.4383 50.9351 25.5016 51.3232C24.5649 51.7113 23.5342 51.8129 22.5397 51.6152C21.5452 51.4175 20.6317 50.9292 19.9147 50.2124C19.1977 49.4954 18.7094 48.5819 18.5115 47.5875C18.3137 46.5931 18.4152 45.5623 18.8032 44.6255C19.1912 43.6888 19.8482 42.8881 20.6912 42.3247C21.5343 41.7614 22.5255 41.4608 23.5394 41.4608C24.8987 41.4614 26.2022 42.0016 27.1634 42.9627C28.1247 43.9239 28.6651 45.2273 28.6658 46.5866Z" stroke="#39276F" stroke-linecap="round" stroke-linejoin="round"/>
  <path d="M41.1621 53.1747C41.5784 53.0504 42.0078 52.9667 42.4446 52.9262C44.1947 52.7654 45.9371 53.3056 47.2893 54.4283C48.6415 55.5509 49.4931 57.1642 49.657 58.9141C49.7777 60.2191 49.5087 61.5301 48.8842 62.6823C48.2596 63.8345 47.3075 64.7754 46.1482 65.3867C44.9889 65.9975 43.6744 66.2512 42.371 66.1151C41.0676 65.9796 39.8338 65.4602 38.8255 64.6232C37.8865 63.8435 37.1823 62.8208 36.7885 61.6692" stroke="#39276F" stroke-linecap="round" stroke-linejoin="round"/>
  <path d="M20.1144 78.4885C22.6951 79.5846 24.9154 81.3845 26.522 83.6824C23.7868 84.2949 20.9348 84.1295 18.2888 83.2048C15.7084 82.1081 13.4881 80.3087 11.8812 78.0109C14.6164 77.3978 17.4685 77.5637 20.1144 78.4885Z" stroke="#39276F" stroke-linecap="round" stroke-linejoin="round"/>
  <path d="M30.4485 98.6181C31.2585 100.122 31.6281 101.824 31.5148 103.528C29.9495 102.824 28.6447 101.646 27.784 100.161C26.9234 98.676 26.5503 96.9585 26.7173 95.2498C28.2501 96.0039 29.5423 97.1704 30.4485 98.6181Z" stroke="#39276F" stroke-linecap="round" stroke-linejoin="round"/>
  <path d="M50.1674 62.6566C48.6083 64.293 46.6194 65.4566 44.429 66.0136C44.67 63.7557 45.614 61.6304 47.128 59.9379C48.6419 58.2454 50.6492 57.0711 52.8665 56.581C52.5496 58.8179 51.6149 60.9218 50.1674 62.6566Z" stroke="#39276F" stroke-linecap="round" stroke-linejoin="round"/>
  <path d="M40.6638 56.2604C39.9029 58.3917 38.5583 60.2663 36.7833 61.6698C36.1589 59.495 36.1566 57.1887 36.7767 55.0127C37.5368 52.8811 38.8816 51.0064 40.6572 49.6032C41.2799 51.7783 41.2821 54.0841 40.6638 56.2604Z" stroke="#39276F" stroke-linecap="round" stroke-linejoin="round"/>
  <path d="M20.8744 40.145C20.1706 39.4155 19.6838 38.5045 19.4685 37.514C20.466 37.6926 21.3933 38.1476 22.1448 38.8274C22.8484 39.557 23.3351 40.468 23.5508 41.4584C22.5532 41.2798 21.626 40.8248 20.8744 40.145Z" stroke="#39276F" stroke-linecap="round" stroke-linejoin="round"/>
  <path d="M24.2433 51.6647C24.6284 58.0335 25.0397 62.2644 31.8067 72.7268C37.8465 82.0699 31.261 90.727 31.4252 101.53" stroke="#39276F" stroke-linecap="round" stroke-linejoin="round"/>
  <path d="M39.6889 65.2536C39.6889 65.2536 34.4621 70.4803 34.3159 80.1189" stroke="#39276F" stroke-linecap="round" stroke-linejoin="round"/>
  <path d="M26.5561 83.6483C26.5561 83.6483 32.3965 87.0393 31.7613 96.6104" stroke="#39276F" stroke-linecap="round" stroke-linejoin="round"/>
  <path d="M39.5074 103.075C39.4046 102.696 39.1559 102.373 38.8156 102.178C38.4754 101.982 38.0715 101.93 37.6925 102.032L25.5812 105.275C25.3935 105.325 25.2176 105.413 25.0636 105.531C24.9095 105.65 24.7804 105.797 24.6834 105.966C24.5865 106.134 24.5237 106.32 24.4986 106.513C24.4736 106.706 24.4867 106.901 24.5373 107.089C24.5879 107.277 24.675 107.453 24.7936 107.607C24.9122 107.761 25.0599 107.89 25.2284 107.987C25.3969 108.084 25.5828 108.147 25.7756 108.172C25.9684 108.197 26.1642 108.184 26.3519 108.133L38.4638 104.89C38.8426 104.787 39.1651 104.538 39.3608 104.198C39.5564 103.857 39.6091 103.454 39.5074 103.075Z" stroke="#39276F" stroke-linecap="round" stroke-linejoin="round"/>
  <path d="M25.0158 44.4183L22.7245 44.6225C22.4683 44.6603 22.2362 44.7946 22.0758 44.9979C21.9155 45.2013 21.8389 45.4583 21.8617 45.7162C21.8846 45.9742 22.0052 46.2137 22.199 46.3856C22.3926 46.5575 22.6448 46.6489 22.9036 46.6409L24.1854 46.5275C24.4451 46.5183 24.6985 46.6089 24.8934 46.7809C25.0882 46.953 25.2096 47.1932 25.2326 47.4521C25.2555 47.711 25.1783 47.9688 25.0168 48.1725C24.8553 48.3761 24.6218 48.51 24.3645 48.5466L22.0738 48.7621" stroke="#39276F" stroke-linecap="round" stroke-linejoin="round"/>
  <path d="M23.2899 43.8082L23.8003 49.365" stroke="#39276F" stroke-linecap="round" stroke-linejoin="round"/>
  <path d="M46.0511 58.3696L43.6124 56.975C43.3251 56.8111 42.9846 56.7681 42.6656 56.8553C42.3467 56.9425 42.0754 57.1528 41.9115 57.44C41.7476 57.7273 41.7046 58.0679 41.7918 58.3868C41.879 58.7057 42.0894 58.977 42.3766 59.1409L43.7371 59.9236C43.8793 60.0048 44.0042 60.1128 44.1045 60.2424C44.2049 60.3719 44.2787 60.52 44.3219 60.6776C44.3651 60.8358 44.3768 61.0006 44.3562 61.1629C44.3357 61.3253 44.2833 61.4823 44.2022 61.6244C44.1211 61.7665 44.0127 61.8913 43.8833 61.9916C43.7539 62.0919 43.606 62.1659 43.4481 62.2095C43.2902 62.2525 43.1253 62.2638 42.9628 62.2435C42.8004 62.2232 42.6436 62.1707 42.5013 62.0895L40.0536 60.6949" stroke="#39276F" stroke-linecap="round" stroke-linejoin="round"/>
  <path d="M44.7467 56.5553L41.367 62.4978" stroke="#39276F" stroke-linecap="round" stroke-linejoin="round"/>
  <path d="M45.4613 94.5239C45.8151 94.6726 46.2129 94.6779 46.5707 94.5388C46.9284 94.3997 47.2181 94.1269 47.3785 93.7783C47.5389 93.4296 47.5576 93.032 47.4304 92.6702C47.3032 92.3078 47.0403 92.0093 46.697 91.8374L39.1444 88.4011C38.7903 88.2512 38.3918 88.2447 38.0331 88.3838C37.6746 88.5223 37.3841 88.7957 37.2234 89.1449C37.0626 89.4942 37.0441 89.8924 37.172 90.2548C37.2998 90.6177 37.5638 90.9162 37.908 91.0876L45.4613 94.5239Z" stroke="#39276F" stroke-linecap="round" stroke-linejoin="round"/>
  <path d="M62.3247 85.5307C62.3462 85.9689 62.2369 86.4041 62.0107 86.7808C61.785 87.1569 61.4525 87.4578 61.0555 87.6453C60.6585 87.8327 60.2149 87.8984 59.7809 87.8339C59.3466 87.7695 58.9413 87.5772 58.6162 87.2823C58.2911 86.9874 58.0608 86.6029 57.9543 86.1767C57.8479 85.751 57.8701 85.3026 58.0182 84.8895C58.1663 84.4764 58.4336 84.1164 58.7864 83.8549C59.1392 83.5934 59.5615 83.443 60 83.4215C60.2913 83.4072 60.5821 83.4508 60.8567 83.5487C61.1313 83.6472 61.3832 83.7988 61.5994 83.9946C61.8155 84.1904 61.9904 84.4268 62.1146 84.6901C62.2393 84.954 62.3104 85.2394 62.3247 85.5307Z" stroke="#39276F" stroke-linecap="round" stroke-linejoin="round"/>
  <path d="M68.324 90.8834C68.3455 91.3222 68.2362 91.7568 68.0099 92.1335C67.7843 92.5096 67.4517 92.8105 67.0547 92.998C66.6577 93.186 66.2142 93.2511 65.7802 93.1866C65.3461 93.1221 64.9408 92.9299 64.6154 92.635C64.29 92.3401 64.0602 91.9556 63.9533 91.5293C63.8471 91.1037 63.8692 90.6553 64.0172 90.2422C64.1659 89.8291 64.4327 89.4691 64.7855 89.2076C65.1384 88.9461 65.5611 88.7957 65.9992 88.7742C66.2906 88.7593 66.5819 88.8022 66.8565 88.9008C67.1312 88.9987 67.3837 89.1503 67.5998 89.3461C67.8153 89.5419 67.9908 89.7789 68.115 90.0422C68.2392 90.3061 68.3102 90.5921 68.324 90.8834Z" stroke="#39276F" stroke-linecap="round" stroke-linejoin="round"/>
  <path d="M58.2765 93.5938L67.927 82.9451" stroke="#39276F" stroke-linecap="round" stroke-linejoin="round"/>
  <path d="M91.924 32.3087L92.1849 37.7295" stroke="#39276F" stroke-linecap="round" stroke-linejoin="round"/>
  <path d="M94.7705 34.883L89.3384 35.1552" stroke="#39276F" stroke-linecap="round" stroke-linejoin="round"/>
  <path d="M50.5531 18.3712C49.7477 17.3276 50.1812 15.4775 49.4421 14.6059C48.5257 13.5265 48.3937 13.7743 46.7556 15.5927C46.358 16.0339 46.9824 16.8626 48.4457 15.6608C47.9578 15.9888 47.5962 16.4733 47.4206 17.0344C47.245 17.5955 47.2658 18.1997 47.4797 18.7473" stroke="#39276F" stroke-linecap="round" stroke-linejoin="round"/>
  <path d="M43.3974 20.2535L44.8941 18.8249" stroke="#39276F" stroke-linecap="round" stroke-linejoin="round"/>
  <path d="M44.8959 18.8249C45.6087 19.4816 46.4481 18.6458 45.8034 17.9628C45.3258 17.4548 44.964 17.1121 44.567 16.7151C44.4525 16.5853 44.2919 16.5053 44.1194 16.492C43.9469 16.4788 43.7759 16.5334 43.6431 16.6442C43.5102 16.755 43.4257 16.9134 43.4077 17.0855C43.3897 17.2576 43.4396 17.4299 43.5467 17.5658C43.8458 17.9115 44.2344 18.2142 44.8959 18.8249Z" stroke="#39276F" stroke-linecap="round" stroke-linejoin="round"/>
  <path d="M28.328 75.2832C27.9305 72.6164 26.8252 70.1054 25.1274 68.0111C23.7808 70.4708 23.1557 73.2606 23.3239 76.0593C23.6706 78.8407 24.7904 81.4693 26.5561 83.6466C27.9683 81.098 28.5854 78.1852 28.328 75.2832Z" stroke="#39276F" stroke-linecap="round" stroke-linejoin="round"/>
  <path d="M44.4517 36.7319C44.8857 34.3685 46.1935 32.2551 48.1149 30.8121" stroke="#39276F" stroke-linecap="round" stroke-linejoin="round"/>
  <path d="M49.5215 24.4188C50.1454 22.4266 51.3593 20.6707 53.0026 19.3831" stroke="#39276F" stroke-linecap="round" stroke-linejoin="round"/>
</svg>