<svg width="40" height="40" viewBox="0 0 40 40" fill="none" xmlns="http://www.w3.org/2000/svg">
<g id="Outline / Work">
<path id="Vector" d="M33.75 23.5833V30.6667C33.75 32.49 32.4383 34.06 30.63 34.3C27.1517 34.7617 23.6033 35 20 35C16.3967 35 12.8483 34.7617 9.37 34.3C7.56167 34.06 6.25 32.49 6.25 30.6667V23.5833M33.75 23.5833C34.1458 23.2394 34.4624 22.8139 34.6782 22.3361C34.8939 21.8582 35.0037 21.3393 35 20.815V14.51C35 12.7083 33.72 11.1517 31.9383 10.885C30.0505 10.6024 28.1532 10.3872 26.25 10.24M33.75 23.5833C33.4267 23.8583 33.05 24.075 32.6283 24.2167C28.5554 25.5681 24.2913 26.2546 20 26.25C15.5867 26.25 11.3417 25.535 7.37167 24.2167C6.96043 24.0799 6.57954 23.8648 6.25 23.5833M6.25 23.5833C5.85424 23.2394 5.5376 22.8139 5.32183 22.3361C5.10606 21.8582 4.99627 21.3393 5 20.815V14.51C5 12.7083 6.28 11.1517 8.06167 10.885C9.9495 10.6024 11.8468 10.3872 13.75 10.24M26.25 10.24V8.75C26.25 7.75544 25.8549 6.80161 25.1517 6.09835C24.4484 5.39509 23.4946 5 22.5 5H17.5C16.5054 5 15.5516 5.39509 14.8484 6.09835C14.1451 6.80161 13.75 7.75544 13.75 8.75V10.24M26.25 10.24C22.0895 9.91846 17.9105 9.91846 13.75 10.24M20 21.25H20.0133V21.2633H20V21.25Z" stroke="#39276F" stroke-width="3" stroke-linecap="round" stroke-linejoin="round"/>
</g>
</svg>
