<svg width="151" height="150" viewBox="0 0 151 150" fill="none" xmlns="http://www.w3.org/2000/svg">
<g id="Eror">
<g clip-path="url(#clip0_641_2399)">
<rect x="0.5" width="150" height="150" rx="24" fill="#39276F"/>
<path id="Vector" d="M75.5125 12.4937C110.031 12.4937 138.019 40.4812 138.019 75.0062C138.024 82.6654 136.622 90.2604 133.881 97.4125L127.694 85.0375C129.122 77.5707 128.941 69.885 127.162 62.4937H106.175C106.383 64.6604 106.537 66.8583 106.637 69.0875C102.934 69.844 99.642 71.9432 97.3937 74.9812C97.3854 70.6604 97.1708 66.5 96.75 62.5H54.2812C53.1842 72.9083 53.4679 83.416 55.125 93.75H87.7437L83.0562 103.125H57.15C60.4 115.15 65.5562 123.894 71.1625 126.95L70.95 127.381C69.325 130.631 68.95 134.056 69.55 137.231C37.8187 134.231 13 107.512 13 75.0062C13 40.4812 40.9875 12.4937 75.5125 12.4937ZM47.4375 103.131H30.4187C36.4551 112.786 45.4241 120.255 56.0125 124.444C52.7437 119.319 50.05 112.906 48.075 105.6L47.4375 103.131ZM44.8437 62.5H23.8562L23.8312 62.6062C22.8601 66.668 22.3713 70.83 22.375 75.0062C22.375 81.6062 23.5812 87.925 25.7812 93.7562H45.6125C44.1123 83.4074 43.8542 72.9163 44.8437 62.5062M56.0187 25.5687L55.875 25.6187C43.0823 30.723 32.7614 40.5802 27.075 53.125H46.125C48.0812 42.175 51.5 32.6437 56.0187 25.5687ZM75.5125 21.8687L74.7875 21.9C66.875 22.625 59.2375 35.1375 55.6875 53.125H95.3312C91.7937 35.1875 84.1875 22.6937 76.3 21.9062L75.5125 21.8687ZM95.0125 25.5562L95.675 26.65C99.8625 33.6 103.037 42.725 104.894 53.1312H123.944C118.521 41.1569 108.865 31.6081 96.8312 26.3187L95.0125 25.5562ZM101.506 80.1875L76.525 130.175C75.8083 131.605 75.4695 133.195 75.5409 134.793C75.6123 136.391 76.0914 137.945 76.9327 139.305C77.7741 140.666 78.9496 141.789 80.3475 142.567C81.7453 143.345 83.319 143.752 84.9187 143.75H134.881C136.481 143.752 138.055 143.345 139.453 142.567C140.85 141.789 142.026 140.666 142.867 139.305C143.709 137.945 144.188 136.391 144.259 134.793C144.33 133.195 143.992 131.605 143.275 130.175L118.294 80.1875C114.837 73.2687 104.962 73.2687 101.506 80.1875ZM113.025 96.85V115.606C113.025 116.435 112.696 117.23 112.11 117.816C111.524 118.402 110.729 118.731 109.9 118.731C109.071 118.731 108.276 118.402 107.69 117.816C107.104 117.23 106.775 116.435 106.775 115.606V96.85C106.775 96.0212 107.104 95.2263 107.69 94.6403C108.276 94.0542 109.071 93.725 109.9 93.725C110.729 93.725 111.524 94.0542 112.11 94.6403C112.696 95.2263 113.025 96.0212 113.025 96.85ZM109.9 131.244C109.07 131.244 108.275 130.914 107.688 130.328C107.101 129.741 106.772 128.945 106.772 128.116C106.772 127.286 107.101 126.49 107.688 125.904C108.275 125.317 109.07 124.987 109.9 124.987C110.729 124.987 111.524 125.317 112.11 125.903C112.696 126.489 113.025 127.284 113.025 128.112C113.025 128.941 112.696 129.736 112.11 130.322C111.524 130.908 110.729 131.237 109.9 131.237" fill="#FDFDFD"/>
</g>
</g>
<defs>
<clipPath id="clip0_641_2399">
<rect x="0.5" width="150" height="150" rx="24" fill="white"/>
</clipPath>
</defs>
</svg>
