<svg width="1024" height="1024" viewBox="0 0 1024 1024" fill="none" xmlns="http://www.w3.org/2000/svg">
<rect width="1024" height="1024" rx="81.84" fill="#9CE49A"/>
<g clip-path="url(#clip0_1590_4657)">
<path fill-rule="evenodd" clip-rule="evenodd" d="M562.506 234.67H587.235C590.219 234.67 593.418 234.67 594.696 237.868C595.975 241.066 594.696 240 593.204 240.853C591.133 242.894 588.667 244.49 585.956 245.542C579.724 248.307 572.945 249.62 566.131 249.38C559.445 248.96 553.047 246.505 547.796 242.345C546.24 240.796 544.132 239.926 541.935 239.926C539.738 239.926 537.63 240.796 536.072 242.345C534.559 243.964 533.717 246.097 533.717 248.314C533.717 250.53 534.559 252.664 536.072 254.283C543.18 261.806 552.393 267.007 562.506 269.205V271.763C562.779 273.186 563.282 274.554 563.998 275.814C572.525 292.441 576.15 292.228 579.347 291.589C587.022 291.589 590.858 270.271 590.858 268.992H593.631C601.981 266.649 609.417 261.815 614.947 255.135C617.543 251.927 619.308 248.129 620.09 244.077C620.87 240.024 620.642 235.842 619.425 231.899C618.438 227.655 616.508 223.687 613.777 220.292C611.045 216.896 607.584 214.16 603.65 212.287C591.013 208.866 577.934 207.357 564.85 207.81C562.438 207.985 560.017 207.985 557.604 207.81C557.932 206.539 558.433 205.32 559.096 204.186C561.43 201.474 564.305 199.277 567.534 197.736C570.762 196.194 574.279 195.342 577.855 195.233C586.308 195.106 594.585 197.642 601.518 202.48C603.1 203.668 605.09 204.178 607.049 203.898C609.008 203.618 610.777 202.571 611.964 200.988C612.556 200.235 612.995 199.371 613.253 198.447C613.509 197.523 613.581 196.557 613.462 195.605C613.343 194.653 613.036 193.734 612.558 192.902C612.083 192.07 611.446 191.34 610.685 190.756C603.285 183.167 594.023 177.654 583.825 174.767V172.422C584.125 171.378 584.125 170.269 583.825 169.225C583.825 169.225 577.003 153.45 571.672 153.45C566.344 153.45 557.817 166.667 557.178 167.946C556.879 169.135 556.879 170.38 557.178 171.57C556.879 172.759 556.879 174.004 557.178 175.194V176.686C551.332 178.536 545.901 181.505 541.189 185.426C537.73 188.165 534.772 191.483 532.449 195.233C529.908 198.945 528.502 203.314 528.397 207.81C528.355 211.031 529.043 214.219 530.409 217.136C531.775 220.053 533.783 222.622 536.285 224.651C543.77 230.638 552.937 234.141 562.506 234.67Z" fill="#39276F"/>
<path fill-rule="evenodd" clip-rule="evenodd" d="M784.424 242.56C785.481 241.942 786.48 241.229 787.407 240.428C787.979 239.524 788.343 238.505 788.473 237.444C788.473 237.444 789.965 220.603 785.489 217.618C781.011 214.634 767.156 222.095 765.664 222.948C764.673 223.584 763.866 224.465 763.318 225.506C762.619 226.584 762.248 227.844 762.252 229.13C762.148 229.694 762.148 230.272 762.252 230.835C756.197 229.657 749.974 229.657 743.919 230.835C739.542 231.524 735.298 232.89 731.343 234.886C727.327 236.954 723.996 240.137 721.748 244.052C720.145 246.76 719.161 249.788 718.864 252.921C718.57 256.054 718.973 259.214 720.043 262.173C723.291 270.684 728.913 278.083 736.245 283.49C742.427 287.967 750.954 291.804 757.563 296.281C760.121 297.986 763.105 299.265 762.465 302.889C761.826 306.513 760.973 304.595 759.695 304.808C756.877 305.344 753.985 305.344 751.168 304.808C744.412 304.28 737.892 302.082 732.195 298.413C726.556 294.826 722.219 289.519 719.83 283.277C718.898 281.468 717.351 280.051 715.465 279.283C713.581 278.515 711.484 278.447 709.553 279.091C707.622 279.734 705.985 281.047 704.937 282.793C703.89 284.538 703.502 286.6 703.841 288.607C706.541 298.003 711.867 306.433 719.19 312.909C718.64 313.538 718.208 314.26 717.912 315.041C717.592 316.444 717.592 317.901 717.912 319.304C717.912 337.851 720.256 339.343 723.242 340.622C730.49 343.606 744.559 326.979 744.559 326.765C744.559 326.552 746.05 327.831 747.116 328.044C755.641 330.799 764.814 330.799 773.337 328.044C777.186 326.538 780.611 324.122 783.32 321.004C786.031 317.886 787.944 314.157 788.899 310.138C790.182 305.96 790.502 301.546 789.837 297.227C789.172 292.908 787.542 288.795 785.063 285.196C775.686 275.122 764.744 266.628 752.659 260.041C750.59 258.813 748.597 257.46 746.69 255.99C747.519 255.018 748.533 254.22 749.676 253.645C753.113 252.284 756.813 251.711 760.505 251.97C764.194 252.228 767.776 253.311 770.993 255.138C778.494 259.167 784.479 265.527 788.047 273.258C788.844 275.015 790.274 276.408 792.051 277.159C793.829 277.909 795.826 277.963 797.64 277.308C798.564 276.978 799.413 276.464 800.133 275.797C800.851 275.129 801.429 274.322 801.827 273.425C802.226 272.528 802.439 271.56 802.452 270.578C802.465 269.597 802.279 268.623 801.904 267.715C798.313 257.979 792.296 249.321 784.424 242.56Z" fill="#39276F"/>
<path fill-rule="evenodd" clip-rule="evenodd" d="M506.218 493.035C506.218 487.494 506.218 474.707 487.037 475.772C467.855 476.838 470.839 506.889 487.037 507.315C499.611 507.741 506.431 503.692 506.218 493.035Z" fill="#39276F"/>
<path fill-rule="evenodd" clip-rule="evenodd" d="M558.447 493.035C558.447 487.494 558.447 474.707 539.053 475.772C519.658 476.838 522.855 506.889 539.053 507.315C551.84 507.741 558.66 503.692 558.447 493.035Z" fill="#39276F"/>
<path fill-rule="evenodd" clip-rule="evenodd" d="M580.839 448.276C568.124 439.766 553.452 434.629 538.203 433.355C516.333 432.01 494.448 435.729 474.25 444.226C472.431 444.9 470.946 446.257 470.11 448.007C469.274 449.759 469.154 451.767 469.774 453.606C470.084 454.524 470.575 455.371 471.218 456.095C471.861 456.82 472.643 457.408 473.518 457.826C474.392 458.244 475.342 458.48 476.309 458.525C477.277 458.57 478.244 458.418 479.153 458.082C494.225 453.267 510.034 451.172 525.84 451.901C540.696 452.915 554.895 458.416 566.557 467.676C571.314 471.014 574.792 475.873 576.42 481.453C578.049 487.032 577.727 493 575.51 498.373C573.309 504.419 569.88 509.946 565.442 514.604C561.003 519.263 555.649 522.955 549.716 525.446C536.174 530.859 521.656 533.4 507.08 532.908C492.869 533.17 478.908 529.159 467.002 521.397C463.334 518.441 460.418 514.66 458.491 510.363C456.564 506.064 455.682 501.371 455.917 496.668C455.843 486.353 459.648 476.385 466.576 468.742C467.375 467.966 468.011 467.039 468.445 466.014C468.879 464.989 469.102 463.885 469.102 462.772C469.102 461.66 468.879 460.556 468.445 459.531C468.011 458.506 467.375 457.579 466.576 456.803C464.982 455.241 462.839 454.367 460.607 454.367C458.375 454.367 456.232 455.241 454.638 456.803C443.502 467.016 436.775 481.159 435.878 496.242C434.99 504.05 435.913 511.957 438.575 519.351C441.237 526.744 445.566 533.425 451.227 538.877C466.262 551.211 484.71 558.649 504.095 560.194C522.802 561.65 541.609 559.182 559.309 552.946C569.181 548.93 578.085 542.861 585.436 535.143C592.786 527.426 598.413 518.234 601.944 508.179C606.017 497.305 606.136 485.344 602.277 474.392C598.419 463.439 590.83 454.194 580.839 448.276Z" fill="#39276F"/>
<path fill-rule="evenodd" clip-rule="evenodd" d="M461.021 405.422C463.045 405.692 465.1 405.228 466.811 404.113C468.522 402.996 469.775 401.304 470.343 399.341C470.911 397.381 470.756 395.279 469.905 393.423C469.055 391.564 467.566 390.075 465.71 389.224C458.817 385.392 450.997 383.547 443.118 383.896C439.768 383.999 436.457 384.646 433.315 385.814C430.13 386.761 427.21 388.44 424.79 390.716C418.804 396.008 414.567 402.994 412.642 410.75C412.134 411.56 411.792 412.463 411.635 413.405C411.478 414.35 411.51 415.315 411.728 416.246C411.946 417.178 412.346 418.056 412.905 418.832C413.464 419.607 414.171 420.264 414.986 420.767C415.794 421.34 416.714 421.734 417.686 421.928C418.658 422.12 419.66 422.105 420.626 421.886C421.592 421.664 422.5 421.24 423.291 420.643C424.082 420.046 424.738 419.29 425.216 418.422C425.216 418.422 459.316 405.422 461.021 405.422Z" fill="#39276F"/>
<path fill-rule="evenodd" clip-rule="evenodd" d="M595.537 391.566C593.82 389.486 591.722 387.751 589.357 386.451C587.081 385.094 584.647 384.019 582.11 383.254C576.32 381.869 570.376 381.225 564.421 381.336C563.373 381.008 562.269 380.891 561.173 380.993C560.078 381.093 559.014 381.411 558.042 381.927C557.07 382.442 556.212 383.146 555.515 383.996C554.816 384.846 554.293 385.825 553.978 386.877C553.622 387.941 553.49 389.066 553.59 390.183C553.69 391.298 554.023 392.38 554.562 393.363C555.103 394.345 555.843 395.202 556.732 395.884C557.622 396.566 558.643 397.054 559.732 397.321L591.701 417.354C592.232 418.173 592.929 418.872 593.745 419.405C594.561 419.94 595.48 420.298 596.441 420.457C597.402 420.619 598.389 420.577 599.333 420.336C600.277 420.095 601.164 419.66 601.931 419.059C602.741 418.524 603.436 417.832 603.971 417.024C604.508 416.214 604.877 415.306 605.056 414.351C605.235 413.397 605.22 412.416 605.013 411.468C604.806 410.519 604.41 409.622 603.849 408.829C602.426 402.519 599.582 396.615 595.537 391.566Z" fill="#39276F"/>
<path fill-rule="evenodd" clip-rule="evenodd" d="M664.192 368.545C665.897 358.952 667.175 349.572 669.309 340.192C670.801 334.223 672.506 328.254 674.424 322.499C685.295 294.999 687.429 298.196 684.017 289.882C683.062 287.706 681.593 285.793 679.737 284.307C677.881 282.822 675.692 281.809 673.358 281.355C666.8 280.455 660.129 280.858 653.727 282.541C647.327 284.224 641.319 287.153 636.053 291.161C622.992 300.899 611.614 312.709 602.37 326.123C585.276 313.42 566.082 303.823 545.664 297.77C536.624 295.173 527.336 293.529 517.951 292.867C508.52 292.012 499.03 292.012 489.599 292.867C467.744 296.69 447.169 305.842 429.696 319.514V320.793C420.963 309.142 410.461 298.928 398.572 290.522C387.744 282.682 374.276 279.392 361.053 281.355C358.675 281.775 356.446 282.8 354.58 284.331C352.713 285.861 351.271 287.847 350.394 290.096C345.064 302.46 354.657 297.557 364.89 340.406C367.022 349.785 368.514 359.165 370.219 368.758C347.038 390.407 331.358 418.881 325.455 450.044C319.552 481.209 323.732 513.445 337.39 542.072C340.145 547.43 343.206 552.625 346.557 557.634C350.277 562.728 354.413 567.504 358.921 571.918L372.351 581.51L410.084 640.561C412.855 644.61 415.839 651.859 419.25 656.76C420.617 658.956 422.347 660.901 424.367 662.517C426.865 664.177 429.898 664.838 432.861 664.363C435.823 663.889 438.499 662.317 440.355 659.959C441.847 657.187 446.324 650.367 446.537 649.94L466.576 610.075C467.003 608.686 467.003 607.2 466.576 605.811C472.971 607.092 478.94 608.797 485.549 609.649C495.162 610.86 504.864 611.216 514.541 610.715C524.273 610.41 533.968 609.342 543.533 607.518C552.273 606.026 560.374 603.893 568.688 601.761C567.676 602.863 567 604.229 566.736 605.702C566.472 607.175 566.632 608.69 567.196 610.075L587.234 649.94L593.63 659.959L595.335 661.878C596.232 662.845 597.322 663.619 598.532 664.147C599.743 664.676 601.049 664.949 602.37 664.949C603.69 664.949 604.998 664.676 606.209 664.147C607.419 663.619 608.506 662.845 609.406 661.878C611.477 660.32 613.216 658.363 614.521 656.121C617.933 651.219 621.13 643.971 623.687 639.919L661.421 580.871L674.85 571.276C679.417 566.92 683.558 562.137 687.216 556.995C690.566 551.986 693.626 546.79 696.382 541.432C710.065 512.826 714.28 480.604 708.415 449.441C702.55 418.278 686.911 389.794 663.765 368.119L664.192 368.545ZM671.44 529.282C669.462 533.466 667.107 537.462 664.405 541.219C661.915 544.908 659.057 548.337 655.878 551.451C652.468 554.863 646.711 557.847 643.086 561.47C641.206 563.401 639.559 565.547 638.184 567.866L605.141 627.982L601.944 635.017L583.824 602.614C582.916 600.986 581.491 599.711 579.773 598.991C590.037 595.952 600.141 592.395 610.045 588.33C611.096 588.017 612.072 587.495 612.914 586.794C613.756 586.092 614.448 585.227 614.945 584.249C615.444 583.273 615.74 582.205 615.812 581.112C615.887 580.018 615.738 578.921 615.373 577.885C614.691 575.796 613.208 574.064 611.251 573.066C609.293 572.067 607.021 571.883 604.928 572.557C584.212 576.988 563.19 579.839 542.041 581.084C533.301 581.084 524.348 581.084 515.393 582.363H487.467C466.598 582.964 445.74 580.813 425.432 575.967C423.591 575.325 421.575 575.411 419.793 576.201C418.011 576.994 416.597 578.435 415.839 580.232C415.143 582.069 415.2 584.108 415.999 585.903C416.797 587.699 418.272 589.108 420.103 589.824C430.328 594.822 440.953 598.959 451.866 602.188L432.467 634.591L429.269 627.556L396.227 567.866C394.928 565.554 393.353 563.405 391.537 561.47C387.7 557.847 382.157 554.863 378.533 551.451C375.352 548.337 372.496 544.908 370.006 541.219C367.38 537.413 365.029 533.423 362.971 529.282C349.672 503.73 345.247 474.483 350.394 446.142C355.38 416.728 370.003 389.806 391.963 369.611C393.331 368.217 394.096 366.341 394.096 364.388C394.096 362.435 393.331 360.56 391.963 359.165C391.075 358.173 389.915 357.462 388.627 357.121C387.339 356.78 385.979 356.824 384.715 357.247V337.421C384.715 330.813 384.715 323.778 383.436 316.103V312.906C388.76 316.204 393.82 319.911 398.572 323.991C410.604 332.998 421.549 343.371 431.188 354.902C431.735 355.868 432.475 356.712 433.361 357.38C434.248 358.048 435.263 358.527 436.342 358.787C437.422 359.047 438.543 359.082 439.637 358.891C440.73 358.699 441.773 358.284 442.7 357.673C443.717 357.064 444.599 356.255 445.293 355.294C445.988 354.334 446.48 353.242 446.739 352.085C446.998 350.929 447.019 349.732 446.801 348.567C446.583 347.402 446.131 346.293 445.471 345.309C443.339 341.685 440.355 336.781 436.731 331.452C453.998 323.605 472.764 319.605 491.731 319.727C499.612 319.301 507.511 319.301 515.393 319.727C523.653 320.584 531.845 322.009 539.908 323.991C558.332 326.972 576.218 332.647 592.991 340.832C591.712 342.964 590.005 345.522 589.152 347.227C588.014 349.106 587.646 351.352 588.121 353.497C588.598 355.641 589.883 357.519 591.71 358.739C592.637 359.35 593.681 359.765 594.775 359.957C595.868 360.148 596.989 360.113 598.07 359.853C599.148 359.593 600.162 359.114 601.049 358.446C601.936 357.777 602.675 356.934 603.223 355.968C612.882 344.066 623.9 333.335 636.053 323.991C640.773 320.354 645.763 317.076 650.974 314.185V317.382C650.974 324.417 649.908 331.239 649.695 338.7C649.482 346.161 649.695 351.917 649.695 358.526C648.435 358.073 647.067 358.015 645.773 358.358C644.478 358.7 643.318 359.428 642.446 360.444C641.745 361.121 641.185 361.932 640.803 362.829C640.422 363.727 640.226 364.692 640.226 365.667C640.226 366.642 640.422 367.607 640.803 368.505C641.185 369.402 641.745 370.214 642.446 370.89C664.249 391.117 678.659 418.058 683.377 447.421C688.575 475.276 684.377 504.069 671.44 529.282Z" fill="#39276F"/>
</g>
<path d="M242.21 816.86V805.444V785.925L240.86 771.562H263.08L264.553 785.925V805.444L264.43 813.178L242.21 816.86ZM282.883 843.868L276.5 788.012L297.737 778.437L302.402 824.226C306.003 823.98 308.908 823.449 311.118 822.63C313.41 821.812 315.128 820.748 316.274 819.438C317.502 818.047 318.32 816.451 318.729 814.651C319.22 812.768 319.466 810.722 319.466 808.513C319.548 806.221 319.548 803.766 319.466 801.147V797.096C319.466 795.05 319.138 793.372 318.484 792.063C317.911 790.753 317.133 789.771 316.151 789.117C315.169 788.38 314.023 788.012 312.714 788.012H276.5L274.413 771.562H314.31C322.903 771.562 329.491 773.853 334.074 778.437C338.739 783.02 341.194 789.321 341.44 797.342L341.563 801.638C341.808 809.249 340.662 815.674 338.125 820.911C335.588 826.149 331.783 830.405 326.709 833.679C321.635 836.952 315.415 839.407 308.049 841.044C300.684 842.681 292.295 843.622 282.883 843.868ZM351.132 842.64V826.19H367.214V793.782C367.214 791.163 366.764 789.485 365.863 788.748C364.963 787.93 363.695 787.439 362.058 787.275L353.219 786.17L355.92 769.966L373.966 772.176C379.04 772.749 382.886 774.958 385.505 778.805C388.206 782.651 389.556 787.439 389.556 793.168V842.64H351.132ZM398.726 842.64V826.19H414.807V793.782C414.807 791.163 414.357 789.485 413.457 788.748C412.557 787.93 411.288 787.439 409.651 787.275L400.813 786.17L403.513 769.966L421.559 772.176C426.633 772.749 430.48 774.958 433.098 778.805C435.799 782.651 437.15 787.439 437.15 793.168V842.64H398.726ZM448.529 816.86V805.444V785.925L447.178 771.562H469.398L470.871 785.925V805.444L470.748 813.178L448.529 816.86ZM481.345 842.64V826.19H508.843C510.889 826.19 512.649 825.822 514.122 825.085C515.595 824.267 516.782 823.203 517.682 821.894C518.664 820.502 519.36 818.988 519.769 817.351C520.26 815.633 520.505 813.873 520.505 812.073V802.129C520.505 799.756 520.096 797.505 519.278 795.377C518.459 793.168 517.191 791.408 515.472 790.099C513.754 788.707 511.544 788.012 508.843 788.012H502.214L500.496 796.605C500.168 798.651 500.496 800.206 501.478 801.27C502.46 802.334 504.342 803.193 507.125 803.848L503.933 817.351C497.304 817.433 492.23 816.41 488.711 814.282C485.192 812.155 482.859 809.372 481.713 805.935C480.649 802.416 480.445 798.61 481.1 794.518L486.133 771.562H514.367C520.424 771.562 525.539 772.953 529.712 775.736C533.968 778.437 537.201 782.201 539.411 787.03C541.702 791.776 542.848 797.219 542.848 803.357V810.845C542.848 815.428 542.193 819.684 540.884 823.612C539.656 827.459 537.815 830.814 535.359 833.679C532.904 836.543 529.917 838.753 526.398 840.308C522.879 841.863 518.869 842.64 514.367 842.64H481.345ZM603.688 842.64V793.536C603.688 791.654 603.238 790.262 602.338 789.362C601.437 788.462 600.046 788.012 598.164 788.012H572.998V771.562H604.547C608.639 771.562 612.281 772.339 615.473 773.894C618.746 775.449 621.324 777.945 623.207 781.383C625.089 784.738 626.03 789.198 626.03 794.764V842.64H603.688ZM634.264 848.041L631.195 830.732L663.358 824.717C666.959 824.062 669.782 822.876 671.828 821.157C673.874 819.357 675.388 817.024 676.37 814.16C677.434 811.295 678.13 807.817 678.457 803.725C678.785 799.633 678.907 794.927 678.826 789.608C678.826 784.206 678.826 778.191 678.826 771.562H700.922C700.922 779.009 700.8 786.007 700.554 792.554C700.309 799.019 699.613 804.994 698.467 810.477C697.403 815.878 695.562 820.707 692.943 824.963C690.406 829.218 686.764 832.819 682.017 835.765C677.352 838.712 671.255 840.921 663.726 842.394L634.264 848.041ZM649.977 829.627L636.351 771.562H658.693L671.214 829.627H649.977ZM711.552 842.64V785.925L710.201 771.562H732.421L733.894 785.925V842.64H711.552ZM743.509 842.64V826.19H759.59V793.782C759.59 791.163 759.14 789.485 758.24 788.748C757.34 787.93 756.071 787.439 754.434 787.275L745.596 786.17L748.296 769.966L766.342 772.176C771.416 772.749 775.263 774.958 777.881 778.805C780.582 782.651 781.932 787.439 781.932 793.168V842.64H743.509Z" fill="#39276F"/>
<defs>
<clipPath id="clip0_1590_4657">
<rect width="511.5" height="511.5" fill="white" transform="translate(306.9 153.45)"/>
</clipPath>
</defs>
</svg>
