<svg width="40" height="40" viewBox="0 0 40 40" fill="none" xmlns="http://www.w3.org/2000/svg">
<g id="Outline / Dollar">
<path id="Vector" d="M20 10V30M15 25.3033L16.465 26.4017C18.4167 27.8667 21.5817 27.8667 23.535 26.4017C25.4883 24.9367 25.4883 22.5633 23.535 21.0983C22.56 20.365 21.28 20 20 20C18.7917 20 17.5833 19.6333 16.6617 18.9017C14.8183 17.4367 14.8183 15.0633 16.6617 13.5983C18.505 12.1333 21.495 12.1333 23.3383 13.5983L24.03 14.1483M35 20C35 21.9698 34.612 23.9204 33.8582 25.7403C33.1044 27.5601 31.9995 29.2137 30.6066 30.6066C29.2137 31.9995 27.5601 33.1044 25.7403 33.8582C23.9204 34.612 21.9698 35 20 35C18.0302 35 16.0796 34.612 14.2597 33.8582C12.4399 33.1044 10.7863 31.9995 9.3934 30.6066C8.00052 29.2137 6.89563 27.5601 6.14181 25.7403C5.38799 23.9204 5 21.9698 5 20C5 16.0218 6.58035 12.2064 9.3934 9.3934C12.2064 6.58035 16.0218 5 20 5C23.9782 5 27.7936 6.58035 30.6066 9.3934C33.4196 12.2064 35 16.0218 35 20Z" stroke="#39276F" stroke-width="3" stroke-linecap="round" stroke-linejoin="round"/>
</g>
</svg>
