<svg width="40" height="40" viewBox="0 0 40 40" fill="none" xmlns="http://www.w3.org/2000/svg">
<g id="Outline / Invest">
<path id="Vector" d="M7.5 33.75C7.16982 33.7457 6.85438 33.6126 6.62089 33.3791C6.3874 33.1456 6.25432 32.8302 6.25 32.5V7.5C6.25 7.16848 6.3817 6.85054 6.61612 6.61612C6.85054 6.3817 7.16848 6.25 7.5 6.25C7.83152 6.25 8.14946 6.3817 8.38388 6.61612C8.6183 6.85054 8.75 7.16848 8.75 7.5V32.5C8.74568 32.8302 8.6126 33.1456 8.37911 33.3791C8.14562 33.6126 7.83018 33.7457 7.5 33.75Z" fill="#39276F"/>
<path id="Vector_2" d="M32.5 33.75H7.5C7.16848 33.75 6.85054 33.6183 6.61612 33.3839C6.3817 33.1495 6.25 32.8315 6.25 32.5C6.25 32.1685 6.3817 31.8505 6.61612 31.6161C6.85054 31.3817 7.16848 31.25 7.5 31.25H32.5C32.8315 31.25 33.1495 31.3817 33.3839 31.6161C33.6183 31.8505 33.75 32.1685 33.75 32.5C33.75 32.8315 33.6183 33.1495 33.3839 33.3839C33.1495 33.6183 32.8315 33.75 32.5 33.75ZM23.3333 24.5833C23.1691 24.5841 23.0064 24.5521 22.8547 24.4891C22.703 24.4261 22.5654 24.3335 22.45 24.2167L18.3333 20.1L14.2167 24.2167C13.9797 24.4375 13.6663 24.5577 13.3425 24.552C13.0186 24.5462 12.7097 24.4151 12.4806 24.186C12.2516 23.957 12.1204 23.648 12.1147 23.3242C12.109 23.0004 12.2292 22.687 12.45 22.45L17.45 17.45C17.6844 17.2159 18.0021 17.0844 18.3333 17.0844C18.6646 17.0844 18.9823 17.2159 19.2167 17.45L23.3333 21.5667L29.1167 15.7833C29.3536 15.5625 29.667 15.4423 29.9909 15.448C30.3147 15.4538 30.6237 15.5849 30.8527 15.814C31.0817 16.043 31.2129 16.352 31.2186 16.6758C31.2243 16.9996 31.1041 17.313 30.8833 17.55L24.2167 24.2167C24.1013 24.3335 23.9637 24.4261 23.812 24.4891C23.6603 24.5521 23.4976 24.5841 23.3333 24.5833Z" fill="#39276F"/>
<path id="Vector_3" d="M30.8333 23.0667C30.5032 23.0624 30.1877 22.9293 29.9542 22.6958C29.7207 22.4623 29.5876 22.1469 29.5833 21.8167V17.0833H25C24.6685 17.0833 24.3505 16.9516 24.1161 16.7172C23.8817 16.4828 23.75 16.1649 23.75 15.8333C23.75 15.5018 23.8817 15.1839 24.1161 14.9495C24.3505 14.715 24.6685 14.5833 25 14.5833H30.8333C31.1635 14.5877 31.479 14.7207 31.7124 14.9542C31.9459 15.1877 32.079 15.5032 32.0833 15.8333V21.8167C32.079 22.1469 31.9459 22.4623 31.7124 22.6958C31.479 22.9293 31.1635 23.0624 30.8333 23.0667Z" fill="#39276F"/>
</g>
</svg>
