<svg width="101" height="100" viewBox="0 0 101 100" fill="none" xmlns="http://www.w3.org/2000/svg">
<g id="Social-Media-Discussion--Streamline-Bangalore">
<g id="Social-media-Social-media-discussion-01">
<g id="color 2">
<path id="Vector" d="M96.7416 70.2279C94.2451 66.0106 89.6895 60.4704 84.9638 59.2062L83.6404 62.3634C83.5539 62.5579 83.4071 62.7191 83.2215 62.8231C83.0355 62.927 82.8211 62.9683 82.6101 62.94L78.9898 62.4295C78.8435 62.4087 78.7042 62.3554 78.5814 62.2733C78.4585 62.1912 78.356 62.0828 78.2804 61.9559C78.2052 61.8291 78.1595 61.6868 78.1465 61.5395C78.1331 61.3928 78.1535 61.2445 78.2052 61.1062L78.9898 58.7809C76.473 59.4197 72.7039 57.5421 70.4542 56.2287L74.3864 47.015C73.6322 46.1407 72.6934 45.4446 71.6372 44.9771C70.5816 44.5096 69.4348 44.2823 68.2806 44.3116L63.6772 54.4352C63.1021 55.7043 63.0041 57.1386 63.4021 58.4739C63.7996 59.8092 64.6663 60.9565 65.8419 61.7042C68.6055 63.5076 71.6542 64.831 74.8591 65.6175C74.8009 68.2966 75.3839 70.9507 76.5605 73.3586C79.4565 74.1427 82.5071 74.1526 85.408 73.387C85.2309 71.6771 85.9931 69.4846 86.6085 67.8767L90.2194 71.7044L82.7071 78.1983C82.9559 80.7246 84.9668 82.8748 87.301 83.6051L95.659 76.563C96.5585 75.8048 97.161 74.7531 97.359 73.5934C97.557 72.4338 97.3386 71.2418 96.7416 70.2279Z" fill="#9CE799"/>
<path id="Vector_2" d="M14.6665 35.4332C14.1577 35.7254 13.6105 35.945 13.0407 36.0854C7.83239 37.3993 5.025 44.2146 3.68523 49.1393C3.33722 50.4164 3.49219 51.7781 4.11822 52.9442C4.74425 54.1103 5.79368 54.9924 7.05032 55.4078C10.7369 56.5939 14.5721 57.256 18.4431 57.3739C19.5216 55.5665 19.8475 53.4074 19.3505 51.3622C16.4147 51.1079 13.5075 50.592 10.6637 49.8199C11.2026 48.3175 11.8782 46.8677 12.682 45.4887C13.3895 47.8712 13.1188 46.9533 13.876 49.5458C16.9953 50.0562 20.6724 50.2831 24.1414 49.404C24.6984 47.3314 25.0312 45.205 25.1339 43.0614C26.8228 44.3998 28.715 45.4593 30.7388 46.1996C31.5179 46.504 32.3501 46.6491 33.1862 46.6264C34.0223 46.6037 34.8454 46.4135 35.6068 46.0673C39.0212 44.5121 41.1554 43.3449 45.3051 40.2351C45.3334 37.768 44.237 36.0476 41.9873 35.0929C39.3406 37.0685 36.2023 39.0913 33.3193 40.2351C31.3213 38.7411 29.2103 37.4042 27.0055 36.2367C24.5767 35.0531 21.1639 34.6675 20.6629 34.6014C19.1108 36.4222 17.6406 36.3064 14.6665 35.4332Z" fill="#9CE799"/>
<path id="Vector_3" d="M17.4456 52.098C17.3409 52.098 17.2385 52.1288 17.1515 52.187C17.0645 52.2452 16.9966 52.3278 16.9566 52.4248C16.9165 52.5213 16.906 52.6278 16.9264 52.7308C16.9469 52.8333 16.9973 52.9278 17.0713 53.0014C17.1453 53.0756 17.2396 53.1258 17.3423 53.1467C17.445 53.1671 17.5514 53.1566 17.6482 53.1163C17.7449 53.076 17.8276 53.0084 17.8857 52.9213C17.9439 52.8343 17.9749 52.7318 17.9749 52.6273C17.9728 52.4875 17.9163 52.3542 17.8175 52.2552C17.7187 52.1567 17.5853 52.1 17.4456 52.098Z" fill="#9CE799"/>
<path id="Vector_4" d="M9.76066 54.9904C10.053 54.9904 10.29 54.7536 10.29 54.4611C10.29 54.1686 10.053 53.9318 9.76066 53.9318C9.46828 53.9318 9.23132 54.1686 9.23132 54.4611C9.23132 54.7536 9.46828 54.9904 9.76066 54.9904Z" fill="#9CE799"/>
<path id="Vector_5" d="M6.0175 47.9105C6.30984 47.9105 6.54684 47.6735 6.54684 47.3811C6.54684 47.0888 6.30984 46.8518 6.0175 46.8518C5.72517 46.8518 5.48816 47.0888 5.48816 47.3811C5.48816 47.6735 5.72517 47.9105 6.0175 47.9105Z" fill="#9CE799"/>
<path id="Vector_6" d="M12.398 43.4206C12.6903 43.4206 12.9273 43.1836 12.9273 42.8912C12.9273 42.5989 12.6903 42.3619 12.398 42.3619C12.1057 42.3619 11.8687 42.5989 11.8687 42.8912C11.8687 43.1836 12.1057 43.4206 12.398 43.4206Z" fill="#9CE799"/>
<path id="Vector_7" d="M14.8367 36.2083C14.732 36.2083 14.6297 36.2394 14.5427 36.2975C14.4556 36.3557 14.3877 36.4384 14.3477 36.5351C14.3076 36.6318 14.2971 36.7383 14.3175 36.8409C14.338 36.9436 14.3884 37.0379 14.4624 37.1119C14.5364 37.186 14.6308 37.2364 14.7334 37.2568C14.8361 37.2772 14.9425 37.2667 15.0393 37.2267C15.136 37.1866 15.2187 37.1188 15.2769 37.0317C15.335 36.9447 15.3661 36.8423 15.3661 36.7377C15.3639 36.598 15.3074 36.4646 15.2086 36.3658C15.1098 36.267 14.9764 36.2105 14.8367 36.2083Z" fill="#9CE799"/>
<path id="Vector_8" d="M20.1396 41.5206C20.0349 41.5206 19.9325 41.5517 19.8455 41.6098C19.7584 41.668 19.6906 41.7507 19.6505 41.8474C19.6104 41.9441 19.6 42.0506 19.6204 42.1533C19.6408 42.2559 19.6912 42.3503 19.7653 42.4243C19.8393 42.4983 19.9336 42.5487 20.0363 42.5691C20.139 42.5896 20.2454 42.5791 20.3422 42.539C20.4389 42.499 20.5215 42.4311 20.5797 42.344C20.6379 42.257 20.6689 42.1546 20.6689 42.05C20.6667 41.9103 20.6103 41.7769 20.5115 41.6781C20.4127 41.5793 20.2793 41.5228 20.1396 41.5206Z" fill="#9CE799"/>
<path id="Vector_9" d="M15.8387 46.3224C15.734 46.3224 15.6316 46.3535 15.5446 46.4117C15.4575 46.4698 15.3897 46.5525 15.3496 46.6492C15.3095 46.7459 15.2991 46.8524 15.3195 46.9551C15.3399 47.0578 15.3903 47.1521 15.4644 47.2261C15.5384 47.3001 15.6327 47.3505 15.7354 47.371C15.8381 47.3914 15.9445 47.3809 16.0413 47.3408C16.138 47.3008 16.2207 47.2329 16.2788 47.1459C16.337 47.0589 16.368 46.9565 16.368 46.8518C16.3681 46.7822 16.3545 46.7133 16.328 46.6491C16.3015 46.5848 16.2624 46.5264 16.2132 46.4772C16.1641 46.428 16.1057 46.389 16.0414 46.3625C15.9771 46.3359 15.9082 46.3223 15.8387 46.3224Z" fill="#9CE799"/>
<path id="Vector_10" d="M27.8807 43.4206C28.173 43.4206 28.41 43.1836 28.41 42.8912C28.41 42.5989 28.173 42.3619 27.8807 42.3619C27.5883 42.3619 27.3513 42.5989 27.3513 42.8912C27.3513 43.1836 27.5883 43.4206 27.8807 43.4206Z" fill="#9CE799"/>
<path id="Vector_11" d="M32.9755 40.8958C32.8708 40.8958 32.7684 40.9268 32.6814 40.985C32.5944 41.0431 32.5265 41.1258 32.4865 41.2225C32.4464 41.3192 32.4359 41.4257 32.4563 41.5284C32.4768 41.6311 32.5272 41.7253 32.6012 41.7994C32.6752 41.8734 32.7695 41.9238 32.8722 41.9442C32.9749 41.9647 33.0814 41.9542 33.1781 41.9141C33.2748 41.8741 33.3575 41.8062 33.4156 41.7192C33.4738 41.6321 33.5048 41.5298 33.5048 41.4251C33.5027 41.2854 33.4462 41.152 33.3474 41.0532C33.2486 40.9544 33.1152 40.8979 32.9755 40.8958Z" fill="#9CE799"/>
<path id="Vector_12" d="M39.3938 43.1086C39.6862 43.1086 39.9232 42.8716 39.9232 42.5793C39.9232 42.2869 39.6862 42.0499 39.3938 42.0499C39.1015 42.0499 38.8645 42.2869 38.8645 42.5793C38.8645 42.8716 39.1015 43.1086 39.3938 43.1086Z" fill="#9CE799"/>
<path id="Vector_13" d="M42.2012 37.4088C42.4935 37.4088 42.7306 37.1718 42.7306 36.8794C42.7306 36.5871 42.4935 36.3501 42.2012 36.3501C41.9088 36.3501 41.6719 36.5871 41.6719 36.8794C41.6719 37.1718 41.9088 37.4088 42.2012 37.4088Z" fill="#9CE799"/>
<path id="Vector_14" d="M22.7295 47.3717C22.6248 47.3717 22.5225 47.4027 22.4354 47.4609C22.3484 47.5191 22.2806 47.6017 22.2405 47.6985C22.2004 47.7952 22.19 47.9016 22.2104 48.0043C22.2308 48.107 22.2812 48.2013 22.3552 48.2753C22.4293 48.3493 22.5236 48.3998 22.6263 48.4202C22.7289 48.4406 22.8354 48.4301 22.9321 48.3901C23.0288 48.35 23.1115 48.2822 23.1696 48.1951C23.2278 48.1081 23.2589 48.0057 23.2589 47.901C23.2567 47.7613 23.2002 47.628 23.1014 47.5292C23.0026 47.4304 22.8692 47.3739 22.7295 47.3717Z" fill="#9CE799"/>
<path id="Vector_15" d="M23.7787 37.0779C24.0711 37.0779 24.3081 36.8409 24.3081 36.5486C24.3081 36.2562 24.0711 36.0192 23.7787 36.0192C23.4863 36.0192 23.2494 36.2562 23.2494 36.5486C23.2494 36.8409 23.4863 37.0779 23.7787 37.0779Z" fill="#9CE799"/>
<path id="Subtract" fill-rule="evenodd" clip-rule="evenodd" d="M44.9519 13.1352L45.8593 10.7438C45.2742 9.92412 44.9572 8.9434 44.9519 7.93636C44.9519 5.0628 47.5041 2.73749 50.6518 2.73749C53.7994 2.73749 56.3422 5.0628 56.3422 7.93636C56.3422 10.8099 53.79 13.1352 50.6423 13.1352C49.468 13.1416 48.3176 12.8031 47.3339 12.1616L44.9519 13.1352ZM48.6768 8.24606C48.738 8.15437 48.7707 8.04661 48.7707 7.93636C48.7705 7.78826 48.7114 7.64637 48.6065 7.5418C48.5017 7.43722 48.3596 7.37852 48.2115 7.37866C48.1013 7.37896 47.9936 7.41195 47.9021 7.47339C47.8106 7.53483 47.7393 7.62204 47.6974 7.72398C47.6554 7.82592 47.6445 7.938 47.6662 8.04606C47.6879 8.15417 47.7411 8.25342 47.8192 8.33123C47.8973 8.40909 47.9966 8.46207 48.1048 8.48346C48.2129 8.50486 48.325 8.49371 48.4268 8.45147C48.5286 8.40924 48.6156 8.33775 48.6768 8.24606ZM51.2 7.93636C51.2 8.04666 51.1672 8.15452 51.106 8.24621C51.0448 8.33795 50.9577 8.40939 50.8557 8.45162C50.7537 8.49381 50.6418 8.50486 50.5334 8.48336C50.4253 8.46182 50.3259 8.40874 50.2479 8.33073C50.1699 8.25272 50.1168 8.15337 50.0953 8.04517C50.0738 7.93701 50.0849 7.82487 50.127 7.72294C50.1693 7.62105 50.2407 7.53394 50.3325 7.47264C50.4242 7.4114 50.5319 7.37866 50.6423 7.37866C50.7901 7.37891 50.9319 7.43777 51.0363 7.54229C51.1408 7.64682 51.1995 7.78856 51.2 7.93636ZM53.5447 8.24621C53.6059 8.15452 53.6388 8.04666 53.6388 7.93636C53.6383 7.78856 53.5795 7.64682 53.4751 7.54229C53.3706 7.43777 53.2288 7.37891 53.0811 7.37866C52.9706 7.37866 52.8631 7.4114 52.7711 7.47264C52.6796 7.53394 52.6079 7.62105 52.5656 7.72294C52.5234 7.82487 52.5124 7.93701 52.5343 8.04517C52.5557 8.15337 52.6089 8.25272 52.6865 8.33073C52.7646 8.40874 52.8641 8.46182 52.9721 8.48336C53.0806 8.50486 53.1925 8.49381 53.2945 8.45162C53.3965 8.40939 53.4835 8.33795 53.5447 8.24621Z" fill="#9CE799"/>
<path id="Vector_16" d="M82.2131 35.4332C82.2131 35.6313 82.1544 35.8251 82.0445 35.9898C81.934 36.1546 81.7778 36.2831 81.5947 36.3589C81.4116 36.4347 81.2101 36.4545 81.0156 36.4159C80.8211 36.3772 80.643 36.2818 80.5027 36.1417C80.3624 36.0015 80.2669 35.823 80.2286 35.6286C80.1898 35.4343 80.2097 35.2328 80.2853 35.0498C80.3614 34.8667 80.4898 34.7102 80.6544 34.6001C80.8191 34.49 81.0131 34.4312 81.2111 34.4312C81.4768 34.4314 81.7315 34.5369 81.9196 34.7248C82.1071 34.9127 82.2131 35.1675 82.2131 35.4332Z" fill="#9CE799"/>
<path id="Vector_17" d="M44.243 91.2686L35.4805 91.0437C35.4036 91.0368 35.3261 91.0482 35.2545 91.0771C35.1829 91.1059 35.1191 91.1517 35.0684 91.2099C35.0176 91.2681 34.9814 91.3373 34.9627 91.4124C34.944 91.487 34.9433 91.5656 34.9606 91.6407L35.3586 93.2666C37.1608 93.3084 38.9637 93.2327 40.756 93.0397C39.1138 93.7118 37.4063 94.2118 35.6611 94.5322L36.474 96.8953C36.4917 96.97 36.5271 97.0396 36.5771 97.0978C36.6272 97.1565 36.6907 97.2018 36.762 97.2306C36.8333 97.259 36.9105 97.2704 36.987 97.263C37.0636 97.2555 37.1373 97.2301 37.2019 97.1884C39.8523 95.8769 42.2952 94.1825 44.4519 92.1596C44.5377 92.1064 44.6046 92.0273 44.6432 91.9338C44.6818 91.8407 44.6901 91.7377 44.667 91.6392C44.644 91.5407 44.5907 91.4522 44.5146 91.3855C44.4385 91.3194 44.3435 91.2781 44.243 91.2686Z" fill="#9CE799"/>
</g>
<g id="color 1">
<path id="Vector_18" d="M61.7206 19.7893H37.4466C36.6917 19.789 35.9442 19.9374 35.2467 20.2262C34.5493 20.5149 33.9156 20.9382 33.3819 21.4721C32.8481 22.0058 32.4248 22.6396 32.1361 23.337C31.8475 24.0345 31.6991 24.7821 31.6995 25.5369V29.4403H34.2506V26.0941C34.2535 25.5657 34.3622 25.0432 34.5704 24.5575C34.7786 24.0718 35.0821 23.6328 35.4629 23.2664C35.8436 22.9 36.294 22.6137 36.7873 22.4243C37.2807 22.2349 37.807 22.1464 38.3351 22.1639H61.0022C61.5301 22.1472 62.0559 22.2363 62.5489 22.426C63.042 22.6157 63.4917 22.9021 63.8723 23.2683C64.2529 23.6346 64.5564 24.0733 64.7648 24.5586C64.9728 25.0439 65.0822 25.566 65.0857 26.0941V51.3323L67.4677 46.0956V25.5369C67.4682 24.7821 67.3195 24.0346 67.0309 23.3371C66.7424 22.6397 66.319 22.006 65.7852 21.4722C65.2514 20.9384 64.6175 20.5151 63.9205 20.2263C63.2231 19.9375 62.4753 19.7891 61.7206 19.7893Z" fill="#39276F"/>
<path id="Vector_19" d="M65.0768 77.175V80.4087C65.0763 81.4918 64.6465 82.53 63.8803 83.2957C63.1147 84.0618 62.0764 84.4917 60.9933 84.4922H38.3257C37.2428 84.4917 36.2043 84.0618 35.4386 83.2957C34.6728 82.53 34.2425 81.4918 34.2422 80.4087V54.9367H31.6901V81.1196C31.69 81.8743 31.8386 82.6216 32.1275 83.3186C32.4163 84.0161 32.8396 84.6494 33.3734 85.1827C33.907 85.7165 34.5406 86.1394 35.2379 86.428C35.9352 86.7165 36.6825 86.8653 37.4372 86.8648H61.7207C62.4754 86.8653 63.2231 86.7165 63.9206 86.428C64.6176 86.1394 65.2514 85.716 65.7852 85.1822C66.319 84.6484 66.7424 84.0146 67.031 83.3176C67.3195 82.6201 67.4683 81.8724 67.4678 81.1176V77.1759L65.0768 77.175Z" fill="#39276F"/>
<path id="Vector_20" d="M82.0147 55.5103L81.1167 56.5595C81.1834 56.2456 81.2147 55.9257 81.2112 55.6048C81.4814 55.5949 81.75 55.563 82.0147 55.5103Z" fill="#39276F"/>
<path id="Vector_21" d="M19.3456 33.9019C19.0644 33.5949 18.9091 33.1933 18.9108 32.777C19.1172 32.9109 19.3327 33.0305 19.5555 33.1347C19.4074 33.3623 19.334 33.6305 19.3456 33.9019Z" fill="#39276F"/>
<path id="Vector_22" d="M13.3999 44.2996L13.2373 47.3717L12.6796 45.4623C12.889 45.1031 13.1258 44.7265 13.3999 44.2996Z" fill="#39276F"/>
<path id="Vector_23" d="M25.1305 43.0613C25.1827 41.9517 25.1543 40.8396 25.0454 39.7341L26.3389 43.9499C25.9529 43.6852 25.5464 43.3922 25.1305 43.0613Z" fill="#39276F"/>
<path id="Vector_24" d="M21.5953 25.4235C21.5799 25.2639 21.5117 25.114 21.4014 24.9975C21.291 24.8811 21.145 24.8049 20.9864 24.781C20.8278 24.7572 20.6658 24.7869 20.5261 24.8657C20.3864 24.9444 20.277 25.0675 20.2152 25.2156H20.1207C20.0723 25.0619 19.9739 24.9289 19.8411 24.8377C19.7084 24.7464 19.549 24.7021 19.3882 24.7118C19.2275 24.7215 19.0745 24.7847 18.9538 24.8913C18.833 24.9979 18.7513 25.1418 18.7217 25.3001H18.6839C18.6374 25.12 18.523 24.9648 18.3647 24.867C18.2065 24.7692 18.0165 24.7365 17.8346 24.7755C17.6527 24.8146 17.4929 24.9225 17.3887 25.0767C17.2845 25.2308 17.244 25.4192 17.2755 25.6026C17.2226 25.4396 17.1133 25.3007 16.9674 25.2109C16.8214 25.121 16.6482 25.086 16.4788 25.1122C16.3094 25.1383 16.1548 25.2239 16.0428 25.3536C15.9307 25.4833 15.8684 25.6486 15.8671 25.82C15.8665 25.8903 15.8761 25.9604 15.8954 26.028C16.2677 27.1488 16.5832 28.2877 16.8407 29.4403C17.1526 30.9527 17.3133 32.5786 16.8407 33.4203C17.7765 32.0497 18.0128 30.6696 17.8616 30.5184C16.4059 29.0821 17.6914 27.7394 18.3625 28.7697C18.6839 29.2612 18.873 29.2612 18.977 28.9781C19.4118 27.5031 21.4819 25.4618 22.2107 28.5712L21.5953 25.4235Z" fill="#39276F"/>
<path id="Vector_25" d="M83.2813 33.7317C83.2779 33.821 83.24 33.9054 83.1759 33.9673C83.1117 34.0293 83.0256 34.0638 82.9366 34.0638C82.847 34.0638 82.761 34.0293 82.6968 33.9673C82.6326 33.9054 82.5948 33.821 82.5913 33.7317C82.5948 33.6425 82.6326 33.558 82.6968 33.4961C82.761 33.4342 82.847 33.3995 82.9366 33.3995C83.0256 33.3995 83.1117 33.4342 83.1759 33.4961C83.24 33.558 83.2779 33.6425 83.2813 33.7317Z" fill="#39276F"/>
<path id="Vector_26" d="M86.9866 53.3079C87.1493 52.777 87.2448 52.2273 87.2702 51.6726C87.3836 48.2398 83.8957 47.4473 81.4569 49.4607C82.7897 48.61 83.5554 50.6895 83.423 51.9656C83.423 52.1905 83.4996 52.4004 84.0752 52.0154C85.0867 51.3159 85.7578 53.0457 83.8673 53.8208C83.5081 53.9626 83.121 55.7396 83.5648 57.9326C83.735 58.8018 84.1414 58.9276 84.9638 59.1898C87.2254 59.8495 89.4851 61.4425 91.1174 62.9897C95.4372 54.5367 86.9772 53.3079 86.9866 53.3079Z" fill="#39276F"/>
</g>
<g id="outlines">
<path id="Vector_27" d="M83.2812 33.7317C83.2777 33.821 83.2399 33.9054 83.1757 33.9673C83.1116 34.0293 83.0255 34.0638 82.9364 34.0638C82.8469 34.0638 82.7608 34.0293 82.6967 33.9673C82.6325 33.9054 82.5947 33.821 82.5912 33.7317C82.5947 33.6425 82.6325 33.558 82.6967 33.4961C82.7608 33.4342 82.8469 33.3995 82.9364 33.3995C83.0255 33.3995 83.1116 33.4342 83.1757 33.4961C83.2399 33.558 83.2777 33.6425 83.2812 33.7317Z" stroke="#39276F"/>
<path id="Vector_28" d="M76.5605 73.3561L75.0009 77.1749" stroke="#39276F" stroke-linecap="round" stroke-linejoin="round"/>
<path id="Vector_29" d="M34.2506 29.4403V26.0852C34.2531 25.5565 34.3616 25.0338 34.5697 24.5478C34.7777 24.0618 35.0811 23.6225 35.462 23.2558C35.8428 22.8892 36.2932 22.6026 36.7867 22.4131C37.2802 22.2236 37.8067 22.1349 38.3351 22.1524H61.0022C61.53 22.1358 62.0564 22.225 62.5494 22.4148C63.0424 22.6046 63.4927 22.8913 63.8733 23.2578C64.2538 23.6243 64.5568 24.0633 64.7653 24.5488C64.9737 25.0345 65.0827 25.5568 65.0857 26.0852V51.3323" stroke="#39276F" stroke-linecap="round" stroke-linejoin="round"/>
<path id="Vector_30" d="M67.4647 46.0861V25.5274C67.4642 24.7726 67.3154 24.0252 67.0264 23.328C66.7368 22.6308 66.313 21.9975 65.7791 21.4642C65.2448 20.9309 64.6105 20.5081 63.913 20.2199C63.2155 19.9317 62.4678 19.7839 61.7131 19.7848H37.4371C36.682 19.785 35.9343 19.9339 35.2368 20.2231C34.5393 20.5123 33.9056 20.9361 33.3719 21.4703C32.8382 22.0044 32.4149 22.6385 32.1264 23.3362C31.8378 24.034 31.6895 24.7818 31.6899 25.5369V29.4403" stroke="#39276F" stroke-linecap="round" stroke-linejoin="round"/>
<path id="Vector_31" d="M79.8027 51.682H72.392" stroke="#39276F" stroke-linecap="round" stroke-linejoin="round"/>
<path id="Vector_32" d="M87.2607 51.6771H92.0154C92.3019 51.6766 92.5855 51.7328 92.8502 51.8422C93.1153 51.9512 93.3556 52.1119 93.5586 52.3144C93.7616 52.5163 93.9223 52.7566 94.0322 53.0213C94.1422 53.286 94.1989 53.5696 94.1989 53.8561V66.3807" stroke="#39276F" stroke-linecap="round" stroke-linejoin="round"/>
<path id="Vector_33" d="M64.9275 51.682H63.4599L57.1665 49.7443L59.1704 55.8884V74.9924C59.1709 75.5715 59.4008 76.1267 59.8102 76.5361C60.2197 76.9456 60.7749 77.1754 61.354 77.1759H83.8673" stroke="#39276F" stroke-linecap="round" stroke-linejoin="round"/>
<path id="Vector_34" d="M40.2162 36.3685V31.6238C40.2159 31.0448 39.9858 30.4896 39.5763 30.0801C39.1669 29.6707 38.6117 29.4406 38.0326 29.4403H22.3514" stroke="#39276F" stroke-linecap="round" stroke-linejoin="round"/>
<path id="Vector_35" d="M65.0857 77.175V80.4087C65.0852 81.4918 64.6554 82.53 63.8892 83.2957C63.1236 84.0619 62.0853 84.4917 61.0022 84.4922H38.3257C37.2427 84.4917 36.2042 84.0619 35.4385 83.2957C34.6728 82.53 34.2424 81.4918 34.2422 80.4087V54.9367" stroke="#39276F" stroke-linecap="round" stroke-linejoin="round"/>
<path id="Vector_36" d="M31.6899 54.9337V81.1166C31.6895 81.8714 31.8378 82.6191 32.1264 83.3166C32.4151 84.0141 32.8384 84.6479 33.3721 85.1817C33.9059 85.7155 34.5396 86.1389 35.2371 86.428C35.9346 86.7165 36.6822 86.8653 37.4371 86.8648H61.7205C62.4752 86.8653 63.223 86.7165 63.9205 86.428C64.6175 86.1394 65.2513 85.716 65.7851 85.1822C66.3189 84.6484 66.7423 84.0146 67.0308 83.3176C67.3194 82.6201 67.4682 81.8723 67.4677 81.1176V77.1759" stroke="#39276F" stroke-linecap="round" stroke-linejoin="round"/>
<path id="Vector_37" d="M16.8217 29.4403H7.35977C6.78098 29.441 6.22617 29.6713 5.81703 30.0807C5.40793 30.4901 5.178 31.0451 5.17773 31.6238V44.7081" stroke="#39276F" stroke-linecap="round" stroke-linejoin="round"/>
<path id="Vector_38" d="M28.9681 54.9337H35.9247L42.2106 56.862L40.2161 50.7273V43.7136" stroke="#39276F" stroke-linecap="round" stroke-linejoin="round"/>
<path id="Vector_39" d="M50.8313 86.8648C48.9012 88.9916 46.5598 90.705 43.9485 91.9005C41.3374 93.0964 38.5107 93.7502 35.6395 93.8223C32.7684 93.8944 29.9125 93.3835 27.2446 92.3199C24.5767 91.2567 22.1522 89.6632 20.1179 87.6359C18.0835 85.6086 16.4816 83.1892 15.409 80.5251C14.3363 77.861 13.8153 75.0069 13.8774 72.1353C13.9395 69.2642 14.5835 66.4354 15.7703 63.8201C16.9571 61.2047 18.6622 58.857 20.7823 56.9197" stroke="#39276F" stroke-linecap="round" stroke-linejoin="round"/>
<path id="Vector_40" d="M44.243 91.2686L35.4805 91.0437C35.4036 91.0368 35.3261 91.0482 35.2545 91.0771C35.1829 91.1059 35.1191 91.1517 35.0684 91.2099C35.0176 91.2681 34.9814 91.3373 34.9627 91.4124C34.944 91.487 34.9433 91.5656 34.9606 91.6407L35.3586 93.2666C37.1608 93.3084 38.9637 93.2327 40.756 93.0397C39.1138 93.7118 37.4063 94.2118 35.6611 94.5322L36.474 96.8953C36.4917 96.97 36.5271 97.0396 36.5771 97.0978C36.6272 97.1565 36.6907 97.2018 36.762 97.2306C36.8333 97.259 36.9105 97.2704 36.987 97.263C37.0636 97.2555 37.1373 97.2301 37.2019 97.1884C39.8523 95.8769 42.2952 94.1825 44.4519 92.1596C44.5377 92.1064 44.6046 92.0273 44.6432 91.9338C44.6818 91.8407 44.6901 91.7377 44.667 91.6392C44.644 91.5407 44.5907 91.4522 44.5146 91.3855C44.4385 91.3194 44.3435 91.2781 44.243 91.2686Z" stroke="#39276F" stroke-linecap="round" stroke-linejoin="round"/>
<path id="Vector_41" d="M81.2111 55.5954C81.4808 55.5904 81.7499 55.5616 82.0146 55.5103L81.1166 56.5501" stroke="#39276F" stroke-linecap="round" stroke-linejoin="round"/>
<path id="Vector_42" d="M74.8591 65.5961C71.6452 64.8459 68.5916 63.527 65.8419 61.7017C64.6663 60.9539 63.8002 59.8067 63.4022 58.4714C63.0047 57.1361 63.1022 55.7018 63.6773 54.4327L68.2801 44.3001C70.6751 44.4618 72.6134 44.9299 74.3865 47.003L70.4562 56.2287C72.2238 57.259 74.4074 58.347 76.4302 58.743C79.2043 59.2858 81.2132 58.4187 81.2132 55.5953C79.956 55.6332 77.8764 55.17 80.0505 51.2094C82.2246 47.2488 83.6708 50.3139 83.4912 51.9845C83.5007 52.2775 83.6519 52.3531 84.1434 52.0129C85.1549 51.3129 85.831 53.0576 83.9355 53.8183C83.5773 53.9626 83.1892 55.7376 83.633 57.9301C83.9718 59.5938 85.1369 58.5435 88.5672 60.9151C92.3776 63.5519 95.1307 67.3687 96.8098 70.2064C97.4103 71.2198 97.6317 72.4138 97.4341 73.5755C97.2366 74.7367 96.6337 75.7909 95.7322 76.5491L87.31 83.6006C86.1081 83.2305 85.0359 82.5255 84.221 81.5678C83.4056 80.6101 82.8803 79.4395 82.7067 78.1938L90.2189 71.6999L85.7951 67.0025" stroke="#39276F" stroke-linecap="round" stroke-linejoin="round"/>
<path id="Vector_43" d="M19.3456 33.9019C19.0644 33.5949 18.9091 33.1933 18.9108 32.777C19.1172 32.9109 19.3327 33.0305 19.5555 33.1347" stroke="#39276F" stroke-linecap="round" stroke-linejoin="round"/>
<path id="Vector_44" d="M18.9675 28.9771C19.4023 27.5025 21.4818 25.4608 22.2012 28.5707L22.3619 29.5726C22.8629 34.1496 20.6888 33.6656 19.5545 33.1362C19.5545 33.1362 18.7615 34.3088 20.2137 34.5521C20.4465 34.5909 20.6047 34.5944 20.6615 34.6019C19.5272 36.2655 17.4277 36.3695 14.6686 35.4337C17.2342 33.98 18.1575 30.8403 17.8446 30.5278C16.4019 29.0891 17.6735 27.7493 18.3456 28.7791C18.6665 29.2711 18.8371 29.2612 18.96 28.9965L18.9675 28.9771Z" stroke="#39276F" stroke-linecap="round" stroke-linejoin="round"/>
<path id="Vector_45" d="M12.677 45.4886C12.8944 45.12 13.1352 44.725 13.3999 44.2996L13.2372 47.3811" stroke="#39276F" stroke-linecap="round" stroke-linejoin="round"/>
<path id="Vector_46" d="M25.1305 43.0613C25.1827 41.9517 25.1543 40.8396 25.0454 39.7341L26.3389 43.9499" stroke="#39276F" stroke-linecap="round" stroke-linejoin="round"/>
<path id="Vector_47" d="M14.6665 35.4332C14.1577 35.7254 13.6105 35.945 13.0407 36.0854C7.83239 37.3993 5.025 44.2146 3.68523 49.1393C3.33722 50.4164 3.49219 51.7781 4.11822 52.9442C4.74425 54.1103 5.79369 54.9924 7.05032 55.4078C10.7369 56.5939 14.5721 57.256 18.4431 57.3739C19.5216 55.5665 19.8475 53.4074 19.3505 51.3622C16.4147 51.1079 13.5075 50.592 10.6637 49.8199C11.2026 48.3175 11.8782 46.8677 12.682 45.4887C13.3895 47.8712 13.1188 46.9533 13.876 49.5458C16.9953 50.0562 20.6724 50.2831 24.1414 49.404C24.6984 47.3314 25.0312 45.205 25.1339 43.0614C26.8228 44.3998 28.715 45.4593 30.7388 46.1996C31.5179 46.504 32.3501 46.6491 33.1862 46.6264C34.0223 46.6037 34.8454 46.4135 35.6068 46.0673C39.0212 44.5121 41.1554 43.3449 45.3051 40.2351C45.3334 37.768 44.237 36.0476 41.9873 35.0929C39.3406 37.0685 36.2023 39.0913 33.3193 40.2351C31.3213 38.7411 29.2103 37.4042 27.0055 36.2367C24.5767 35.0531 21.1639 34.6675 20.6629 34.6014" stroke="#39276F" stroke-linecap="round" stroke-linejoin="round"/>
<path id="Vector_48" d="M71.2676 39.8888C71.3074 39.7756 71.374 39.6734 71.4611 39.5906C71.5482 39.5079 71.6536 39.4469 71.7686 39.4127C72.269 39.2804 73.0063 40.3296 72.77 41.6813C72.6481 42.4151 72.1322 42.7465 71.8387 41.64" stroke="#39276F" stroke-linecap="round" stroke-linejoin="round"/>
<path id="Vector_49" d="M72.288 39.6395C72.3715 39.5567 72.476 39.498 72.5904 39.4694C73.0924 39.3406 73.8571 40.1027 73.6775 41.4733C73.584 42.1853 73.1561 42.3589 72.7989 41.4788" stroke="#39276F" stroke-linecap="round" stroke-linejoin="round"/>
<path id="Vector_50" d="M68.791 44.3285C69.9159 42.3057 69.8298 41.7385 70.1238 40.7744C70.2651 40.3112 70.4631 39.9027 70.8701 39.8008C71.3676 39.6754 72.0009 40.5187 71.8153 41.8405C71.7387 42.3878 71.0029 42.2753 70.8701 40.8858" stroke="#39276F" stroke-linecap="round" stroke-linejoin="round"/>
<path id="Vector_51" d="M74.0461 46.6344C74.4053 45.8498 76.9112 41.2733 76.6266 41.1425C76.3157 40.9992 74.6227 42.5037 74.6227 42.5037C74.6227 42.5037 72.6377 42.7778 72.77 44.0459" stroke="#39276F" stroke-linecap="round" stroke-linejoin="round"/>
<path id="Vector_52" d="M74.6133 42.5037C75.4451 39.2047 74.8123 36.4342 74.6416 36.9267C74.3193 37.862 73.9233 40.3594 73.6775 41.4639" stroke="#39276F" stroke-linecap="round" stroke-linejoin="round"/>
<path id="Vector_53" d="M70.4169 41.4639C70.6054 41.4131 70.8059 41.4251 70.987 41.4982" stroke="#39276F" stroke-linecap="round" stroke-linejoin="round"/>
<path id="Vector_54" d="M43.137 35.6884C44.9518 35.2252 54.1397 36.4446 53.7427 37.3426C51.4646 37.6909 48.0453 37.3466 46.0767 38.4769C45.9444 38.553 45.4797 38.8749 45.226 39.0535" stroke="#39276F" stroke-linecap="round" stroke-linejoin="round"/>
<path id="Vector_55" d="M43.3922 35.6412C46.9274 34.8093 50.8408 30.1776 47.5513 34.8661C47.2394 35.3859 47.0881 35.679 47.5324 35.783" stroke="#39276F" stroke-linecap="round" stroke-linejoin="round"/>
<path id="Vector_56" d="M46.209 38.4013C48.005 37.6923 57.4291 40.0649 50.888 37.5505" stroke="#39276F" stroke-linecap="round" stroke-linejoin="round"/>
<path id="Vector_57" d="M46.2185 38.3918C46.9648 37.9938 54.1113 40.8793 50.3303 38.4958" stroke="#39276F" stroke-linecap="round" stroke-linejoin="round"/>
<path id="Vector_58" d="M24.2817 54.9337C25.7374 55.7297 26.2489 57.1565 25.7563 57.5426C25.5065 57.673 25.2216 57.7192 24.9434 57.6749" stroke="#39276F" stroke-linecap="round" stroke-linejoin="round"/>
<path id="Vector_59" d="M24.829 54.0924C26.2847 54.8884 26.7936 56.3118 26.3036 56.7013C26.186 56.7769 26.0541 56.8282 25.916 56.8505" stroke="#39276F" stroke-linecap="round" stroke-linejoin="round"/>
<path id="Vector_60" d="M18.6366 57.0321C20.2943 56.7341 22.0031 56.9277 23.5519 57.5898" stroke="#39276F" stroke-linecap="round" stroke-linejoin="round"/>
<path id="Vector_61" d="M23.4574 55.756C24.8374 56.569 25.2041 57.7107 24.7429 58.1286C24.2021 58.6177 22.3892 58.3649 21.8788 57.0699" stroke="#39276F" stroke-linecap="round" stroke-linejoin="round"/>
<path id="Vector_62" d="M19.3928 51.6631C20.6216 51.6253 25.3678 51.8427 25.3857 52.2019C25.4061 52.6178 24.2798 52.8541 24.2798 52.8541" stroke="#39276F" stroke-linecap="round" stroke-linejoin="round"/>
<path id="Vector_63" d="M19.4022 51.6726C20.9459 51.784 22.4632 52.1318 23.9016 52.7029C23.9016 52.7029 27.798 54.1954 29.5632 54.584C30.1502 54.7128 28.4687 55.4063 25.5653 54.6218" stroke="#39276F" stroke-linecap="round" stroke-linejoin="round"/>
<path id="Vector_64" d="M13.8725 49.5458C13.5092 49.7629 13.1888 50.0448 12.9272 50.3776" stroke="#39276F" stroke-linecap="round" stroke-linejoin="round"/>
<path id="Vector_65" d="M24.1379 49.404L24.4877 51.9373" stroke="#39276F" stroke-linecap="round" stroke-linejoin="round"/>
<path id="Vector_66" d="M86.5518 67.817C85.9185 69.4428 85.1623 71.8154 85.4075 73.3845C82.5066 74.1501 79.4559 74.1402 76.56 73.3561C74.0551 67.8075 74.5844 63.819 76.1913 61.1176" stroke="#39276F" stroke-linecap="round" stroke-linejoin="round"/>
<path id="Vector_67" d="M81.4052 49.5025C84.1966 47.1553 88.402 48.502 86.9771 53.3104C86.9771 53.3104 95.4347 54.5392 91.1173 62.9897" stroke="#39276F" stroke-linecap="round" stroke-linejoin="round"/>
<path id="Vector_68" d="M85.4081 73.3825C85.9872 73.6661 86.5066 74.0576 86.9394 74.5357" stroke="#39276F" stroke-linecap="round" stroke-linejoin="round"/>
<path id="Vector_69" d="M85.0206 59.2062L83.6405 62.3539C83.5544 62.5484 83.4072 62.7101 83.2216 62.8141C83.0355 62.9181 82.8211 62.9589 82.6102 62.9305L78.9899 62.4295C78.8436 62.4086 78.7043 62.3554 78.5814 62.2733C78.4585 62.1912 78.356 62.0828 78.2804 61.9559C78.2053 61.829 78.1595 61.6868 78.1466 61.5395C78.1332 61.3927 78.1536 61.2445 78.2053 61.1062L79.1033 58.7525" stroke="#39276F" stroke-linecap="round" stroke-linejoin="round"/>
<path id="Vector_70" d="M22.2097 28.5707L21.5763 25.4135C21.5531 25.2527 21.4782 25.1037 21.363 24.9891C21.2477 24.8745 21.0984 24.8003 20.9375 24.7779C20.7765 24.7555 20.6125 24.7859 20.4704 24.8647C20.3282 24.9434 20.2154 25.0662 20.149 25.2145C20.0929 25.0595 19.9881 24.9267 19.8504 24.836C19.7127 24.7452 19.5494 24.7013 19.3847 24.7109C19.2201 24.7204 19.0629 24.7829 18.9367 24.889C18.8103 24.9951 18.7217 25.1391 18.6839 25.2996C18.6344 25.1201 18.5183 24.9662 18.3592 24.8694C18.2001 24.7726 18.01 24.7402 17.8278 24.7788C17.6456 24.8174 17.485 24.9241 17.3788 25.0771C17.2727 25.2301 17.2289 25.4179 17.2566 25.6021C17.196 25.4242 17.0685 25.2768 16.9011 25.1914C16.7337 25.106 16.5396 25.0892 16.3599 25.1445C16.1803 25.1999 16.0294 25.3231 15.9391 25.4879C15.8488 25.6528 15.8264 25.8463 15.8765 26.0275C16.2488 27.1483 16.5642 28.2872 16.8217 29.4398C17.1292 30.9323 17.2899 32.5333 16.8411 33.384" stroke="#39276F" stroke-linecap="round" stroke-linejoin="round"/>
<path id="Vector_71" d="M48.7707 7.93636C48.7707 8.04661 48.738 8.15436 48.6768 8.24605C48.6155 8.33774 48.5285 8.40923 48.4267 8.45147C48.3249 8.49371 48.2129 8.50485 48.1047 8.48346C47.9966 8.46207 47.8972 8.40908 47.8192 8.33123C47.7411 8.25342 47.6879 8.15417 47.6662 8.04606C47.6445 7.938 47.6553 7.82592 47.6973 7.72398C47.7393 7.62204 47.8105 7.53483 47.902 7.47339C47.9936 7.41195 48.1012 7.37896 48.2115 7.37866C48.3595 7.37851 48.5016 7.43722 48.6065 7.54179C48.7114 7.64637 48.7704 7.78825 48.7707 7.93636Z" stroke="#39276F" stroke-linecap="round" stroke-linejoin="round"/>
<path id="Vector_72" d="M51.2 7.93636C51.2 8.04666 51.1672 8.15451 51.106 8.2462C51.0448 8.33794 50.9577 8.40938 50.8557 8.45162C50.7537 8.49381 50.6418 8.50485 50.5333 8.48336C50.4253 8.46182 50.3259 8.40874 50.2479 8.33073C50.1699 8.25272 50.1168 8.15337 50.0953 8.04516C50.0738 7.93701 50.0848 7.82487 50.127 7.72293C50.1693 7.62104 50.2407 7.53393 50.3325 7.47264C50.4241 7.4114 50.5318 7.37866 50.6423 7.37866C50.7901 7.37891 50.9318 7.43777 51.0363 7.54229C51.1408 7.64681 51.1995 7.78855 51.2 7.93636Z" stroke="#39276F" stroke-linecap="round" stroke-linejoin="round"/>
<path id="Vector_73" d="M53.6388 7.93636C53.6388 8.04666 53.6059 8.15451 53.5447 8.2462C53.4835 8.33794 53.3965 8.40938 53.2945 8.45162C53.1925 8.49381 53.0806 8.50485 52.9721 8.48336C52.8642 8.46182 52.7647 8.40874 52.6865 8.33073C52.6089 8.25272 52.5557 8.15337 52.5343 8.04516C52.5124 7.93701 52.5234 7.82487 52.5657 7.72293C52.6079 7.62104 52.6796 7.53393 52.7711 7.47264C52.8632 7.4114 52.9706 7.37866 53.0811 7.37866C53.2288 7.37891 53.3706 7.43777 53.4751 7.54229C53.5796 7.64681 53.6383 7.78855 53.6388 7.93636Z" stroke="#39276F" stroke-linecap="round" stroke-linejoin="round"/>
<path id="Vector_74" d="M83.0543 32.5786H79.3584C78.8052 32.5786 78.3564 33.0271 78.3564 33.5805V37.2764C78.3564 37.8298 78.8052 38.2784 79.3584 38.2784H83.0543C83.6076 38.2784 84.0563 37.8298 84.0563 37.2764V33.5805C84.0563 33.0271 83.6076 32.5786 83.0543 32.5786Z" stroke="#39276F" stroke-linecap="round" stroke-linejoin="round"/>
<path id="Vector_75" d="M82.2131 35.4332C82.2131 35.6313 82.1544 35.8251 82.0445 35.9898C81.934 36.1546 81.7778 36.2831 81.5947 36.3589C81.4116 36.4347 81.2101 36.4545 81.0156 36.4159C80.8211 36.3772 80.643 36.2818 80.5027 36.1417C80.3624 36.0015 80.2669 35.823 80.2286 35.6286C80.1898 35.4343 80.2097 35.2328 80.2853 35.0498C80.3614 34.8667 80.4898 34.7102 80.6544 34.6001C80.8191 34.49 81.0131 34.4312 81.2111 34.4312C81.4768 34.4314 81.7315 34.5369 81.9196 34.7248C82.1071 34.9127 82.2131 35.1675 82.2131 35.4332Z" stroke="#39276F" stroke-linecap="round" stroke-linejoin="round"/>
<path id="Vector_76" d="M73.1104 82.024C73.1104 82.1867 73.0621 82.3459 72.9716 82.4807C72.8815 82.6161 72.7532 82.7215 72.6029 82.7837C72.4527 82.8459 72.287 82.8623 72.1278 82.8305C71.9681 82.7986 71.8213 82.7205 71.7064 82.6056C71.5915 82.4907 71.5134 82.3439 71.4815 82.1842C71.4497 82.025 71.4661 81.8594 71.5283 81.7091C71.5905 81.5589 71.696 81.4305 71.8313 81.3405C71.9661 81.2499 72.1253 81.2017 72.288 81.2017C72.5059 81.2017 72.7153 81.2882 72.8696 81.4425C73.0233 81.5967 73.1104 81.8061 73.1104 82.024Z" stroke="#39276F" stroke-linecap="round" stroke-linejoin="round"/>
<path id="Vector_77" d="M26.3259 20.2057V24.2892" stroke="#39276F" stroke-linecap="round" stroke-linejoin="round"/>
<path id="Vector_78" d="M28.3633 22.2474H24.2798" stroke="#39276F" stroke-linecap="round" stroke-linejoin="round"/>
<path id="Vector_79" d="M83.2718 82.0713C82.3683 83.1404 81.5972 84.315 80.9748 85.5687C80.6002 86.1861 80.2927 86.8423 80.0579 87.5254C79.3927 89.4527 79.9519 89.4049 80.9653 87.894C83.5409 84.0533 84.7558 83.6782 85.6916 82.8464" stroke="#39276F" stroke-linecap="round" stroke-linejoin="round"/>
<path id="Vector_80" d="M80.2659 86.9583C79.6609 87.3767 79.0032 87.7135 78.3102 87.9593C78.1112 88.013 77.8003 87.8558 78.7639 87.0235C78.9719 86.8439 79.8315 86.0678 80.1251 85.7757C80.739 85.2135 81.3201 84.617 81.8663 83.9892" stroke="#39276F" stroke-linecap="round" stroke-linejoin="round"/>
<path id="Vector_81" d="M82.5818 82.9504C82.9882 82.0997 81.0221 82.6649 80.1619 82.8012C79.3868 82.9226 78.4704 82.7743 80.4171 81.8181C81.4335 81.3301 82.3604 80.6744 83.1584 79.8779" stroke="#39276F" stroke-linecap="round" stroke-linejoin="round"/>
<path id="Vector_82" d="M45.8593 10.7438L44.9519 13.1352L47.3339 12.1616C48.3176 12.8031 49.468 13.1416 50.6423 13.1352C53.79 13.1352 56.3422 10.8099 56.3422 7.93636C56.3422 5.0628 53.7994 2.73749 50.6518 2.73749C47.5041 2.73749 44.9519 5.0628 44.9519 7.93636C44.9572 8.9434 45.2742 9.92412 45.8593 10.7438Z" stroke="#39276F" stroke-linecap="round" stroke-linejoin="round"/>
<path id="Vector_83" d="M90.2194 71.7019L90.9378 71.1442" stroke="#39276F" stroke-linecap="round" stroke-linejoin="round"/>
<path id="Vector_84" d="M33.3158 40.235L34.072 40.7738" stroke="#39276F" stroke-linecap="round" stroke-linejoin="round"/>
<path id="Vector_85" d="M10.6492 49.8104L10.29 50.6706" stroke="#39276F" stroke-linecap="round" stroke-linejoin="round"/>
<path id="Vector_86" d="M17.4456 52.098C17.3409 52.098 17.2385 52.1288 17.1515 52.187C17.0645 52.2452 16.9966 52.3278 16.9566 52.4248C16.9165 52.5213 16.906 52.6278 16.9264 52.7308C16.9469 52.8333 16.9973 52.9278 17.0713 53.0014C17.1453 53.0756 17.2396 53.1258 17.3423 53.1467C17.445 53.1671 17.5514 53.1566 17.6482 53.1163C17.7449 53.076 17.8276 53.0084 17.8857 52.9213C17.9439 52.8343 17.9749 52.7318 17.9749 52.6273C17.9728 52.4875 17.9163 52.3542 17.8175 52.2552C17.7187 52.1567 17.5853 52.1 17.4456 52.098Z" stroke="#39276F"/>
<path id="Vector_87" d="M9.76066 54.9904C10.053 54.9904 10.29 54.7536 10.29 54.4611C10.29 54.1686 10.053 53.9318 9.76066 53.9318C9.46828 53.9318 9.23132 54.1686 9.23132 54.4611C9.23132 54.7536 9.46828 54.9904 9.76066 54.9904Z" stroke="#39276F"/>
<path id="Vector_88" d="M6.0175 47.9105C6.30984 47.9105 6.54684 47.6735 6.54684 47.3811C6.54684 47.0888 6.30984 46.8518 6.0175 46.8518C5.72517 46.8518 5.48816 47.0888 5.48816 47.3811C5.48816 47.6735 5.72517 47.9105 6.0175 47.9105Z" stroke="#39276F"/>
<path id="Vector_89" d="M12.398 43.4206C12.6903 43.4206 12.9273 43.1836 12.9273 42.8912C12.9273 42.5989 12.6903 42.3619 12.398 42.3619C12.1057 42.3619 11.8687 42.5989 11.8687 42.8912C11.8687 43.1836 12.1057 43.4206 12.398 43.4206Z" stroke="#39276F"/>
<path id="Vector_90" d="M14.8367 36.2083C14.732 36.2083 14.6297 36.2394 14.5427 36.2975C14.4556 36.3557 14.3877 36.4384 14.3477 36.5351C14.3076 36.6318 14.2971 36.7383 14.3175 36.8409C14.338 36.9436 14.3884 37.0379 14.4624 37.1119C14.5364 37.186 14.6308 37.2364 14.7334 37.2568C14.8361 37.2772 14.9425 37.2667 15.0393 37.2267C15.136 37.1866 15.2187 37.1188 15.2769 37.0317C15.335 36.9447 15.3661 36.8423 15.3661 36.7377C15.3639 36.598 15.3074 36.4646 15.2086 36.3658C15.1098 36.267 14.9764 36.2105 14.8367 36.2083Z" stroke="#39276F"/>
<path id="Vector_91" d="M20.1396 41.5206C20.0349 41.5206 19.9325 41.5517 19.8455 41.6098C19.7584 41.668 19.6906 41.7507 19.6505 41.8474C19.6104 41.9441 19.6 42.0506 19.6204 42.1533C19.6408 42.2559 19.6912 42.3503 19.7653 42.4243C19.8393 42.4983 19.9336 42.5487 20.0363 42.5691C20.139 42.5896 20.2454 42.5791 20.3422 42.539C20.4389 42.499 20.5215 42.4311 20.5797 42.344C20.6379 42.257 20.6689 42.1546 20.6689 42.05C20.6667 41.9103 20.6103 41.7769 20.5115 41.6781C20.4127 41.5793 20.2793 41.5228 20.1396 41.5206Z" stroke="#39276F"/>
<path id="Vector_92" d="M15.8387 46.3224C15.734 46.3224 15.6316 46.3535 15.5446 46.4117C15.4575 46.4698 15.3897 46.5525 15.3496 46.6492C15.3095 46.7459 15.2991 46.8524 15.3195 46.9551C15.3399 47.0578 15.3903 47.1521 15.4644 47.2261C15.5384 47.3001 15.6327 47.3505 15.7354 47.371C15.8381 47.3914 15.9445 47.3809 16.0413 47.3408C16.138 47.3008 16.2207 47.2329 16.2788 47.1459C16.337 47.0589 16.368 46.9565 16.368 46.8518C16.3681 46.7822 16.3545 46.7133 16.328 46.6491C16.3015 46.5848 16.2624 46.5264 16.2132 46.4772C16.1641 46.428 16.1057 46.389 16.0414 46.3625C15.9771 46.3359 15.9082 46.3223 15.8387 46.3224Z" stroke="#39276F"/>
<path id="Vector_93" d="M27.8807 43.4206C28.173 43.4206 28.41 43.1836 28.41 42.8912C28.41 42.5989 28.173 42.3619 27.8807 42.3619C27.5883 42.3619 27.3513 42.5989 27.3513 42.8912C27.3513 43.1836 27.5883 43.4206 27.8807 43.4206Z" stroke="#39276F"/>
<path id="Vector_94" d="M32.9755 40.8958C32.8708 40.8958 32.7684 40.9268 32.6814 40.985C32.5944 41.0431 32.5265 41.1258 32.4865 41.2225C32.4464 41.3192 32.4359 41.4257 32.4563 41.5284C32.4768 41.6311 32.5272 41.7253 32.6012 41.7994C32.6752 41.8734 32.7695 41.9238 32.8722 41.9442C32.9749 41.9647 33.0814 41.9542 33.1781 41.9141C33.2748 41.8741 33.3575 41.8062 33.4156 41.7192C33.4738 41.6321 33.5048 41.5298 33.5048 41.4251C33.5027 41.2854 33.4462 41.152 33.3474 41.0532C33.2486 40.9544 33.1152 40.8979 32.9755 40.8958Z" stroke="#39276F"/>
<path id="Vector_95" d="M39.3938 43.1086C39.6862 43.1086 39.9232 42.8716 39.9232 42.5793C39.9232 42.2869 39.6862 42.0499 39.3938 42.0499C39.1015 42.0499 38.8645 42.2869 38.8645 42.5793C38.8645 42.8716 39.1015 43.1086 39.3938 43.1086Z" stroke="#39276F"/>
<path id="Vector_96" d="M42.2012 37.4088C42.4935 37.4088 42.7306 37.1718 42.7306 36.8794C42.7306 36.5871 42.4935 36.3501 42.2012 36.3501C41.9088 36.3501 41.6719 36.5871 41.6719 36.8794C41.6719 37.1718 41.9088 37.4088 42.2012 37.4088Z" stroke="#39276F"/>
<path id="Vector_97" d="M22.7295 47.3717C22.6248 47.3717 22.5225 47.4027 22.4354 47.4609C22.3484 47.5191 22.2806 47.6017 22.2405 47.6985C22.2004 47.7952 22.19 47.9016 22.2104 48.0043C22.2308 48.107 22.2812 48.2013 22.3552 48.2753C22.4293 48.3493 22.5236 48.3998 22.6263 48.4202C22.7289 48.4406 22.8354 48.4301 22.9321 48.3901C23.0288 48.35 23.1115 48.2822 23.1696 48.1951C23.2278 48.1081 23.2589 48.0057 23.2589 47.901C23.2567 47.7613 23.2002 47.628 23.1014 47.5292C23.0026 47.4304 22.8692 47.3739 22.7295 47.3717Z" stroke="#39276F"/>
<path id="Vector_98" d="M23.7787 37.0779C24.0711 37.0779 24.3081 36.8409 24.3081 36.5486C24.3081 36.2562 24.0711 36.0192 23.7787 36.0192C23.4863 36.0192 23.2494 36.2562 23.2494 36.5486C23.2494 36.8409 23.4863 37.0779 23.7787 37.0779Z" stroke="#39276F"/>
</g>
</g>
</g>
</svg>
