<svg xmlns="http://www.w3.org/2000/svg" width="50" height="50" viewBox="0 0 50 50" fill="none">
  <path fill-rule="evenodd" clip-rule="evenodd" d="M24.9858 7.93946H27.4031C27.6948 7.93946 28.0075 7.93946 28.1325 8.25204C28.2575 8.56462 28.1325 8.46044 27.9867 8.54379C27.7842 8.74331 27.5431 8.89933 27.2781 9.00223C26.669 9.27252 26.0063 9.40079 25.3402 9.37731C24.6867 9.33631 24.0613 9.09635 23.5479 8.68965C23.3958 8.53823 23.1898 8.45323 22.975 8.45323C22.7602 8.45323 22.5542 8.53823 22.4019 8.68965C22.254 8.84792 22.1717 9.05648 22.1717 9.27312C22.1717 9.48979 22.254 9.69835 22.4019 9.8566C23.0967 10.592 23.9973 11.1004 24.9858 11.3153V11.5654C25.0125 11.7044 25.0617 11.8382 25.1317 11.9613C25.9652 13.5867 26.3196 13.5659 26.6321 13.5033C27.3823 13.5033 27.7573 11.4195 27.7573 11.2945H28.0283C28.8446 11.0654 29.5715 10.5929 30.1121 9.93996C30.3658 9.62629 30.5383 9.25504 30.6148 8.85894C30.691 8.46281 30.6688 8.05402 30.5498 7.66856C30.4533 7.25367 30.2646 6.86583 29.9977 6.53394C29.7306 6.20202 29.3923 5.93454 29.0077 5.75142C27.7725 5.41702 26.494 5.2695 25.215 5.31381C24.9792 5.33092 24.7425 5.33092 24.5067 5.31381C24.5388 5.18958 24.5877 5.07037 24.6525 4.95956C24.8806 4.69446 25.1617 4.47973 25.4773 4.32906C25.7929 4.17837 26.1367 4.09504 26.4863 4.08435C27.3125 4.072 28.1217 4.31987 28.7994 4.79285C28.954 4.90892 29.1485 4.95875 29.34 4.9314C29.5315 4.90404 29.7044 4.80173 29.8204 4.64698C29.8783 4.57331 29.9213 4.48887 29.9465 4.39854C29.9715 4.30821 29.9785 4.21379 29.9669 4.12075C29.9552 4.02771 29.9252 3.9379 29.8785 3.85652C29.8321 3.77517 29.7698 3.70385 29.6954 3.64673C28.9721 2.90492 28.0667 2.366 27.0698 2.08385V1.85462C27.0992 1.75252 27.0992 1.64415 27.0698 1.54205C27.0698 1.54205 26.4029 0 25.8819 0C25.361 0 24.5275 1.29199 24.465 1.41702C24.4358 1.53331 24.4358 1.65498 24.465 1.77127C24.4358 1.88756 24.4358 2.00924 24.465 2.12552V2.2714C23.8935 2.45227 23.3627 2.74244 22.9021 3.12577C22.564 3.3935 22.2748 3.71783 22.0477 4.08435C21.7994 4.44721 21.6619 4.87431 21.6517 5.31381C21.6475 5.62865 21.7148 5.94031 21.8483 6.22544C21.9819 6.51056 22.1781 6.76173 22.4227 6.96006C23.1544 7.54533 24.0504 7.88771 24.9858 7.93946Z" fill="#39276F"/>
  <path fill-rule="evenodd" clip-rule="evenodd" d="M46.6787 8.7107C46.7821 8.65031 46.8798 8.58056 46.9704 8.50233C47.0262 8.41395 47.0619 8.31433 47.0746 8.21058C47.0746 8.21058 47.2204 6.56435 46.7829 6.2726C46.3452 5.98087 44.9908 6.7102 44.845 6.79356C44.7481 6.85577 44.6691 6.94191 44.6156 7.04362C44.5473 7.14906 44.511 7.27216 44.5114 7.39787C44.5012 7.45298 44.5012 7.5095 44.5114 7.56458C43.9196 7.44937 43.3112 7.44937 42.7194 7.56458C42.2914 7.63187 41.8766 7.76545 41.49 7.96052C41.0975 8.1627 40.7719 8.47385 40.5521 8.85658C40.3954 9.1212 40.2991 9.41729 40.2702 9.72352C40.2414 10.0298 40.2808 10.3386 40.3854 10.6279C40.7029 11.4599 41.2525 12.1832 41.9692 12.7117C42.5735 13.1493 43.4071 13.5244 44.0531 13.962C44.3031 14.1287 44.5948 14.2537 44.5323 14.608C44.4698 14.9622 44.3864 14.7747 44.2614 14.7955C43.986 14.8479 43.7033 14.8479 43.4279 14.7955C42.7675 14.7439 42.1302 14.5291 41.5733 14.1704C41.0221 13.8198 40.5981 13.301 40.3646 12.6908C40.2735 12.514 40.1223 12.3755 39.9379 12.3004C39.7537 12.2254 39.5487 12.2187 39.36 12.2816C39.1712 12.3445 39.0112 12.4729 38.9087 12.6435C38.8064 12.8141 38.7685 13.0157 38.8016 13.2118C39.0656 14.1303 39.5862 14.9544 40.3021 15.5874C40.2483 15.6489 40.206 15.7195 40.1771 15.7958C40.1458 15.933 40.1458 16.0754 40.1771 16.2126C40.1771 18.0255 40.4062 18.1714 40.6981 18.2964C41.4067 18.5881 42.7819 16.9627 42.7819 16.9419C42.7819 16.9211 42.9277 17.0461 43.0319 17.0669C43.8652 17.3362 44.7619 17.3362 45.595 17.0669C45.9712 16.9197 46.306 16.6836 46.5708 16.3787C46.8358 16.0739 47.0229 15.7094 47.1162 15.3165C47.2417 14.9081 47.2729 14.4767 47.2079 14.0545C47.1429 13.6323 46.9835 13.2302 46.7412 12.8784C45.8246 11.8937 44.755 11.0634 43.5737 10.4195C43.3714 10.2994 43.1766 10.1672 42.9902 10.0235C43.0712 9.92845 43.1704 9.85052 43.2821 9.79431C43.6181 9.66125 43.9798 9.60527 44.3406 9.63052C44.7012 9.65577 45.0514 9.76158 45.3658 9.94018C46.0991 10.334 46.6841 10.9557 47.0329 11.7115C47.1108 11.8832 47.2506 12.0194 47.4244 12.0928C47.5981 12.1662 47.7933 12.1714 47.9706 12.1074C48.061 12.0751 48.1439 12.0249 48.2144 11.9596C48.2846 11.8944 48.341 11.8155 48.38 11.7278C48.4189 11.6401 48.4398 11.5455 48.441 11.4495C48.4423 11.3536 48.4241 11.2584 48.3875 11.1696C48.0364 10.2179 47.4483 9.37158 46.6787 8.7107Z" fill="#39276F"/>
  <path fill-rule="evenodd" clip-rule="evenodd" d="M19.4836 33.1951C19.4836 32.6534 19.4837 31.4034 17.6087 31.5076C15.7337 31.6118 16.0253 34.5493 17.6087 34.5909C18.8378 34.6326 19.5045 34.2368 19.4836 33.1951Z" fill="#39276F"/>
  <path fill-rule="evenodd" clip-rule="evenodd" d="M24.5892 33.1951C24.5892 32.6534 24.5892 31.4034 22.6933 31.5076C20.7974 31.6118 21.11 34.5493 22.6933 34.5909C23.9433 34.6326 24.61 34.2368 24.5892 33.1951Z" fill="#39276F"/>
  <path fill-rule="evenodd" clip-rule="evenodd" d="M26.7779 28.8198C25.535 27.9879 24.1008 27.4858 22.6102 27.3612C20.4724 27.2298 18.333 27.5933 16.3587 28.4239C16.1809 28.4898 16.0357 28.6225 15.954 28.7935C15.8723 28.9648 15.8605 29.161 15.9211 29.3408C15.9514 29.4306 15.9995 29.5133 16.0623 29.5841C16.1252 29.655 16.2016 29.7125 16.2871 29.7533C16.3726 29.7941 16.4654 29.8173 16.56 29.8216C16.6546 29.826 16.7492 29.8112 16.838 29.7783C18.3113 29.3077 19.8566 29.1029 21.4017 29.1741C22.8539 29.2733 24.2419 29.811 25.3819 30.7162C25.8469 31.0425 26.1869 31.5175 26.346 32.0629C26.5052 32.6083 26.4737 33.1916 26.2571 33.7168C26.0419 34.3079 25.7066 34.8481 25.2729 35.3035C24.8389 35.7589 24.3156 36.1198 23.7356 36.3633C22.4119 36.8925 20.9927 37.1408 19.5678 37.0927C18.1788 37.1183 16.814 36.7262 15.6502 35.9675C15.2917 35.6785 15.0066 35.3089 14.8182 34.8889C14.6299 34.4687 14.5437 34.01 14.5666 33.5502C14.5594 32.5418 14.9313 31.5675 15.6085 30.8204C15.6867 30.7445 15.7488 30.6539 15.7912 30.5537C15.8337 30.4535 15.8555 30.3456 15.8555 30.2368C15.8555 30.1281 15.8337 30.0202 15.7912 29.92C15.7488 29.8198 15.6867 29.7291 15.6085 29.6533C15.4527 29.5006 15.2432 29.4152 15.025 29.4152C14.8069 29.4152 14.5974 29.5006 14.4416 29.6533C13.353 30.6516 12.6954 32.0341 12.6078 33.5085C12.521 34.2718 12.6112 35.0448 12.8714 35.7675C13.1316 36.4902 13.5548 37.1433 14.1082 37.6762C15.5778 38.8818 17.3812 39.6089 19.2761 39.76C21.1048 39.9023 22.9431 39.661 24.6733 39.0514C25.6383 38.6589 26.5087 38.0656 27.2273 37.3112C27.9458 36.5568 28.4958 35.6583 28.841 34.6754C29.2392 33.6125 29.2508 32.4433 28.8735 31.3727C28.4964 30.302 27.7546 29.3983 26.7779 28.8198Z" fill="#39276F"/>
  <path fill-rule="evenodd" clip-rule="evenodd" d="M15.0655 24.6307C15.2634 24.6572 15.4643 24.6118 15.6315 24.5028C15.7987 24.3936 15.9213 24.2282 15.9768 24.0363C16.0323 23.8447 16.0171 23.6393 15.934 23.4578C15.8509 23.2761 15.7053 23.1305 15.5239 23.0474C14.8501 22.6728 14.0856 22.4924 13.3155 22.5266C12.988 22.5366 12.6644 22.5999 12.3572 22.7141C12.0459 22.8066 11.7605 22.9707 11.5239 23.1932C10.9387 23.7105 10.5246 24.3934 10.3364 25.1516C10.2868 25.2307 10.2533 25.3191 10.238 25.4111C10.2226 25.5034 10.2257 25.5978 10.247 25.6888C10.2683 25.7799 10.3074 25.8657 10.3621 25.9416C10.4168 26.0174 10.4859 26.0816 10.5655 26.1307C10.6445 26.1868 10.7345 26.2253 10.8295 26.2443C10.9245 26.263 11.0224 26.2616 11.1168 26.2401C11.2113 26.2184 11.3 26.177 11.3774 26.1186C11.4547 26.0603 11.5188 25.9863 11.5655 25.9016C11.5655 25.9016 14.8989 24.6307 15.0655 24.6307Z" fill="#39276F"/>
  <path fill-rule="evenodd" clip-rule="evenodd" d="M28.2148 23.2763C28.0469 23.073 27.8419 22.9034 27.6106 22.7763C27.3881 22.6436 27.1502 22.5386 26.9023 22.4638C26.3363 22.3284 25.7552 22.2655 25.1731 22.2763C25.0706 22.2442 24.9627 22.2328 24.8556 22.2428C24.7485 22.2526 24.6446 22.2836 24.5496 22.334C24.4546 22.3844 24.3706 22.4532 24.3025 22.5363C24.2342 22.6194 24.1831 22.7151 24.1523 22.818C24.1175 22.9219 24.1046 23.0319 24.1144 23.1411C24.1242 23.2501 24.1567 23.3559 24.2094 23.4519C24.2623 23.548 24.3346 23.6317 24.4215 23.6984C24.5085 23.7651 24.6083 23.8128 24.7148 23.8388L27.8398 25.7971C27.8917 25.8771 27.9598 25.9455 28.0396 25.9976C28.1194 26.0498 28.2092 26.0848 28.3031 26.1005C28.3971 26.1163 28.4935 26.1121 28.5858 26.0886C28.6781 26.0651 28.7648 26.0226 28.8398 25.9638C28.919 25.9115 28.9869 25.8438 29.0392 25.7648C29.0917 25.6857 29.1277 25.5969 29.1452 25.5036C29.1627 25.4103 29.1613 25.3144 29.141 25.2217C29.1208 25.129 29.0821 25.0413 29.0273 24.9638C28.8881 24.3469 28.6102 23.7698 28.2148 23.2763Z" fill="#39276F"/>
  <path fill-rule="evenodd" clip-rule="evenodd" d="M34.9258 21.026C35.0925 20.0882 35.2175 19.1713 35.426 18.2544C35.5719 17.6709 35.7385 17.0875 35.926 16.5248C36.9887 13.8367 37.1973 14.1492 36.8637 13.3365C36.7704 13.1237 36.6269 12.9368 36.4454 12.7916C36.2639 12.6464 36.05 12.5474 35.8219 12.503C35.1808 12.415 34.5287 12.4544 33.9029 12.6189C33.2773 12.7834 32.69 13.0697 32.1752 13.4616C30.8985 14.4134 29.7862 15.5678 28.8827 16.8791C27.2117 15.6374 25.3354 14.6993 23.3396 14.1076C22.4558 13.8537 21.5479 13.693 20.6306 13.6283C19.7087 13.5447 18.781 13.5447 17.8591 13.6283C15.7228 14.002 13.7115 14.8966 12.0035 16.2331V16.3581C11.1498 15.2192 10.1233 14.2207 8.96105 13.3991C7.90255 12.6327 6.58612 12.311 5.29347 12.503C5.0611 12.5441 4.8432 12.6442 4.66072 12.7939C4.47824 12.9435 4.33732 13.1375 4.25155 13.3574C3.7306 14.566 4.66832 14.0867 5.66857 18.2753C5.87695 19.1922 6.02282 20.109 6.18953 21.0468C3.92351 23.163 2.39078 25.9464 1.81374 28.9926C1.23669 32.0391 1.64534 35.1901 2.98041 37.9885C3.2497 38.5122 3.54889 39.0201 3.87645 39.5097C4.24018 40.0076 4.64443 40.4745 5.0851 40.906L6.39791 41.8437L10.0863 47.616C10.3572 48.0118 10.649 48.7203 10.9824 49.1995C11.116 49.4141 11.2851 49.6043 11.4825 49.7622C11.7268 49.9245 12.0232 49.9891 12.3128 49.9426C12.6024 49.8964 12.864 49.7426 13.0454 49.5122C13.1913 49.2412 13.6289 48.5745 13.6497 48.5328L15.6085 44.636C15.6503 44.5001 15.6503 44.3549 15.6085 44.2191C16.2337 44.3443 16.8172 44.511 17.4632 44.5943C18.4029 44.7126 19.3513 44.7474 20.2972 44.6985C21.2485 44.6687 22.1962 44.5643 23.1312 44.386C23.9856 44.2401 24.7775 44.0316 25.5902 43.8233C25.4912 43.931 25.4252 44.0645 25.3994 44.2085C25.3735 44.3524 25.3892 44.5005 25.4444 44.636L27.4031 48.5328L28.0283 49.5122L28.195 49.6997C28.2827 49.7943 28.3892 49.8699 28.5075 49.9216C28.6258 49.9733 28.7535 49.9999 28.8827 49.9999C29.0117 49.9999 29.1396 49.9733 29.2579 49.9216C29.3762 49.8699 29.4825 49.7943 29.5704 49.6997C29.7729 49.5474 29.9429 49.3562 30.0704 49.137C30.4039 48.6578 30.7164 47.9493 30.9664 47.5532L34.655 41.7812L35.9677 40.8432C36.4142 40.4174 36.819 39.9499 37.1764 39.4472C37.5039 38.9576 37.8031 38.4497 38.0725 37.926C39.41 35.1297 39.8221 31.9799 39.2487 28.9337C38.6754 25.8874 37.1467 23.103 34.8842 20.9843L34.9258 21.026ZM35.6344 36.7382C35.441 37.1472 35.2108 37.5378 34.9467 37.9051C34.7033 38.2658 34.424 38.601 34.1131 38.9053C33.7798 39.2389 33.2171 39.5305 32.8627 39.8847C32.6789 40.0735 32.5179 40.2832 32.3835 40.5099L29.1535 46.3864L28.841 47.0741L27.0698 43.9066C26.981 43.7474 26.8417 43.6228 26.6737 43.5524C27.6771 43.2553 28.6648 42.9076 29.6329 42.5103C29.7356 42.4797 29.831 42.4287 29.9133 42.3601C29.9956 42.2916 30.0633 42.207 30.1119 42.1114C30.1606 42.016 30.1896 41.9116 30.1967 41.8047C30.2039 41.6978 30.1894 41.5905 30.1537 41.4893C30.0871 41.2851 29.9421 41.1158 29.7508 41.0183C29.5594 40.9205 29.3373 40.9026 29.1327 40.9685C27.1077 41.4016 25.0527 41.6803 22.9854 41.802C22.131 41.802 21.2558 41.802 20.3805 41.927H17.6507C15.6107 41.9858 13.5718 41.7755 11.5867 41.3018C11.4067 41.2391 11.2096 41.2474 11.0354 41.3247C10.8613 41.4022 10.7231 41.543 10.649 41.7187C10.5809 41.8983 10.5865 42.0976 10.6645 42.273C10.7426 42.4487 10.8867 42.5864 11.0657 42.6564C12.0652 43.1449 13.1038 43.5493 14.1707 43.8649L12.2744 47.0324L11.9618 46.3447L8.73182 40.5099C8.60482 40.2839 8.45089 40.0739 8.27339 39.8847C7.89828 39.5305 7.35649 39.2389 7.00222 38.9053C6.6913 38.601 6.41203 38.2658 6.1687 37.9051C5.91199 37.533 5.6822 37.143 5.48101 36.7382C4.18097 34.2405 3.74845 31.3816 4.25155 28.6112C4.73897 25.736 6.16843 23.1043 8.31505 21.1301C8.4487 20.9939 8.52353 20.8105 8.52353 20.6196C8.52353 20.4287 8.4487 20.2454 8.31505 20.109C8.22818 20.012 8.11478 19.9425 7.98887 19.9092C7.86297 19.8759 7.73005 19.8802 7.60655 19.9215V17.9835C7.60655 17.3375 7.60655 16.6499 7.48151 15.8997V15.5871C8.00193 15.9096 8.49657 16.2719 8.96105 16.6707C10.1372 17.5511 11.2071 18.5651 12.1493 19.6923C12.2028 19.7867 12.2751 19.8692 12.3618 19.9345C12.4484 19.9999 12.5476 20.0467 12.6531 20.0721C12.7587 20.0975 12.8683 20.101 12.9752 20.0822C13.0821 20.0635 13.184 20.023 13.2746 19.9632C13.374 19.9037 13.4603 19.8246 13.5282 19.7307C13.596 19.6368 13.6441 19.5301 13.6694 19.417C13.6948 19.3039 13.6969 19.1869 13.6756 19.073C13.6542 18.9592 13.61 18.8508 13.5455 18.7545C13.3371 18.4003 13.0454 17.921 12.6911 17.4C14.379 16.633 16.2135 16.2419 18.0675 16.2539C18.8379 16.2123 19.6101 16.2123 20.3805 16.2539C21.1879 16.3377 21.9887 16.477 22.7769 16.6707C24.5779 16.9621 26.3262 17.5168 27.9658 18.3169C27.8408 18.5253 27.6739 18.7754 27.5906 18.9421C27.4794 19.1257 27.4433 19.3453 27.4898 19.5549C27.5364 19.7646 27.6621 19.9481 27.8406 20.0674C27.9312 20.1271 28.0333 20.1677 28.1402 20.1864C28.2471 20.2051 28.3567 20.2017 28.4623 20.1763C28.5677 20.1509 28.6669 20.1041 28.7535 20.0387C28.8402 19.9734 28.9125 19.8909 28.966 19.7965C29.9102 18.6331 30.9873 17.5841 32.1752 16.6707C32.6367 16.3152 33.1244 15.9948 33.6337 15.7121V16.0247C33.6337 16.7124 33.5296 17.3792 33.5087 18.1086C33.4879 18.8379 33.5087 19.4005 33.5087 20.0465C33.3856 20.0023 33.2519 19.9966 33.1254 20.0301C32.9987 20.0636 32.8854 20.1347 32.8002 20.2341C32.7317 20.3002 32.6769 20.3795 32.6396 20.4672C32.6023 20.5549 32.5831 20.6493 32.5831 20.7446C32.5831 20.8399 32.6023 20.9343 32.6396 21.022C32.6769 21.1097 32.7317 21.1891 32.8002 21.2551C34.9314 23.2324 36.34 25.866 36.8012 28.7362C37.3094 31.4591 36.8989 34.2737 35.6344 36.7382Z" fill="#39276F"/>
</svg>