<svg width="101" height="100" viewBox="0 0 101 100" fill="none" xmlns="http://www.w3.org/2000/svg">
<g id="Success--Streamline-Bangalore">
<g id="Interface-Success-01">
<g id="color 2">
<path id="Vector" d="M29.0145 68.3473C32.706 68.1483 39.0954 68.0105 40.3576 67.8936C41.0068 64.9175 42.0525 60.2047 42.467 57.9933C42.46 57.9888 42.453 57.9844 42.4466 57.9794C39.8849 56.3252 37.588 51.7975 41.265 45.417C46.1649 45.4583 50.6598 46.5578 54.801 49.1035C54.697 50.0393 54.6119 50.8333 54.5647 51.3532C66.333 56.6764 68.6016 58.2441 69.0364 60.8813C69.5414 63.9613 66.8574 68.3587 59.0073 81.3176C56.0223 82.0141 51.4757 80.3077 50.4245 77.5933C51.6254 75.167 55.7925 66.7707 57.1074 64.426C53.5637 63.1325 49.4459 61.5281 46.049 59.8933C47.438 61.2296 50.1986 64.0414 51.1996 65.2295C49.7439 69.6721 48.0424 74.8312 46.1992 75.6839C44.0465 76.6789 43.0545 76.9695 29.024 76.9695C27.4136 75.5252 27.7743 70.4393 29.0145 68.3473Z" fill="#9CE799"/>
<path id="Vector_2" d="M73.3468 14.0899C73.7343 14.7989 74.0841 15.4889 74.4054 16.1411C76.9482 21.3873 77.4491 24.8563 77.4402 27.4463C77.4307 28.7224 77.3079 29.7811 77.2412 30.7452V30.7547C77.0616 30.8587 76.8929 30.9626 76.6835 31.0855C76.3054 30.4885 75.9935 30.6035 75.0671 31.0572C73.791 31.681 73.6681 31.7378 73.5746 32.6357C73.5652 32.7492 73.5557 32.8531 73.5368 32.9571C72.6483 32.4561 71.6369 31.9552 70.4836 31.2159C68.3001 29.8075 65.6723 27.501 62.6759 22.5007C62.2978 21.8674 61.9102 21.2072 61.5227 20.4873L73.3468 14.0899ZM69.5279 24.4404L70.1329 27.314L71.4448 24.6862L74.3562 25.017L72.2667 22.9469L73.4766 20.2719L70.8677 21.6151L68.7031 19.649L69.1757 22.5509L66.6235 23.9972L69.5279 24.4404Z" fill="#9CE799"/>
</g>
<g id="color 1">
<path id="Vector_3" d="M24.4774 10.1955C24.4869 10.6681 24.4869 11.1218 24.4774 11.5189C23.8441 11.3298 23.5511 11.1029 23.5038 10.8761C23.4172 10.4681 24.2107 10.1423 24.4774 10.1955Z" fill="#39276F"/>
<path id="Vector_4" d="M27.7196 69.1224C28.0191 69.1149 28.3181 69.1304 28.6151 69.1697C27.7833 71.2303 27.736 74.4252 28.4161 76.0889C27.3216 77.554 24.0879 79.7659 21.5725 80.437C21.7551 76.4859 25.9804 70.7293 27.7196 69.1224Z" fill="#39276F"/>
<path id="Vector_5" d="M30.0354 10.4034C30.1971 10.3989 30.8314 10.5248 30.8314 10.9611C30.8314 11.1974 30.5384 11.4621 29.82 11.6417C29.7424 11.2165 29.819 10.7775 30.0354 10.4034Z" fill="#39276F"/>
<path id="Vector_6" d="M40.8207 36.7664C40.6883 38.7231 40.4804 41.0579 40.4804 42.6742C39.762 40.1504 38.8829 37.0973 38.3725 35.4053L40.8207 36.7664Z" fill="#39276F"/>
<path id="Vector_7" d="M44.5734 17.8615C44.5734 17.2187 45.4052 17.0013 45.8494 17.7008C45.8873 17.0958 46.8703 16.9545 47.3524 17.7764C47.4564 17.1242 48.5623 17.266 48.9499 18.0033C49.0633 17.4267 50.0086 17.748 50.1692 18.6082C50.3394 19.5157 50.4906 20.338 50.5946 21.0753C49.3732 20.7162 48.1056 20.5379 46.8325 20.546C47.0972 21.5479 46.9818 22.8997 46.5489 21.9828C46.1236 21.0659 45.0365 21.7559 45.8027 22.9564C45.9261 23.2049 45.9768 23.4834 45.9485 23.7595C45.9196 24.0355 45.8136 24.2979 45.642 24.516C45.5286 22.5405 43.9973 19.9788 43.5246 18.9391C42.8814 17.5306 43.855 17.1525 44.5734 17.8615Z" fill="#39276F"/>
<path id="Vector_8" d="M52.0975 62.5151C51.814 63.3564 51.5115 64.2732 51.202 65.2279C50.0866 63.9046 46.8633 60.7758 45.7007 59.7266C47.7305 60.7191 49.9528 61.6738 52.0975 62.5151Z" fill="#39276F"/>
<path id="Vector_9" d="M48.5599 26.312C48.5673 26.743 48.6086 27.1729 48.6827 27.5976C48.0285 27.1365 47.5201 26.4978 47.2176 25.7568C47.6499 25.9765 48.0987 26.1621 48.5599 26.312Z" fill="#39276F"/>
<path id="Vector_10" d="M50.8687 78.4331C50.4184 78.7824 50.0065 79.1784 49.6399 79.6147C51.8328 84.8135 56.5307 89.19 58.3834 90.3527C58.1984 87.3 57.5679 84.2907 56.5118 81.4201C54.385 81.1365 51.9925 80.0589 50.8687 78.4331Z" fill="#39276F"/>
<path id="Vector_11" d="M55.8691 40.0002C56.8427 41.1724 59.5461 44.0743 62.0793 45.7474C59.8335 45.0219 57.6388 44.1468 55.5099 43.128C55.6422 42.0126 55.7651 40.935 55.8691 40.0002Z" fill="#39276F"/>
<path id="Vector_12" d="M72.2503 33.9874C72.4583 33.8645 72.8175 34.0158 73.0822 34.4033C72.8644 34.7942 72.5126 35.0931 72.0916 35.2446C71.9384 34.5073 72.0419 34.1103 72.2503 33.9874Z" fill="#39276F"/>
<path id="Vector_13" d="M74.5473 40.0276C74.9821 40.5191 75.3134 40.6619 75.5303 40.5947C75.8333 40.5012 75.8706 39.9331 75.691 39.3376C75.3035 39.5644 74.9159 39.7913 74.5473 40.0276Z" fill="#39276F"/>
<path id="Vector_14" d="M81.7028 75.172C80.1314 75.172 78.8576 73.8979 78.8576 72.3268C78.8576 70.7552 80.1314 69.4816 81.7028 69.4816C83.2741 69.4816 84.548 70.7552 84.548 72.3268C84.548 73.8979 83.2741 75.172 81.7028 75.172Z" fill="#39276F"/>
<path id="Vector_15" d="M77.2412 38.4395C77.2223 37.5793 76.8158 36.6624 76.1467 35.4147C76.2858 34.9534 76.3211 34.4671 76.25 33.9905C76.1788 33.514 76.0031 33.0591 75.7353 32.6586C75.9049 32.9208 76.1024 33.1638 76.3243 33.3834C76.0407 33.96 76.5039 34.8391 77.3263 34.4232L77.2128 34.6028C76.2109 35.1699 76.8725 36.4555 77.9407 35.946L77.7417 36.1256C76.7586 36.6455 77.373 37.9027 78.4317 37.4395C78.8949 37.2316 79.273 37.0803 79.5849 36.948C80.3978 37.6002 81.4093 37.7515 83.0918 37.5152L75.7945 41.4663C76.8347 40.2828 77.2696 39.3942 77.2412 38.4395Z" fill="#39276F"/>
<path id="Vector_16" d="M83.3361 37.3861L85.1132 39.7114L76.5208 44.3715L75.5378 41.6114L83.3361 37.3861Z" fill="#39276F"/>
</g>
<g id="outlines">
<path id="Vector_17" d="M74.5472 40.0276C75.4427 39.4416 76.4755 38.9217 77.2506 38.4207" stroke="#39276F" stroke-linecap="round" stroke-linejoin="round"/>
<path id="Vector_18" d="M50.6323 21.3778L52.4094 2.73749L66.1533 37.2013" stroke="#39276F" stroke-linecap="round" stroke-linejoin="round"/>
<path id="Vector_19" d="M49.7911 30.2821L50.1692 26.227" stroke="#39276F" stroke-linecap="round" stroke-linejoin="round"/>
<path id="Vector_20" d="M29.9125 68.3L16.991 35.8969L39.6864 39.9047" stroke="#39276F" stroke-linecap="round" stroke-linejoin="round"/>
<path id="Vector_21" d="M43.4296 76.5426L41.454 97.2625L33.3532 76.9491" stroke="#39276F" stroke-linecap="round" stroke-linejoin="round"/>
<path id="Vector_22" d="M69.0269 44.4041L76.882 64.1031L69.0175 62.7136" stroke="#39276F" stroke-linecap="round" stroke-linejoin="round"/>
<path id="Vector_23" d="M74.3959 16.16L79.3112 13.5039C83.2415 20.7634 79.6515 26.2648 77.4302 27.4652" stroke="#39276F" stroke-linecap="round" stroke-linejoin="round"/>
<path id="Vector_24" d="M71.4374 24.6956L74.3488 25.017L72.2692 22.9564L73.4791 20.2813L70.8702 21.6236L68.7056 19.648L69.1782 22.5405L66.6261 23.9962L69.528 24.4404L70.114 27.314L71.4374 24.6956Z" stroke="#39276F" stroke-linecap="round" stroke-linejoin="round"/>
<path id="Vector_25" d="M62.6421 22.5131L57.7595 25.1682C61.6938 32.4278 68.2608 32.4278 70.4731 31.2273" stroke="#39276F" stroke-linecap="round" stroke-linejoin="round"/>
<path id="Vector_26" d="M77.7958 83.1514C74.7161 83.1514 72.2194 80.655 72.2194 77.5749C72.2194 74.4949 74.7161 71.9984 77.7958 71.9984C80.8757 71.9984 83.3723 74.4949 83.3723 77.5749C83.3723 80.655 80.8757 83.1514 77.7958 83.1514Z" stroke="#39276F" stroke-linecap="round" stroke-linejoin="round"/>
<path id="Vector_27" d="M16.972 22.2002C16.0218 22.2002 15.2517 21.4299 15.2517 20.4798C15.2517 19.5297 16.0218 18.7595 16.972 18.7595C17.9223 18.7595 18.6924 19.5297 18.6924 20.4798C18.6924 21.4299 17.9223 22.2002 16.972 22.2002Z" stroke="#39276F" stroke-linecap="round" stroke-linejoin="round"/>
<path id="Vector_28" d="M83.7823 50.8507C83.2968 50.8507 82.9032 50.4572 82.9032 49.9716C82.9032 49.4861 83.2968 49.0926 83.7823 49.0926C84.2678 49.0926 84.6614 49.4861 84.6614 49.9716C84.6614 50.4572 84.2678 50.8507 83.7823 50.8507Z" stroke="#39276F" stroke-linecap="round" stroke-linejoin="round"/>
<path id="Vector_29" d="M38.8262 7.67169L39.7053 11.188L37.0397 10.7154L37.9188 14.2317" stroke="#39276F" stroke-linecap="round" stroke-linejoin="round"/>
<path id="Vector_30" d="M77.9501 35.9347C76.8805 36.4421 76.2213 35.1611 77.2223 34.5914C77.9685 34.1671 78.5078 33.9009 79.1128 33.5895C79.293 33.4854 79.5065 33.4548 79.7086 33.5042C79.9108 33.5535 80.0862 33.6789 80.1983 33.8543C80.3103 34.0297 80.3504 34.2415 80.3102 34.4458C80.27 34.65 80.1526 34.8308 79.9824 34.9506C79.5008 35.2546 78.9317 35.469 77.9501 35.9347Z" stroke="#39276F" stroke-linecap="round" stroke-linejoin="round"/>
<path id="Vector_31" d="M76.674 31.095C77.0521 30.8681 77.3253 30.7149 77.6949 30.498C77.8693 30.3841 78.0812 30.3425 78.2857 30.3822C78.4902 30.4218 78.6713 30.5395 78.7905 30.7103C78.9097 30.8812 78.9577 31.0917 78.9243 31.2973C78.891 31.5029 78.7789 31.6875 78.6118 31.8119C78.2075 32.0817 77.7842 32.3218 77.3452 32.5303" stroke="#39276F" stroke-linecap="round" stroke-linejoin="round"/>
<path id="Vector_32" d="M78.4227 37.4376C77.3735 37.9008 76.7596 36.6451 77.7422 36.1237C78.4705 35.7372 79.0103 35.4934 79.5948 35.2163C79.7712 35.1172 79.9792 35.0904 80.1749 35.1416C80.3707 35.1927 80.539 35.3178 80.6443 35.4905C80.7496 35.6632 80.7839 35.8701 80.7397 36.0676C80.6956 36.265 80.5766 36.4376 80.4078 36.5491C79.9351 36.8227 79.3869 37.0123 78.4227 37.4376Z" stroke="#39276F" stroke-linecap="round" stroke-linejoin="round"/>
<path id="Vector_33" d="M77.365 32.5696C77.7526 32.3616 78.0949 32.2049 78.471 32.0024C78.6515 31.8904 78.8685 31.8529 79.0761 31.898C79.2837 31.943 79.4657 32.067 79.5835 32.2438C79.7013 32.4206 79.7458 32.6362 79.7076 32.8452C79.6693 33.0542 79.5512 33.24 79.3784 33.3636C78.8874 33.686 78.3272 33.9173 77.3387 34.4128C76.5148 34.8252 76.0531 33.9496 76.3367 33.373" stroke="#39276F" stroke-linecap="round" stroke-linejoin="round"/>
<path id="Vector_34" d="M73.0915 34.4034C72.8174 34.0158 72.4602 33.868 72.2502 33.9874C71.8756 34.2014 71.8443 35.2919 73.0064 37.5888C74.2452 40.037 75.1148 40.7291 75.5397 40.5947C75.8332 40.5017 75.88 39.9236 75.7004 39.3376" stroke="#39276F" stroke-linecap="round" stroke-linejoin="round"/>
<path id="Vector_35" d="M72.0915 35.2447C72.7343 34.98 73.385 34.5079 73.5661 32.6358C73.6541 31.7403 73.783 31.6801 75.0586 31.0572C76.5511 30.3284 76.467 30.4602 77.5918 33.1084C77.8685 33.7596 76.8546 34.4317 75.6824 32.5412C76.5993 33.9875 76.4287 35.4267 75.5879 36.3411" stroke="#39276F" stroke-linecap="round" stroke-linejoin="round"/>
<path id="Vector_36" d="M26.3215 6.58464C26.4151 7.7662 27.8483 7.80401 27.8434 6.66026C27.8399 5.80954 27.8036 5.20456 27.7677 4.52398C27.708 3.38968 26.1951 3.39913 26.1608 4.33493C26.1389 4.90208 26.2345 5.4976 26.3215 6.58464Z" stroke="#39276F" stroke-linecap="round" stroke-linejoin="round"/>
<path id="Vector_37" d="M31.1319 5.71603C31.1413 5.30012 31.1349 4.99662 31.1413 4.59962C31.1587 3.52203 29.6235 3.47328 29.5533 4.37276C29.521 4.83222 29.521 5.29335 29.5533 5.75285" stroke="#39276F" stroke-linecap="round" stroke-linejoin="round"/>
<path id="Vector_38" d="M24.6947 6.85878C24.8131 8.01248 26.2026 8.01198 26.1598 6.89659C26.128 6.07422 26.0762 5.48816 26.0275 4.83594C25.9454 3.74144 24.4773 3.78671 24.4773 4.68669C24.4773 5.23295 24.5867 5.81005 24.6947 6.85878Z" stroke="#39276F" stroke-linecap="round" stroke-linejoin="round"/>
<path id="Vector_39" d="M29.5155 5.74343C29.5061 5.29916 29.4687 4.92104 29.4588 4.49567C29.4319 3.34247 27.8922 3.32356 27.833 4.26881C27.7966 4.84542 27.8802 5.4504 27.9369 6.55734C27.9335 6.72241 27.9827 6.8843 28.0782 7.01897C28.1742 7.15364 28.3106 7.25389 28.4678 7.30483C28.6245 7.35578 28.7941 7.35468 28.9503 7.3018C29.1071 7.24886 29.2419 7.14688 29.3359 7.01106" stroke="#39276F" stroke-linecap="round" stroke-linejoin="round"/>
<path id="Vector_40" d="M30.0448 10.4035C30.5175 10.4791 30.8199 10.7059 30.8199 10.9423C30.8199 11.3676 29.9031 11.8766 27.3414 11.8308C24.6191 11.781 23.5878 11.3015 23.4943 10.8666C23.4271 10.5547 23.8251 10.2696 24.4206 10.1766" stroke="#39276F" stroke-linecap="round" stroke-linejoin="round"/>
<path id="Vector_41" d="M29.8086 11.6323C29.7235 10.9423 29.8121 10.1627 31.3304 9.1841C32.0598 8.71396 32.0493 8.56969 31.9543 7.16126C31.8419 5.49762 31.7742 5.63792 28.9295 5.7812C28.23 5.81652 28.1544 7.01948 30.3663 7.24634C28.6648 7.05729 27.5022 7.83239 27.1325 8.97614" stroke="#39276F" stroke-linecap="round" stroke-linejoin="round"/>
<path id="Vector_42" d="M24.4679 11.5094C24.5246 9.56219 24.3186 6.42396 24.4679 4.91156" stroke="#39276F" stroke-linecap="round" stroke-linejoin="round"/>
<path id="Vector_43" d="M30.8199 10.9517C30.801 13.3148 30.8199 19.3644 30.9806 22.1907C31.7268 22.6823 37.6157 25.6235 40.1401 26.7941C42.4251 27.8543 44.3569 27.6349 45.2568 26.1941C46.5006 24.2041 44.3768 20.8574 43.5156 18.9391C42.8823 17.5307 43.8464 17.1526 44.5648 17.8615C44.5648 17.2282 45.3966 17.0013 45.8409 17.7008C45.8882 17.0958 46.8712 16.9546 47.3439 17.7764C47.4573 17.1337 48.5538 17.2754 48.9413 18.0033C49.0548 17.4361 49.9935 17.7545 50.1607 18.6082C51.6617 26.2503 50.7577 27.5135 47.2021 25.7543C47.5045 26.4953 48.013 27.1341 48.6672 27.5951" stroke="#39276F" stroke-linecap="round" stroke-linejoin="round"/>
<path id="Vector_44" d="M23.4942 10.8761C23.4942 24.1947 23.3495 24.8484 24.0519 26.1608C24.9838 27.902 26.8215 28.9871 40.8207 36.7665C40.6789 38.7232 40.4804 41.0579 40.4804 42.6743" stroke="#39276F" stroke-linecap="round" stroke-linejoin="round"/>
<path id="Vector_45" d="M72.2502 33.9874C69.1309 35.859 64.8962 37.7873 64.3669 38.0331C62.0037 37.0689 54.1875 33.5416 50.9841 31.4352C49.113 30.2054 48.5737 27.6637 48.5643 26.3025" stroke="#39276F" stroke-linecap="round" stroke-linejoin="round"/>
<path id="Vector_46" d="M50.9822 31.4432C49.7439 32.7477 44.9515 31.8412 43.7132 27.3503" stroke="#39276F" stroke-linecap="round" stroke-linejoin="round"/>
<path id="Vector_47" d="M50.5946 21.0753C49.3727 20.7181 48.1056 20.5398 46.8325 20.546C47.0972 21.5574 46.9818 22.9186 46.5489 21.9828C46.1161 21.047 45.0321 21.7684 45.8027 22.9564C45.9281 23.2044 45.9798 23.4833 45.9509 23.7597C45.9226 24.0363 45.8151 24.2987 45.642 24.516" stroke="#39276F" stroke-linecap="round" stroke-linejoin="round"/>
<path id="Vector_48" d="M58.5536 64.9444C54.2811 63.4131 47.2842 60.8261 42.645 58.1102C40.0162 56.5715 37.484 51.9661 41.2555 45.4156C40.5466 42.9281 39.0909 37.7968 38.37 35.4054" stroke="#39276F" stroke-linecap="round" stroke-linejoin="round"/>
<path id="Vector_49" d="M49.9234 49.2626C65.7658 56.3142 68.5414 57.9217 69.0364 60.8798C69.4588 63.4041 68.3842 65.9369 59.0073 81.3271C56.3984 82.036 51.502 80.4574 50.4244 77.5958C53.2413 71.8746 56.1715 66.1036 57.1073 64.4285" stroke="#39276F" stroke-linecap="round" stroke-linejoin="round"/>
<path id="Vector_50" d="M52.088 62.5151C50.4622 67.2603 48.4299 74.6427 46.1897 75.6824C43.9494 76.7222 43.0798 76.9302 29.0259 76.968C27.6175 75.8904 27.5702 70.6632 29.0259 68.3378C32.7572 68.1299 39.0172 68.007 40.35 67.8841C41.0022 64.8593 42.0415 60.1231 42.4395 57.9684" stroke="#39276F" stroke-linecap="round" stroke-linejoin="round"/>
<path id="Vector_51" d="M50.8687 78.4331C50.1995 78.9878 49.5911 79.6122 49.0538 80.2952C50.1881 83.4618 54.6755 89.4547 58.3645 91.7328C58.5819 89.2846 57.6745 84.3315 56.5213 81.4201" stroke="#39276F" stroke-linecap="round" stroke-linejoin="round"/>
<path id="Vector_52" d="M31.9543 68.215C30.7065 69.6139 30.0921 74.3874 32.1433 76.9585" stroke="#39276F" stroke-linecap="round" stroke-linejoin="round"/>
<path id="Vector_53" d="M60.7087 78.5276C57.8352 79.1609 53.296 78.0077 51.8423 74.7277" stroke="#39276F" stroke-linecap="round" stroke-linejoin="round"/>
<path id="Vector_54" d="M58.4023 90.3527C56.5686 89.1995 51.8423 84.8135 49.6493 79.6067" stroke="#39276F" stroke-linecap="round" stroke-linejoin="round"/>
<path id="Vector_55" d="M28.6176 69.1602C28.0494 69.094 27.4748 69.094 26.9067 69.1602C25.3092 70.4537 20.8476 75.8053 20.7909 80.5977C23.362 80.2495 27.1902 77.7147 28.4191 76.0794" stroke="#39276F" stroke-linecap="round" stroke-linejoin="round"/>
<path id="Vector_56" d="M27.7195 69.1224C25.9782 70.7293 21.7644 76.4854 21.5754 80.437" stroke="#39276F" stroke-linecap="round" stroke-linejoin="round"/>
<path id="Vector_57" d="M56.0676 38.0331C55.8219 40.9728 54.7741 48.9413 54.5751 51.3422" stroke="#39276F" stroke-linecap="round" stroke-linejoin="round"/>
<path id="Vector_58" d="M41.2555 45.4155C46.6056 45.4533 51.0105 46.7767 54.8009 49.102" stroke="#39276F" stroke-linecap="round" stroke-linejoin="round"/>
<path id="Vector_59" d="M54.9994 77.7809C57.0601 73.7825 61.3326 64.6608 62.2495 62.7514C57.977 60.5962 47.1161 56.0779 45.2445 54.9153C43.3729 53.7526 42.6356 52.2591 44.6206 45.6235" stroke="#39276F" stroke-linecap="round" stroke-linejoin="round"/>
<path id="Vector_60" d="M75.5303 40.5972C66.5788 46.011 65.1415 46.5981 62.9017 45.9827C60.3659 45.2289 57.8941 44.2743 55.5099 43.128" stroke="#39276F" stroke-linecap="round" stroke-linejoin="round"/>
<path id="Vector_61" d="M62.0793 45.7464C59.5545 44.0733 56.8427 41.1619 55.8691 40.0002" stroke="#39276F" stroke-linecap="round" stroke-linejoin="round"/>
<path id="Vector_62" d="M51.1901 65.228C50.0747 63.9046 46.8514 60.7853 45.6887 59.7266" stroke="#39276F" stroke-linecap="round" stroke-linejoin="round"/>
<path id="Vector_63" d="M87.1473 23.7031L86.8195 25.5563" stroke="#39276F" stroke-linecap="round" stroke-linejoin="round"/>
<path id="Vector_64" d="M82.9036 26.6717L84.7568 26.9996" stroke="#39276F" stroke-linecap="round" stroke-linejoin="round"/>
<path id="Vector_65" d="M85.8723 30.9154L86.2002 29.0623" stroke="#39276F" stroke-linecap="round" stroke-linejoin="round"/>
<path id="Vector_66" d="M90.116 27.9467L88.2618 27.6189" stroke="#39276F" stroke-linecap="round" stroke-linejoin="round"/>
<path id="Vector_67" d="M84.7569 26.9995C84.987 27.0403 85.2228 27.0352 85.451 26.9847C85.6791 26.9342 85.895 26.8392 86.0864 26.7052C86.2778 26.5711 86.4409 26.4006 86.5663 26.2035C86.6918 26.0064 86.7772 25.7865 86.8175 25.5563C86.7764 25.7865 86.7812 26.0225 86.8315 26.2509C86.8818 26.4793 86.9767 26.6954 87.1107 26.8871C87.2448 27.0787 87.4153 27.242 87.6126 27.3676C87.8098 27.4931 88.0299 27.5786 88.2603 27.6189C88.0301 27.5779 87.7941 27.5827 87.5659 27.6331C87.3376 27.6834 87.1215 27.7784 86.93 27.9124C86.7385 28.0464 86.5753 28.217 86.4498 28.4142C86.3243 28.6114 86.2389 28.8314 86.1986 29.0617C86.2396 28.8316 86.2347 28.5957 86.1844 28.3674C86.1341 28.1392 86.0393 27.9232 85.9054 27.7316C85.7715 27.5401 85.6011 27.3768 85.404 27.2512C85.2069 27.1256 84.9871 27.0401 84.7569 26.9995Z" stroke="#39276F" stroke-linecap="round" stroke-linejoin="round"/>
<path id="Vector_68" d="M16.9814 51.7581L16.5118 54.4158" stroke="#39276F" stroke-linecap="round" stroke-linejoin="round"/>
<path id="Vector_69" d="M10.8966 56.0153L13.5542 56.4849" stroke="#39276F" stroke-linecap="round" stroke-linejoin="round"/>
<path id="Vector_70" d="M15.1532 62.1002L15.6233 59.4425" stroke="#39276F" stroke-linecap="round" stroke-linejoin="round"/>
<path id="Vector_71" d="M21.2385 57.8431L18.5794 57.3734" stroke="#39276F" stroke-linecap="round" stroke-linejoin="round"/>
<path id="Vector_72" d="M13.5542 56.4849C13.8846 56.5436 14.2229 56.5366 14.5502 56.4645C14.8776 56.3924 15.1875 56.2561 15.4621 56.064C15.7372 55.872 15.9711 55.6272 16.1512 55.3446C16.3313 55.0616 16.4541 54.7461 16.5119 54.4158C16.4532 54.7456 16.4596 55.0839 16.5318 55.4118C16.6039 55.7392 16.7397 56.0491 16.9317 56.3237C17.1238 56.5983 17.3686 56.8327 17.6511 57.0128C17.9337 57.1928 18.2491 57.3152 18.5795 57.3734C18.2496 57.3147 17.9108 57.3217 17.584 57.3938C17.2566 57.466 16.9467 57.6023 16.6721 57.7943C16.3974 57.9864 16.1631 58.2311 15.9835 58.5137C15.8034 58.7968 15.681 59.1122 15.6233 59.4425C15.682 59.1122 15.6751 58.7739 15.6029 58.4465C15.5308 58.1192 15.3945 57.8092 15.2024 57.5346C15.0104 57.2595 14.7656 57.0257 14.483 56.8456C14.2 56.6655 13.8846 56.5426 13.5542 56.4849Z" stroke="#39276F" stroke-linecap="round" stroke-linejoin="round"/>
<path id="Vector_73" d="M73.3468 14.0899C73.7343 14.7989 74.0841 15.4889 74.4054 16.1411C76.9482 21.3873 77.4491 24.8563 77.4402 27.4463C77.4307 28.7224 77.3079 29.7811 77.2412 30.7452V30.7547C77.0616 30.8587 76.8929 30.9626 76.6835 31.0855C76.3054 30.4885 75.9935 30.6035 75.0671 31.0572C73.791 31.681 73.6681 31.7378 73.5746 32.6357C73.5652 32.7492 73.5557 32.8531 73.5368 32.9571C72.6483 32.4561 71.6369 31.9552 70.4836 31.2159C68.3001 29.8075 65.6723 27.501 62.6759 22.5007C62.2978 21.8674 61.9102 21.2072 61.5227 20.4873L73.3468 14.0899ZM69.5279 24.4404L70.1329 27.314L71.4448 24.6862L74.3562 25.017L72.2667 22.9469L73.4766 20.2719L70.8677 21.6151L68.7031 19.649L69.1757 22.5509L66.6235 23.9972L69.5279 24.4404Z" stroke="#39276F" stroke-linejoin="round"/>
<path id="Vector_74" d="M77.2412 38.4395C77.2223 37.5793 76.8158 36.6624 76.1467 35.4147C76.2858 34.9534 76.3211 34.4671 76.25 33.9905C76.1788 33.514 76.0031 33.0591 75.7353 32.6586C75.9049 32.9208 76.1024 33.1638 76.3243 33.3834C76.0407 33.96 76.5039 34.8391 77.3263 34.4232L77.2128 34.6028C76.2109 35.1699 76.8725 36.4555 77.9407 35.946L77.7417 36.1256C76.7586 36.6455 77.373 37.9027 78.4317 37.4395C78.8949 37.2316 79.273 37.0803 79.5849 36.948C80.3978 37.6002 81.4093 37.7515 83.0918 37.5152L75.7945 41.4663C76.8347 40.2828 77.2696 39.3942 77.2412 38.4395Z" stroke="#39276F" stroke-linejoin="round"/>
<path id="Vector_75" d="M83.3285 37.3861L85.1056 39.7114L76.5133 44.3715L75.5302 41.6114L83.3285 37.3861Z" stroke="#39276F" stroke-linejoin="round"/>
</g>
</g>
</g>
</svg>
