<svg width="101" height="100" viewBox="0 0 101 100" fill="none" xmlns="http://www.w3.org/2000/svg">
<g id="Interface-Testing--Streamline-Bangalore">
<g id="Interface-Interface-testing-01">
<g id="color 2">
<path id="Vector" d="M23.5056 67.717L19.6311 67.9817C19.8072 67.9757 19.9793 68.0364 20.1132 68.1518C21.7768 69.5791 14.7163 81.5445 12.3631 81.1286C12.2409 81.0829 12.1262 81.0191 12.0228 80.9395C13.2865 82.2032 16.4068 79.4296 17.6645 77.86C19.2903 75.8372 21.6534 74.9302 23.9778 74.5994C24.6653 72.7233 24.43 69.3214 23.5056 67.717Z" fill="#9CE799"/>
<path id="Vector_2" d="M80.9907 96.4401C79.2893 95.0133 76.7943 93.2561 74.5635 92.6029L73.4845 90.4666C71.7467 91.3682 69.8083 91.8133 67.8513 91.7601L68.3617 92.6014C67.965 93.7273 67.7142 94.8993 67.6154 96.0889C67.5987 96.3029 67.649 96.5169 67.7594 96.7011C67.8698 96.8853 68.0347 97.0305 68.2314 97.1167C68.3617 97.1744 68.503 97.2038 68.6453 97.2043C72.5113 97.2137 75.8854 97.2515 80.6848 97.261C80.7561 97.2613 80.8266 97.2452 80.8907 97.214C80.9549 97.1828 81.011 97.1373 81.0548 97.0809C81.0986 97.0246 81.1288 96.959 81.1433 96.8891C81.1577 96.8192 81.1559 96.747 81.138 96.6779C81.1145 96.5854 81.0631 96.5024 80.9907 96.4401Z" fill="#9CE799"/>
<path id="Vector_3" d="M33.7343 38.9087C33.8341 38.697 33.9996 38.523 34.2061 38.4128C34.4127 38.3027 34.6493 38.2621 34.8808 38.2971C35.1123 38.3321 35.3262 38.4409 35.4909 38.6073C35.6556 38.7737 35.7622 38.9888 35.7949 39.2207C35.0845 39.1261 34.3944 39.0222 33.7343 38.9087Z" stroke="#39276F" stroke-linecap="round" stroke-linejoin="round"/>
<path id="Subtract" fill-rule="evenodd" clip-rule="evenodd" d="M41.5947 37.3018C41.5952 36.9517 41.5265 36.6048 41.3927 36.2813C41.2589 35.9577 41.0626 35.6637 40.815 35.4161C40.5673 35.1685 40.2733 34.9722 39.9497 34.8385C39.6261 34.7048 39.2793 34.6362 38.9291 34.6367H19.8863C19.5362 34.6362 19.1894 34.7049 18.8659 34.8386C18.5423 34.9724 18.2483 35.1687 18.0008 35.4163C17.7532 35.6638 17.5569 35.9578 17.4231 36.2814C17.2894 36.6049 17.2207 36.9517 17.2212 37.3018V48.1428C17.2207 48.493 17.2894 48.8397 17.4231 49.1633C17.5569 49.4868 17.7532 49.7808 18.0008 50.0284C18.2483 50.2759 18.5423 50.4722 18.8659 50.606C19.1894 50.7398 19.5362 50.8084 19.8863 50.8079H38.9306C39.6375 50.8081 40.3155 50.5275 40.8156 50.0279C41.0629 49.7802 41.259 49.4863 41.3927 49.1629C41.5264 48.8394 41.595 48.4928 41.5947 48.1428V46.3479C39.4206 46.3852 37.2466 46.2653 35.0909 45.9902L35.765 47.1598H23.0151L27.013 40.2316C26.2607 39.9992 25.5009 39.7916 24.7349 39.6092C23.5738 39.3301 23.7623 39.0729 23.9504 39.0326C24.6366 38.935 25.3326 38.9286 26.0205 39.0137L25.9847 38.9824C25.8548 38.8699 25.7255 38.758 25.6046 38.6451C24.3608 37.4819 24.4454 37.0033 26.324 38.0023C26.8215 38.2828 27.3313 38.5411 27.8518 38.7764L28.1373 38.2849L28.5881 39.0749C29.5806 39.453 30.7194 39.7953 31.7691 39.9813C32.0033 39.5236 32.2889 39.094 32.6203 38.7008C33.0099 38.7744 33.3103 38.8306 33.7009 38.8968C33.8004 38.6847 33.9659 38.5105 34.1725 38.4C34.3791 38.2896 34.6159 38.2489 34.8476 38.2839C35.0792 38.319 35.2934 38.428 35.4581 38.5946C35.6228 38.7613 35.7292 38.9767 35.7615 39.2087C37.6968 39.4679 39.643 39.6316 41.5947 39.6973V37.3018Z" fill="#9CE799"/>
<path id="Subtract_2" fill-rule="evenodd" clip-rule="evenodd" d="M91.0566 24.5608C91.0575 24.0334 90.9015 23.5177 90.6086 23.0791C90.3156 22.6405 89.8989 22.2989 89.4114 22.0977C89.0879 21.9639 88.7411 21.8953 88.391 21.8957H69.3482C68.998 21.8951 68.6512 21.9636 68.3275 22.0973C68.0039 22.231 67.7099 22.4272 67.4622 22.6749C67.2146 22.9225 67.0184 23.2165 66.8846 23.5402C66.7509 23.8638 66.6825 24.2107 66.6831 24.5608V36.9192C68.2328 37.2451 69.3472 37.3859 69.4975 37.3302C72.6063 36.178 75.4237 34.2491 78.2779 31.7726C78.5941 31.8471 78.8981 31.9662 79.1808 32.1263C80.0788 31.4552 81.436 30.0806 81.7385 29.4289C81.9626 28.8254 82.3142 28.2773 82.7693 27.8219H82.9185C83.2215 28.011 82.8713 29.5801 82.7106 30.2323C83.6588 29.5849 84.4792 28.7677 85.1304 27.8219C85.5085 27.3115 85.9339 26.7727 86.1418 26.8956C86.4349 27.0682 86.2209 27.8657 86.113 28.1931C85.921 28.7666 85.6374 29.3052 85.2732 29.7881C85.6821 30.2876 85.4797 31.1796 85.0941 31.6427C85.5752 31.8417 85.3956 32.6532 84.9284 33.2044C85.3583 33.1895 85.4747 33.9999 84.9896 34.4666L84.9851 34.4695C84.7608 34.6337 84.3409 34.9422 82.0986 36.5272C82.1633 36.9003 82.1822 37.2361 82.1723 37.6063C80.7216 38.8311 79.1888 39.9112 77.5963 40.8967H88.393C88.743 40.897 89.0897 40.8282 89.4131 40.6943C89.7365 40.5604 90.0303 40.3641 90.2778 40.1165C90.5252 39.8689 90.7213 39.5749 90.855 39.2514C90.9886 38.9279 91.0572 38.5812 91.0566 38.2311V24.5608Z" fill="#9CE799"/>
</g>
<g id="color 1">
<path id="Vector_4" d="M79.0531 39.9505C78.6796 40.2032 78.3014 40.449 77.9188 40.6878C77.8776 40.875 77.893 41.0702 77.963 41.2487C78.0331 41.4271 78.1545 41.5807 78.312 41.69C78.4695 41.7993 78.6559 41.8593 78.8475 41.8625C79.0392 41.8656 79.2274 41.8117 79.3884 41.7077C79.5493 41.6031 79.6755 41.453 79.7507 41.2764C79.826 41.0999 79.847 40.905 79.811 40.7165C79.775 40.5279 79.6837 40.3544 79.5487 40.218C79.4138 40.0816 79.2412 39.9885 79.0531 39.9505Z" fill="#39276F"/>
<path id="Vector_5" d="M30.3682 50.8079C30.3684 50.9988 30.312 51.1855 30.2059 51.3442C30.0999 51.503 29.9491 51.6266 29.7727 51.6995C29.6409 51.7544 29.4985 51.7792 29.3559 51.7723C29.2133 51.7654 29.074 51.7269 28.9482 51.6595C28.8223 51.5921 28.713 51.4976 28.6282 51.3827C28.5434 51.2679 28.4852 51.1356 28.4578 50.9955C28.4301 50.8555 28.4338 50.7112 28.4687 50.5728C28.5036 50.4345 28.5687 50.3056 28.6594 50.1954C28.7501 50.0853 28.8641 49.9967 28.9932 49.936C29.1224 49.8752 29.2633 49.8439 29.406 49.8443C29.6609 49.846 29.9049 49.9481 30.085 50.1285C30.2651 50.3089 30.3669 50.553 30.3682 50.8079Z" fill="#39276F"/>
<path id="Vector_6" d="M35.0939 45.9971C33.8852 45.8455 32.6837 45.6405 31.493 45.3827C31.3022 44.781 31.1755 44.1608 31.1149 43.5325C30.2243 43.3158 29.3102 43.211 28.3936 43.2206C26.3608 43.2773 27.0504 42.7479 27.7503 42.5116C28.5249 42.2564 30.406 41.8594 29.6971 41.3301C29.2433 41.1127 28.9011 40.9321 28.6384 40.7828C28.1069 40.571 27.5644 40.3883 27.013 40.2356L23.0151 47.1598H35.7651L35.0939 45.9971Z" fill="#39276F"/>
<path id="Vector_7" d="M69.923 25.1091V27.822H85.1116C85.4897 27.3115 85.9121 26.7772 86.1231 26.8956C86.2818 26.9847 86.3221 27.3304 86.2081 27.822H87.8051V25.1091H69.923Z" fill="#39276F"/>
<path id="Vector_8" d="M55.5745 30.6005L55.5461 30.6288L56.1133 31.7731C57.0964 31.5273 57.8237 31.1492 57.8809 30.4298C57.7516 31.0826 56.2213 30.7671 55.5745 30.6005Z" fill="#39276F"/>
<path id="Vector_9" d="M59.8286 42.7365L59.7719 43.5022L58.0306 42.0748C58.6207 42.3197 59.2205 42.5405 59.8286 42.7365Z" fill="#39276F"/>
<path id="Vector_10" d="M48.1847 44.2962C48.4583 44.1166 48.7518 43.9181 49.0633 43.6912L49.2523 40.8933L48.1847 44.2962Z" fill="#39276F"/>
<path id="Vector_11" d="M51.1806 58.8421C50.7349 58.0793 50.4157 57.2493 50.2354 56.3844L51.4547 63.0196C51.7572 62.4524 52.0517 61.8753 52.3338 61.2783L51.1806 58.8421Z" fill="#39276F"/>
<path id="Vector_12" d="M49.9428 45.2882C48.7797 44.8728 48.6568 44.3056 49.7722 43.8613L49.9428 45.2882Z" fill="#39276F"/>
<path id="Vector_13" d="M58.9496 43.8708L58.7133 45.3071C59.3277 45.0897 59.6963 44.825 59.6963 44.5419C59.6963 44.2962 59.4316 44.0693 58.9496 43.8708Z" fill="#39276F"/>
<path id="Vector_14" d="M23.5061 67.717L21.7201 67.8304C22.1833 66.7434 22.9111 66.6772 23.5061 67.717Z" fill="#39276F"/>
<path id="Vector_15" d="M23.9788 74.5979C23.5535 75.7317 22.845 75.968 22.2028 74.9755C22.7857 74.81 23.379 74.6838 23.9788 74.5979Z" fill="#39276F"/>
<path id="Vector_16" d="M12.3726 81.1286C11.4134 80.7336 11.7706 79.1172 12.3338 77.6461C13.3388 75.0173 15.5546 71.3313 17.4954 69.3537C18.9406 67.8806 20.4873 67.3553 20.3595 69.1159C20.1272 72.3243 14.4377 81.4917 12.3726 81.1286Z" fill="#39276F"/>
<path id="Vector_17" d="M55.878 25.714C55.8273 25.4553 55.6972 25.2188 55.5057 25.0375C55.3142 24.8562 55.071 24.7391 54.8099 24.7026C54.8701 24.4897 54.8734 24.2646 54.8194 24.05C54.7653 23.8354 54.6559 23.6388 54.5019 23.4798C54.3477 23.3209 54.1543 23.2054 53.9414 23.1449C53.7284 23.0844 53.5032 23.081 53.2885 23.135C53.2628 22.9099 53.1772 22.6958 53.0406 22.515C52.904 22.3342 52.7214 22.1934 52.5119 22.1072C52.3023 22.0209 52.0733 21.9928 51.849 22.0256C51.6247 22.0584 51.4134 22.151 51.2373 22.2937C51.1599 22.1391 51.0515 22.0021 50.9188 21.8911C50.7862 21.7802 50.6321 21.6977 50.4662 21.6489C50.3003 21.6 50.1262 21.5858 49.9546 21.6071C49.783 21.6285 49.6176 21.6849 49.4687 21.7728C49.2697 21.8908 49.107 22.0614 48.9986 22.2654C48.8269 22.1173 48.6184 22.0183 48.3952 21.9789C48.1719 21.9394 47.9421 21.961 47.7301 22.0414C47.5182 22.1218 47.3318 22.2579 47.1908 22.4354C47.0498 22.6129 46.9593 22.8253 46.929 23.0499C46.7158 22.989 46.4905 22.9854 46.2755 23.0394C46.0605 23.0933 45.8636 23.203 45.7045 23.3573C45.5454 23.5116 45.4297 23.7051 45.3692 23.9183C45.3087 24.1315 45.3055 24.3569 45.3598 24.5718C45.1353 24.5983 44.9219 24.6844 44.7418 24.8212C44.5617 24.9579 44.4215 25.1403 44.3357 25.3495C44.2499 25.5587 44.2216 25.7871 44.2537 26.0109C44.2859 26.2347 44.3773 26.4459 44.5186 26.6225C44.3115 26.7256 44.1368 26.8839 44.0138 27.0798C43.8907 27.2758 43.8241 27.5018 43.8211 27.7332C43.8182 27.9646 43.8791 28.1922 43.9971 28.3912C44.1152 28.5902 44.2858 28.7529 44.4902 28.8612C44.3401 29.0322 44.239 29.2407 44.1979 29.4645C44.1567 29.6884 44.177 29.9191 44.2565 30.1324C44.336 30.3456 44.4718 30.5333 44.6494 30.6756C44.827 30.8178 45.0399 30.9093 45.2653 30.9403C45.2044 31.1534 45.2008 31.3788 45.2547 31.5937C45.3087 31.8087 45.4183 32.0057 45.5727 32.1648C45.727 32.3239 45.9205 32.4395 46.1337 32.5C46.3469 32.5605 46.5723 32.5637 46.7872 32.5094C46.8125 32.7346 46.8979 32.9489 47.0344 33.1298C47.171 33.3106 47.3536 33.4515 47.5633 33.5375C47.773 33.6235 48.0019 33.6515 48.2262 33.6187C48.4504 33.5858 48.6617 33.4932 48.8379 33.3507C48.9413 33.5575 49.0996 33.7318 49.2955 33.8547C49.4914 33.9775 49.7174 34.044 49.9486 34.0469C50.1798 34.0498 50.4074 33.9891 50.6063 33.8713C50.8053 33.7535 50.968 33.5832 51.0766 33.379C51.2477 33.5288 51.4562 33.6296 51.6799 33.6705C51.9036 33.7115 52.1343 33.6912 52.3474 33.6117C52.5605 33.5323 52.7481 33.3966 52.8904 33.2192C53.0327 33.0418 53.1244 32.8292 53.1557 32.6039C53.3359 32.6547 53.5252 32.665 53.7099 32.6339C53.8946 32.6029 54.0701 32.5313 54.2238 32.4243C54.5227 31.1282 54.7468 29.8159 54.8949 28.4941C53.3527 27.5488 54.1198 26.2553 54.9233 27.0478C55.3865 27.511 55.3014 26.5563 55.0178 25.8663C55.2908 25.7563 55.5838 25.7044 55.878 25.714Z" fill="#39276F"/>
<path id="Vector_18" d="M85.9717 83.142L83.9395 78.7938C83.9055 78.7267 83.8528 78.6709 83.7876 78.6333C83.7225 78.5957 83.6478 78.5779 83.5727 78.5822C83.4976 78.5864 83.4254 78.6124 83.3649 78.6571C83.3044 78.7018 83.2582 78.7631 83.232 78.8336C83.1968 78.928 83.1996 79.0323 83.24 79.1246L85.2723 83.4728C85.2932 83.5202 85.3233 83.5629 85.3609 83.5985C85.3985 83.6341 85.4427 83.6619 85.4912 83.6803C85.5397 83.6985 85.5914 83.7067 85.6432 83.7045C85.695 83.7023 85.7458 83.6896 85.7926 83.6673C85.8396 83.6455 85.8816 83.6143 85.9161 83.5756C85.9506 83.5369 85.9768 83.4916 85.9931 83.4425C86.01 83.3935 86.0167 83.3417 86.0131 83.29C86.0094 83.2384 85.9953 83.188 85.9717 83.142Z" fill="#39276F"/>
</g>
<g id="outlines">
<path id="Vector_19" d="M6.72998 97.2625H94.2701" stroke="#39276F" stroke-linecap="round" stroke-linejoin="round"/>
<path id="Vector_20" d="M61.549 54.9009C62.1808 54.9007 62.7868 54.6498 63.2337 54.2031C63.6806 53.7565 63.9319 53.1507 63.9325 52.5188V43.7668" stroke="#39276F" stroke-linecap="round" stroke-linejoin="round"/>
<path id="Vector_21" d="M44.2524 46.1295V52.5094C44.2532 53.0647 44.4466 53.6026 44.7997 54.0312" stroke="#39276F" stroke-linecap="round" stroke-linejoin="round"/>
<path id="Vector_22" d="M39.5929 63.2181V50.7229" stroke="#39276F" stroke-linecap="round" stroke-linejoin="round"/>
<path id="Vector_23" d="M59.9988 77.3859H43.4321C42.67 77.3873 41.9248 77.1615 41.2917 76.7372C40.6587 76.3128 40.1666 75.7093 39.8784 75.0038" stroke="#39276F" stroke-linecap="round" stroke-linejoin="round"/>
<path id="Vector_24" d="M68.5902 44.4001V73.5392C68.5922 73.7163 68.5792 73.8934 68.5524 74.0686" stroke="#39276F" stroke-linecap="round" stroke-linejoin="round"/>
<path id="Vector_25" d="M68.5618 22.0092C68.4362 21.0942 67.9768 20.2578 67.272 19.6609C66.5672 19.064 65.6667 18.7487 64.7435 18.7754H43.4396C42.9425 18.7581 42.4469 18.8407 41.9823 19.0184C41.5178 19.1961 41.0935 19.4652 40.7348 19.8098C40.3761 20.1544 40.0903 20.5674 39.8941 21.0245C39.6979 21.4816 39.5955 21.9734 39.5929 22.4708V34.7218" stroke="#39276F" stroke-linecap="round" stroke-linejoin="round"/>
<path id="Vector_26" d="M41.5948 39.7067V37.3018C41.5953 36.9517 41.5267 36.6048 41.3929 36.2813C41.2591 35.9577 41.0627 35.6637 40.8151 35.4161C40.5675 35.1685 40.2734 34.9722 39.9498 34.8385C39.6262 34.7048 39.2794 34.6362 38.9292 34.6367H19.8864C19.5363 34.6362 19.1895 34.7049 18.866 34.8386C18.5424 34.9724 18.2485 35.1687 18.0009 35.4163C17.7533 35.6638 17.557 35.9578 17.4233 36.2814C17.2895 36.6049 17.2209 36.9517 17.2213 37.3018V48.1428C17.2209 48.493 17.2895 48.8397 17.4233 49.1633C17.557 49.4868 17.7533 49.7808 18.0009 50.0284C18.2485 50.2759 18.5424 50.4722 18.866 50.606C19.1895 50.7398 19.5363 50.8084 19.8864 50.8079H28.4389M41.5948 46.3185V48.1428C41.5953 48.4928 41.5267 48.8395 41.393 49.1629C41.2594 49.4864 41.0632 49.7803 40.8158 50.0278C40.5684 50.2754 40.2746 50.4717 39.9512 50.6056C39.6278 50.7394 39.2812 50.8082 38.9312 50.8079H30.3513" stroke="#39276F" stroke-linecap="round" stroke-linejoin="round"/>
<path id="Vector_27" d="M77.9281 40.6968C77.9171 40.7626 77.9108 40.829 77.9092 40.8957C77.9078 41.022 77.9314 41.1472 77.9788 41.2642C78.0261 41.3812 78.0962 41.4877 78.1851 41.5774C78.2739 41.6671 78.3796 41.7382 78.4962 41.7867C78.6127 41.8352 78.7377 41.8601 78.8639 41.8599C79.1193 41.8587 79.3638 41.7568 79.5444 41.5762C79.725 41.3957 79.8269 41.1511 79.8281 40.8957C79.8283 40.6754 79.7521 40.4618 79.6125 40.2912C79.4729 40.1207 79.2785 40.0038 79.0624 39.9604" stroke="#39276F" stroke-linecap="round" stroke-linejoin="round"/>
<path id="Vector_28" d="M27.8638 38.7575L28.1374 38.2849L28.5911 39.0694" stroke="#39276F" stroke-linecap="round" stroke-linejoin="round"/>
<path id="Vector_29" d="M33.7343 38.9087C33.8341 38.697 33.9996 38.523 34.2061 38.4128C34.4127 38.3027 34.6493 38.2621 34.8808 38.2971C35.1123 38.3321 35.3262 38.4409 35.4909 38.6073C35.6556 38.7737 35.7622 38.9888 35.7949 39.2207C35.0845 39.1261 34.3944 39.0222 33.7343 38.9087Z" stroke="#39276F" stroke-linecap="round" stroke-linejoin="round"/>
<path id="Vector_30" d="M35.0939 46.0066L35.7651 47.1598H23.0151L27.013 40.2316" stroke="#39276F" stroke-linecap="round" stroke-linejoin="round"/>
<path id="Vector_31" d="M66.6812 36.9202V24.5613C66.6802 24.034 66.8361 23.5182 67.1289 23.0796C67.4218 22.6411 67.8384 22.2994 68.3259 22.0982C68.6494 21.9643 68.9961 21.8954 69.3463 21.8957H88.3911C88.9185 21.8949 89.4344 22.0508 89.873 22.3437C90.3117 22.6367 90.6534 23.0534 90.8547 23.541C90.9885 23.8643 91.0572 24.2111 91.0567 24.5613V38.2282C91.0575 38.7556 90.9015 39.2713 90.6086 39.7099C90.3157 40.1485 89.899 40.4901 89.4114 40.6913C89.0879 40.8251 88.7412 40.8937 88.3911 40.8933H79.8525" stroke="#39276F" stroke-linecap="round" stroke-linejoin="round"/>
<path id="Vector_32" d="M70.8682 21.8957C70.8628 20.4653 70.2909 19.0952 69.2776 18.0855C68.2643 17.0758 66.8923 16.5087 65.4619 16.5083H42.6366C41.9265 16.508 41.2234 16.6477 40.5673 16.9193C39.9113 17.1909 39.3152 17.5891 38.8131 18.0912C38.311 18.5933 37.9128 19.1894 37.6412 19.8454C37.3696 20.5015 37.23 21.2046 37.2302 21.9146V34.6367" stroke="#39276F" stroke-linecap="round" stroke-linejoin="round"/>
<path id="Vector_33" d="M37.2302 65.817V50.808" stroke="#39276F" stroke-linecap="round" stroke-linejoin="round"/>
<path id="Vector_34" d="M61.0386 79.5789H42.636C41.3941 79.579 40.1899 79.1515 39.2261 78.3683C38.2622 77.585 37.5975 76.4937 37.3436 75.278" stroke="#39276F" stroke-linecap="round" stroke-linejoin="round"/>
<path id="Vector_35" d="M70.8682 44.4001V74.1725C70.8687 75.3456 70.4871 76.4869 69.7811 77.4237" stroke="#39276F" stroke-linecap="round" stroke-linejoin="round"/>
<path id="Vector_36" d="M85.1211 27.822H69.923V25.1091H87.8051V27.822H86.2176" stroke="#39276F" stroke-linecap="round" stroke-linejoin="round"/>
<path id="Vector_37" d="M82.9186 29.2871H83.8827" stroke="#39276F" stroke-linecap="round" stroke-linejoin="round"/>
<path id="Vector_38" d="M69.923 37.16V29.2871H81.8038" stroke="#39276F" stroke-linecap="round" stroke-linejoin="round"/>
<path id="Vector_39" d="M85.6032 29.2871H87.8056V37.6799H82.0968" stroke="#39276F" stroke-linecap="round" stroke-linejoin="round"/>
<path id="Vector_40" d="M78.864 41.8574V51.7721C78.8641 52.6136 78.6984 53.4469 78.3764 54.2244C78.0544 55.0019 77.5824 55.7083 76.9874 56.3034C76.3924 56.8985 75.6859 57.3705 74.9085 57.6926C74.131 58.0146 73.2977 58.1804 72.4562 58.1804H62.7968" stroke="#39276F" stroke-linecap="round" stroke-linejoin="round"/>
<path id="Vector_41" d="M42.9679 58.1754H35.8238C34.1239 58.1741 32.4941 57.4979 31.2925 56.2954C30.091 55.0929 29.416 53.4626 29.416 51.7626" stroke="#39276F" stroke-linecap="round" stroke-linejoin="round"/>
<path id="Vector_42" d="M29.4091 78.662V84.021" stroke="#39276F" stroke-linecap="round" stroke-linejoin="round"/>
<path id="Vector_43" d="M32.0886 81.3415H26.7295" stroke="#39276F" stroke-linecap="round" stroke-linejoin="round"/>
<path id="Vector_44" d="M57.9003 30.4284C57.7396 31.0617 56.3581 30.7801 55.8874 30.6771L55.5392 30.595C55.8377 31.2647 56.1213 31.7726 56.1213 31.7726" stroke="#39276F" stroke-linecap="round" stroke-linejoin="round"/>
<path id="Vector_45" d="M60.0744 34.9392C59.1311 34.5955 58.2176 34.1751 57.3431 33.682C57.0945 33.5493 56.8752 33.368 56.6982 33.1488C56.5212 32.9295 56.3901 32.6769 56.3128 32.4059C56.2461 32.1975 56.1899 31.9801 56.1233 31.7716C56.978 31.5572 57.7774 31.2408 57.9003 30.4284C58.0496 29.4503 57.2252 27.9692 55.9063 25.724C55.6036 25.7096 55.3012 25.7577 55.0178 25.8653C55.2919 26.5553 55.388 27.507 54.9233 27.0468C54.1223 26.2508 53.3542 27.5478 54.8949 28.4931C54.8193 29.2776 54.6959 30.005 54.5641 30.7423C54.4916 31.3106 54.3779 31.873 54.2238 32.4248C54.0402 32.8062 53.7719 33.1407 53.4395 33.4028C53.107 33.6649 52.7192 33.8477 52.3054 33.9372C51.569 34.1507 50.8658 34.4655 50.2159 34.8725C54.1288 36.8197 60.0664 34.9392 60.0664 34.9392H60.0744Z" stroke="#39276F" stroke-linecap="round" stroke-linejoin="round"/>
<path id="Vector_46" d="M59.7719 43.5021L58.0306 42.0654C58.6157 42.3132 59.2118 42.534 59.8172 42.727" stroke="#39276F" stroke-linecap="round" stroke-linejoin="round"/>
<path id="Vector_47" d="M59.6963 44.5419C59.7873 43.2942 59.76 43.7031 59.8192 42.7271C63.0119 43.6966 66.3083 44.2843 69.6393 44.4778C70.3693 44.526 71.0992 44.3826 71.7567 44.0618C75.465 42.2554 79.0137 40.2729 82.1723 37.6063C82.2405 35.075 80.4495 32.2995 78.2779 31.7726C75.4238 34.2492 72.6064 36.178 69.4975 37.3302C69.1647 37.4535 64.1141 36.6143 60.0649 34.9392" stroke="#39276F" stroke-linecap="round" stroke-linejoin="round"/>
<path id="Vector_48" d="M48.1847 44.2962L49.2523 40.8933L49.0633 43.6912" stroke="#39276F" stroke-linecap="round" stroke-linejoin="round"/>
<path id="Vector_49" d="M48.9985 44.5161L49.0632 43.6912C47.4996 44.8581 45.7341 45.7264 43.8554 46.2523C39.715 46.5311 35.556 46.2385 31.4955 45.3827C30.7492 43.0017 30.9751 40.6659 32.6203 38.7008C36.2346 39.3857 39.9051 39.7307 43.5837 39.7311C46.2493 38.162 48.1582 36.1297 50.2189 34.8725" stroke="#39276F" stroke-linecap="round" stroke-linejoin="round"/>
<path id="Vector_50" d="M50.1975 47.4717C50.1975 47.4717 45.4911 50.4015 43.6305 57.1879L37.959 65.6658C33.4357 66.6648 28.1975 67.0011 22.6027 66.9747" stroke="#39276F" stroke-linecap="round" stroke-linejoin="round"/>
<path id="Vector_51" d="M51.4453 63.029L50.226 56.3939" stroke="#39276F" stroke-linecap="round" stroke-linejoin="round"/>
<path id="Vector_52" d="M50.9538 51.1482C50.3218 52.3209 50.0044 53.6373 50.0326 54.9691C50.0608 56.3009 50.4335 57.6027 51.1145 58.7476C51.1602 58.8242 52.3338 61.2803 52.3338 61.2803" stroke="#39276F" stroke-linecap="round" stroke-linejoin="round"/>
<path id="Vector_53" d="M23.9788 74.5979C21.654 74.9282 19.2893 75.8347 17.6655 77.8585C16.1043 79.8042 13.4447 81.8674 12.1403 81.036" stroke="#39276F" stroke-linecap="round" stroke-linejoin="round"/>
<path id="Vector_54" d="M49.7816 43.8614L50.1975 47.4717C52.8734 46.7813 55.6807 46.7813 58.3565 47.4717L58.9575 43.8708" stroke="#39276F" stroke-linecap="round" stroke-linejoin="round"/>
<path id="Vector_55" d="M58.7133 45.3071C59.3277 45.0897 59.6964 44.8255 59.6964 44.5419C59.6964 44.2962 59.4322 44.0688 58.9591 43.8708C56.8999 43.0081 51.8612 43.0116 49.7817 43.8613C49.4434 43.9997 48.912 44.2763 49.0096 44.6305C49.0762 44.8728 49.4115 45.1031 49.9424 45.2882" stroke="#39276F" stroke-linecap="round" stroke-linejoin="round"/>
<path id="Vector_56" d="M84.1475 30.896C84.3554 30.688 84.9698 30.1403 85.2723 29.7906" stroke="#39276F" stroke-linecap="round" stroke-linejoin="round"/>
<path id="Vector_57" d="M81.8794 30.7517C82.1819 30.5721 82.4654 30.4035 82.7107 30.2323" stroke="#39276F" stroke-linecap="round" stroke-linejoin="round"/>
<path id="Vector_58" d="M85.0932 31.6427L84.1569 32.4626" stroke="#39276F" stroke-linecap="round" stroke-linejoin="round"/>
<path id="Vector_59" d="M84.223 33.8521C84.223 33.8521 84.7608 33.3447 84.9275 33.2054" stroke="#39276F" stroke-linecap="round" stroke-linejoin="round"/>
<path id="Vector_60" d="M58.3541 47.4717C65.4618 63.2653 67.9663 74.486 74.7527 89.6637C72.1995 91.4791 69.917 91.8169 66.823 91.7333L52.3338 61.2803L51.4453 63.029C49.7264 66.0318 47.77 68.8921 45.5947 71.5825C44.8523 72.5472 43.9232 73.3523 42.8628 73.9499C41.8023 74.5474 40.6324 74.9252 39.4227 75.0606C33.9774 75.6901 28.4896 75.8708 23.0146 75.6009" stroke="#39276F" stroke-linecap="round" stroke-linejoin="round"/>
<path id="Vector_61" d="M73.4845 90.4666L74.5621 92.6029C76.7929 93.2551 79.2958 95.0038 80.9893 96.4401C81.0625 96.5016 81.1149 96.5842 81.1394 96.6767C81.1639 96.7691 81.1593 96.8668 81.1261 96.9565C81.0934 97.0464 81.0339 97.124 80.9555 97.1787C80.8772 97.2335 80.7839 97.2627 80.6883 97.2625C75.8869 97.258 72.5129 97.2127 68.6488 97.2058C68.5063 97.2051 68.3655 97.1752 68.2351 97.1178C68.1047 97.0605 67.9874 96.977 67.8906 96.8725C67.7939 96.7678 67.7198 96.6444 67.6731 96.5098C67.6263 96.3752 67.6079 96.2324 67.619 96.0904C67.7209 94.8974 67.9752 93.7223 68.3747 92.5935L67.8553 91.7522" stroke="#39276F" stroke-linecap="round" stroke-linejoin="round"/>
<path id="Vector_62" d="M22.2023 74.9745C22.564 75.5337 22.9485 75.7028 23.2888 75.5411C24.1799 75.1198 24.3759 72.9044 24.3759 71.9029C24.3759 70.4214 23.9231 67.1657 22.6893 66.9802C22.3292 66.9259 21.9829 67.2145 21.7202 67.8294" stroke="#39276F" stroke-linecap="round" stroke-linejoin="round"/>
<path id="Vector_63" d="M19.168 68.1304C18.5492 68.4424 17.9845 68.8518 17.4954 69.3428C15.7312 71.1777 14.2927 73.2999 13.2418 75.6183C12.2707 77.6705 11.6618 79.6759 11.8812 80.5992C12.0304 81.2351 12.5528 81.255 13.1289 80.943C15.9517 79.4147 21.6192 69.4508 20.1138 68.1518C19.9782 68.05 19.8141 67.9931 19.6446 67.9893C19.4751 67.9855 19.3081 68.0348 19.168 68.1304Z" stroke="#39276F" stroke-linecap="round" stroke-linejoin="round"/>
<path id="Vector_64" d="M56.1144 47.0558C56.1144 47.0558 55.7363 51.5074 56.7114 53.7382C57.6865 55.969 71.711 91.2039 71.711 91.2039" stroke="#39276F" stroke-linecap="round" stroke-linejoin="round"/>
<path id="Vector_65" d="M51.0105 58.6247C48.8925 62.1802 46.5894 65.6222 44.1106 68.9363C42.5355 70.9428 39.9898 71.5 37.4476 71.6865C33.1015 72.0109 28.7399 72.0835 24.3853 71.9039" stroke="#39276F" stroke-linecap="round" stroke-linejoin="round"/>
<path id="Vector_66" d="M30.3682 50.8079C30.3684 50.9988 30.312 51.1855 30.2059 51.3442C30.0999 51.503 29.9491 51.6266 29.7727 51.6995C29.6409 51.7544 29.4985 51.7792 29.3559 51.7723C29.2133 51.7654 29.074 51.7269 28.9482 51.6595C28.8223 51.5921 28.713 51.4976 28.6282 51.3827C28.5434 51.2679 28.4852 51.1356 28.4578 50.9955C28.4301 50.8555 28.4338 50.7112 28.4687 50.5728C28.5036 50.4345 28.5687 50.3056 28.6594 50.1954C28.7501 50.0853 28.8641 49.9967 28.9932 49.936C29.1224 49.8752 29.2633 49.8439 29.406 49.8443C29.6609 49.846 29.9049 49.9481 30.085 50.1285C30.2651 50.3089 30.3669 50.553 30.3682 50.8079Z" stroke="#39276F" stroke-linecap="round" stroke-linejoin="round"/>
<path id="Vector_67" d="M9.94336 42.5758L11.6165 44.9389L13.5821 41.5171" stroke="#39276F" stroke-linecap="round" stroke-linejoin="round"/>
<path id="Vector_68" d="M55.0178 25.8653C55.3014 26.5553 55.3879 27.507 54.9233 27.0468C54.1223 26.2508 53.3542 27.5478 54.8949 28.4931C54.8193 29.2682 54.6959 30.0055 54.5641 30.7423C54.4898 31.3103 54.3761 31.8725 54.2238 32.4248C54.0128 32.5713 53.7623 32.6504 53.5054 32.6517C53.3878 32.6504 53.2708 32.6345 53.1571 32.6044C53.1342 32.7731 53.0772 32.9355 52.9897 33.0815C52.9022 33.2276 52.7859 33.3544 52.648 33.4542C52.51 33.554 52.3532 33.6248 52.1871 33.6622C52.021 33.6997 51.849 33.703 51.6816 33.672C51.4577 33.6308 51.2492 33.5297 51.0781 33.3795C50.9697 33.5839 50.8071 33.7545 50.6081 33.8726C50.4091 33.9906 50.1814 34.0515 49.9501 34.0486C49.7187 34.0456 49.4926 33.979 49.2967 33.856C49.1007 33.7329 48.9425 33.5583 48.8393 33.3512C48.6631 33.4934 48.4518 33.5857 48.2277 33.6184C48.0036 33.6511 47.7748 33.6229 47.5652 33.537C47.3557 33.451 47.173 33.3103 47.0364 33.1297C46.8998 32.949 46.8143 32.7349 46.7887 32.5099C46.5738 32.5641 46.3485 32.5607 46.1353 32.5001C45.9222 32.4396 45.7288 32.324 45.5745 32.1649C45.4202 32.0059 45.3106 31.809 45.2566 31.5941C45.2025 31.3792 45.2061 31.1539 45.2668 30.9408C45.0414 30.9096 44.8287 30.8181 44.6512 30.6758C44.4737 30.5335 44.338 30.3458 44.2585 30.1327C44.179 29.9195 44.1587 29.6888 44.1998 29.465C44.2408 29.2413 44.3417 29.0328 44.4917 28.8617C44.2874 28.7532 44.117 28.5906 43.999 28.3916C43.8811 28.1926 43.8203 27.965 43.8232 27.7337C43.8262 27.5024 43.8927 27.2764 44.0157 27.0805C44.1386 26.8845 44.3131 26.7262 44.5201 26.623C44.3791 26.4463 44.288 26.2352 44.256 26.0114C44.224 25.7877 44.2524 25.5595 44.3382 25.3504C44.4239 25.1414 44.564 24.959 44.7439 24.8222C44.9238 24.6854 45.1369 24.5991 45.3613 24.5723C45.307 24.3574 45.3102 24.132 45.3707 23.9188C45.4312 23.7056 45.5469 23.5121 45.706 23.3578C45.8651 23.2035 46.062 23.0938 46.277 23.0398C46.4919 22.9859 46.7173 22.9895 46.9304 23.0504C46.9609 22.8258 47.0515 22.6136 47.1925 22.4362C47.3336 22.2588 47.5199 22.1228 47.7318 22.0424C47.9438 21.9621 48.1734 21.9404 48.3967 21.9798C48.6199 22.0191 48.8283 22.1179 49 22.2659C49.1085 22.0616 49.2712 21.8911 49.4702 21.7732C49.6692 21.6553 49.8968 21.5945 50.1281 21.5974C50.3593 21.6003 50.5854 21.6669 50.7813 21.7898C50.9772 21.9127 51.1355 22.0873 51.2388 22.2942C51.4151 22.1524 51.6262 22.0605 51.8501 22.028C52.074 21.9956 52.3025 22.0237 52.5118 22.1096C52.7211 22.1954 52.9036 22.3359 53.0402 22.5162C53.1768 22.6966 53.2625 22.9102 53.2885 23.135C53.5033 23.081 53.7285 23.0844 53.9415 23.145C54.1545 23.2056 54.3478 23.3212 54.502 23.4802C54.6561 23.6391 54.7658 23.8359 54.8198 24.0506C54.8739 24.2654 54.8704 24.4906 54.8098 24.7036C55.071 24.74 55.3144 24.857 55.5059 25.0383C55.6973 25.2196 55.8274 25.4562 55.878 25.715C55.5839 25.7047 55.291 25.7559 55.0178 25.8653Z" stroke="#39276F" stroke-linecap="round" stroke-linejoin="round"/>
<path id="Vector_69" d="M80.764 14.6183L76.974 18.3988" stroke="#39276F" stroke-linecap="round" stroke-linejoin="round"/>
<path id="Vector_70" d="M80.7545 18.4083L76.9834 14.6183" stroke="#39276F" stroke-linecap="round" stroke-linejoin="round"/>
<path id="Vector_71" d="M85.9813 83.142C86.0032 83.1885 86.0157 83.2389 86.0181 83.2902C86.0204 83.3416 86.0126 83.3929 85.995 83.4413C85.9775 83.4896 85.9505 83.534 85.9157 83.5718C85.8809 83.6097 85.8389 83.6403 85.7922 83.6618C85.7457 83.6838 85.6953 83.6963 85.6439 83.6987C85.5925 83.701 85.5412 83.6932 85.4929 83.6756C85.4445 83.658 85.4002 83.6311 85.3623 83.5963C85.3245 83.5614 85.2939 83.5195 85.2723 83.4728L83.2495 79.1251C83.2147 79.0338 83.2156 78.9327 83.252 78.8421C83.2885 78.7514 83.3578 78.6778 83.4461 78.636C83.5345 78.5943 83.6353 78.5873 83.7285 78.6167C83.8218 78.646 83.9005 78.7095 83.949 78.7943L85.9813 83.142Z" stroke="#39276F" stroke-linecap="round" stroke-linejoin="round"/>
<path id="Vector_72" d="M82.4181 76.4406L83.5992 78.9645" stroke="#39276F" stroke-linecap="round" stroke-linejoin="round"/>
<path id="Vector_73" d="M79.4878 70.1647C79.0238 70.3812 78.6135 70.698 78.2867 71.0922C77.9598 71.4864 77.7244 71.9482 77.5975 72.4443C77.4706 72.9404 77.4553 73.4585 77.5528 73.9612C77.6502 74.464 77.8579 74.9388 78.161 75.3516C78.5666 75.9031 79.1265 76.322 79.77 76.5555C80.4135 76.789 81.1118 76.8267 81.7767 76.6637C82.4416 76.5007 83.0433 76.1444 83.5058 75.6398C83.9684 75.1351 84.2711 74.5048 84.3757 73.8283C84.4796 73.1512 84.3804 72.4585 84.0907 71.8378C83.7014 71.0062 82.9982 70.363 82.1353 70.0493C81.2723 69.7356 80.3202 69.7771 79.4878 70.1647Z" stroke="#39276F" stroke-linecap="round" stroke-linejoin="round"/>
<path id="Vector_74" d="M39.6416 7.22197C39.4694 7.20257 39.3386 7.18217 39.2684 6.99163C39.1689 6.73243 38.9983 6.51651 39.2137 6.28965C39.418 6.08452 39.5327 5.8068 39.5327 5.51728C39.5327 5.22777 39.418 4.95005 39.2137 4.74492L38.6849 4.22652C38.4798 4.02297 38.2027 3.90874 37.9137 3.90874C37.6248 3.90874 37.3477 4.02297 37.1426 4.22652C36.9267 4.44244 36.6999 4.2698 36.4511 4.17229C36.3833 4.14699 36.3251 4.1012 36.2845 4.04128C36.244 3.98137 36.2231 3.91031 36.2247 3.83797C36.2253 3.69455 36.1974 3.55244 36.1428 3.41984C36.0881 3.28723 36.0078 3.16675 35.9064 3.06533C35.8049 2.96392 35.6845 2.88358 35.5519 2.82893C35.4193 2.77429 35.2771 2.74643 35.1337 2.74696H34.3875C34.2441 2.74656 34.1021 2.77452 33.9696 2.82921C33.837 2.88391 33.7167 2.96426 33.6153 3.06566C33.514 3.16705 33.4337 3.28749 33.379 3.42003C33.3244 3.55257 33.2965 3.69461 33.297 3.83797C33.297 4.14045 33.0159 4.18622 32.7676 4.29169C32.7027 4.32007 32.6307 4.32799 32.5612 4.31439C32.4917 4.30079 32.428 4.26632 32.3786 4.21558C32.1735 4.01203 31.8963 3.8978 31.6074 3.8978C31.3185 3.8978 31.0413 4.01203 30.8363 4.21558L30.293 4.74492C30.0883 4.94979 29.9732 5.22761 29.9732 5.51728C29.9732 5.80696 30.0883 6.08478 30.293 6.28965C30.509 6.50557 30.3363 6.73243 30.2383 6.99163C30.2131 7.0595 30.1673 7.11783 30.1074 7.15849C30.0475 7.19915 29.9764 7.22012 29.904 7.21849C29.7607 7.21816 29.6187 7.24616 29.4862 7.30088C29.3537 7.35559 29.2333 7.43595 29.132 7.53734C29.0306 7.63872 28.9503 7.75912 28.8957 7.89164C28.841 8.02415 28.8131 8.16616 28.8135 8.3095L28.8244 9.05575C28.8241 9.19908 28.8521 9.34106 28.9068 9.47354C28.9614 9.60602 29.0417 9.7264 29.1431 9.82777C29.2444 9.92914 29.3647 10.0095 29.4972 10.0642C29.6297 10.119 29.7716 10.147 29.9149 10.1468C30.2174 10.1468 30.2632 10.4279 30.3687 10.6761C30.3991 10.742 30.4082 10.8159 30.3947 10.8872C30.3811 10.9586 30.3456 11.0239 30.293 11.0741C30.0888 11.2788 29.974 11.5561 29.974 11.8452C29.974 12.1344 30.0888 12.4117 30.293 12.6164L30.8224 13.1457C31.0274 13.3492 31.3046 13.4635 31.5935 13.4635C31.8824 13.4635 32.1596 13.3492 32.3646 13.1457C32.5806 12.9293 32.8074 13.1019 33.0562 13.1994C33.1238 13.2251 33.1819 13.2711 33.2225 13.331C33.2631 13.3909 33.2843 13.4619 33.283 13.5342C33.2824 13.6779 33.3102 13.8204 33.3648 13.9533C33.4195 14.0862 33.4999 14.2069 33.6015 14.3086C33.703 14.4102 33.8237 14.4908 33.9566 14.5456C34.0894 14.6003 34.2318 14.6283 34.3755 14.6278L35.1317 14.6168C35.275 14.6169 35.4168 14.5888 35.5492 14.534C35.6815 14.4792 35.8017 14.3988 35.903 14.2975C36.0042 14.1961 36.0844 14.0758 36.139 13.9433C36.1936 13.8109 36.2216 13.669 36.2213 13.5258C36.2213 13.2233 36.5023 13.1805 36.7511 13.0721C36.8171 13.0416 36.8909 13.0326 36.9623 13.0463C37.0337 13.0599 37.099 13.0956 37.1491 13.1482C37.3541 13.3517 37.6313 13.466 37.9202 13.466C38.2091 13.466 38.4863 13.3517 38.6913 13.1482L39.2097 12.6188C39.4133 12.4138 39.5275 12.1366 39.5275 11.8477C39.5275 11.5588 39.4133 11.2816 39.2097 11.0766C38.9938 10.8607 39.1665 10.6338 39.264 10.3746C39.2897 10.307 39.3356 10.2489 39.3955 10.2083C39.4554 10.1677 39.5264 10.1465 39.5988 10.1478C39.7425 10.1486 39.8851 10.121 40.0181 10.0664C40.1511 10.0119 40.272 9.93152 40.3737 9.82998C40.4755 9.72844 40.5561 9.60774 40.611 9.47485C40.6658 9.34196 40.6938 9.19952 40.6933 9.05575V8.3095C40.6934 8.02717 40.5838 7.75584 40.3875 7.55289C40.1913 7.34994 39.9237 7.23127 39.6416 7.22197Z" stroke="#39276F" stroke-linecap="round" stroke-linejoin="round"/>
<path id="Vector_75" d="M34.7537 11.4632C34.2026 11.4632 33.664 11.2998 33.2058 10.9936C32.7477 10.6875 32.3906 10.2524 32.1797 9.74332C31.9689 9.23424 31.9137 8.67407 32.0212 8.13364C32.1287 7.59321 32.394 7.09679 32.7837 6.70716C33.1733 6.31753 33.6697 6.05219 34.2101 5.94469C34.7506 5.83719 35.3107 5.89237 35.8198 6.10323C36.3289 6.3141 36.764 6.67119 37.0701 7.12934C37.3763 7.5875 37.5397 8.12614 37.5397 8.67716C37.5409 9.04337 37.4697 9.40622 37.3301 9.74479C37.1906 10.0834 36.9854 10.391 36.7264 10.6499C36.4675 10.9089 36.1599 11.1141 35.8213 11.2536C35.4827 11.3932 35.1199 11.4644 34.7537 11.4632Z" stroke="#39276F" stroke-linecap="round" stroke-linejoin="round"/>
<path id="Vector_76" d="M86.1131 28.1931C86.221 27.8657 86.4349 27.0682 86.1419 26.8956C85.934 26.7727 85.5086 27.3115 85.1305 27.822C84.4793 28.7677 83.6589 29.5849 82.7107 30.2323C82.8714 29.5801 83.2216 28.011 82.9186 27.822H82.7694C82.3143 28.2773 81.9627 28.8254 81.7386 29.4289C81.4361 30.0806 80.0789 31.4552 79.1809 32.1263C79.957 32.6047 80.6199 33.246 81.1237 34.0059C81.6275 34.7658 81.9602 35.6261 82.0987 36.5272C84.3554 34.9317 84.7663 34.6302 84.9897 34.4666C85.4748 33.9999 85.3584 33.1895 84.9285 33.2044C85.3957 32.6532 85.5753 31.8418 85.0942 31.6428C85.4798 31.1796 85.6822 30.2876 85.2733 29.7881C85.6375 29.3052 85.9211 28.7666 86.1131 28.1931Z" stroke="#39276F" stroke-linecap="round" stroke-linejoin="round"/>
<path id="Vector_77" d="M31.1154 43.538C30.2245 43.32 29.3102 43.2128 28.3931 43.2186C26.3608 43.2763 27.0498 42.743 27.7503 42.5096C28.5239 42.2514 30.4059 41.8574 29.697 41.3281C29.2343 41.1107 28.901 40.9301 28.6383 40.7808C27.3612 40.3145 26.0578 39.9233 24.7349 39.6092C23.5738 39.3301 23.7623 39.0729 23.9504 39.0326C24.6366 38.935 25.3326 38.9286 26.0205 39.0137C25.8787 38.8908 25.7369 38.7684 25.6046 38.6451C24.3608 37.4819 24.4454 37.0033 26.324 38.0023C28.012 38.9683 29.8541 39.6358 31.7691 39.9754" stroke="#39276F" stroke-linecap="round" stroke-linejoin="round"/>
<path id="Vector_78" d="M30.6612 41.7629C30.3371 41.6239 30.0157 41.479 29.697 41.3281" stroke="#39276F" stroke-linecap="round" stroke-linejoin="round"/>
<path id="Vector_79" d="M26.0231 39.0127C26.5703 39.4605 28.3613 40.6216 28.6409 40.7798" stroke="#39276F" stroke-linecap="round" stroke-linejoin="round"/>
<path id="Vector_80" d="M19.6769 67.9846L23.5076 67.717" stroke="#39276F" stroke-linecap="round" stroke-linejoin="round"/>
</g>
</g>
</g>
</svg>
