<svg width="13" height="12" viewBox="0 0 13 12" fill="none" xmlns="http://www.w3.org/2000/svg">
<g id="Group">
<path id="Vector" d="M8.5376 1.53417C8.6363 1.60149 8.70422 1.70525 8.72642 1.82264C8.74861 1.94003 8.72327 2.06142 8.65595 2.16012C8.58864 2.25882 8.48488 2.32674 8.36749 2.34894C8.2501 2.37113 8.1287 2.34579 8.03 2.27847C7.19907 1.7136 6.20299 1.44306 5.20047 1.50997C4.19794 1.57687 3.24664 1.97736 2.49814 2.64764C1.74963 3.31792 1.24697 4.21942 1.07026 5.20851C0.893536 6.1976 1.05292 7.21738 1.52301 8.10539C1.99311 8.99339 2.74686 9.69852 3.6642 10.1084C4.58153 10.5184 5.60966 10.6095 6.58479 10.3673C7.55992 10.1251 8.42595 9.56354 9.0449 8.77206C9.66385 7.98058 10.0001 7.00473 10.0001 5.99997C10.0001 5.88063 10.0475 5.76617 10.1319 5.68178C10.2163 5.59738 10.3308 5.54997 10.4501 5.54997C10.5695 5.54997 10.6839 5.59738 10.7683 5.68178C10.8527 5.76617 10.9001 5.88063 10.9001 5.99997C10.9 7.2057 10.4964 8.3767 9.75353 9.32641C9.01068 10.2761 7.97137 10.9499 6.80116 11.2404C5.63096 11.5309 4.39719 11.4214 3.29644 10.9294C2.19568 10.4373 1.29126 9.59107 0.727276 8.52538C0.163291 7.45969 -0.0278127 6.23591 0.184413 5.04901C0.396639 3.86211 0.999984 2.78038 1.89832 1.97617C2.79666 1.17195 3.9383 0.691523 5.14136 0.611422C6.34442 0.53132 7.53968 0.856156 8.5367 1.53417" fill="#FDFDFD"/>
<path id="Vector_2" d="M7.99217 7.42647C7.94242 7.45993 7.88649 7.48312 7.82765 7.49466C7.76882 7.5062 7.70827 7.50587 7.64957 7.49369C7.59087 7.48151 7.53519 7.45772 7.48581 7.42371C7.43643 7.38971 7.39434 7.34619 7.36202 7.29569C7.32969 7.2452 7.30779 7.18875 7.29758 7.12967C7.28738 7.07059 7.28908 7.01007 7.30259 6.95166C7.31611 6.89325 7.34115 6.83812 7.37627 6.78953C7.41138 6.74093 7.45585 6.69984 7.50707 6.66867L10.6409 4.66437C10.6906 4.63091 10.7465 4.60773 10.8054 4.59619C10.8642 4.58464 10.9248 4.58497 10.9835 4.59716C11.0422 4.60934 11.0978 4.63313 11.1472 4.66713C11.1966 4.70113 11.2387 4.74466 11.271 4.79516C11.3033 4.84565 11.3252 4.9021 11.3355 4.96117C11.3457 5.02025 11.344 5.08078 11.3304 5.13919C11.3169 5.1976 11.2919 5.25272 11.2568 5.30132C11.2217 5.34992 11.1772 5.391 11.126 5.42217L7.99217 7.42647Z" fill="#FDFDFD"/>
<path id="Vector_3" d="M12.6525 7.90261C12.6972 8.01092 12.6979 8.13239 12.6544 8.2412C12.611 8.35001 12.5268 8.43757 12.4198 8.48528C12.3127 8.53299 12.1913 8.53707 12.0814 8.49667C11.9714 8.45626 11.8815 8.37455 11.8308 8.26891L10.4727 5.22691C10.4486 5.1729 10.4354 5.11467 10.4338 5.05554C10.4322 4.99641 10.4422 4.93755 10.4634 4.88231C10.4845 4.82706 10.5163 4.77653 10.557 4.73358C10.5977 4.69064 10.6464 4.65612 10.7004 4.63201C10.7544 4.6079 10.8127 4.59467 10.8718 4.59306C10.9309 4.59146 10.9898 4.60151 11.045 4.62266C11.1003 4.6438 11.1508 4.67562 11.1937 4.71629C11.2367 4.75697 11.2712 4.8057 11.2953 4.85971L12.6525 7.90261Z" fill="#FDFDFD"/>
</g>
</svg>
