<svg width="101" height="100" viewBox="0 0 101 100" fill="none" xmlns="http://www.w3.org/2000/svg">
<g id="Video-Conference--Streamline-Bangalore">
<g id="Work-Video-conference-01">
<g id="color 2">
<path id="Vector" d="M48.0324 9.03786C44.3225 9.14134 41.3967 11.9731 41.5002 15.3621C41.6137 19.3073 45.6723 22.0166 49.7408 21.1291L49.5234 18.571C49.4761 18.147 49.5128 17.7178 49.6315 17.3081C49.7501 16.8983 49.9483 16.5159 50.2148 16.1828C50.4813 15.8497 50.811 15.5723 51.1846 15.3666C51.5582 15.1609 51.9692 15.0309 52.393 14.984L54.9134 14.7671C54.7059 11.4826 51.6662 8.93388 48.0324 9.03786Z" fill="#9CE799"/>
<path id="Subtract" fill-rule="evenodd" clip-rule="evenodd" d="M44.521 75.2909L74.7636 72.7422C75.5894 72.6716 76.3536 72.2761 76.8879 71.6423C77.4227 71.0084 77.6839 70.1886 77.6143 69.3627L75.8586 48.7383C75.7879 47.9125 75.3924 47.1485 74.7586 46.6141C74.1253 46.0796 73.3054 45.8184 72.4796 45.8877L56.3208 47.2473C56.0352 47.6828 55.8491 47.9097 55.4203 48.2468C54.9601 48.5987 54.4233 48.8361 53.8531 48.9394C53.2835 49.0427 52.697 49.0088 52.1427 48.8408C51.5885 48.6727 51.0821 48.3751 50.6657 47.9727C50.592 47.9001 50.5184 47.8273 50.4449 47.7542L45.4039 48.1777C47.0761 54.1123 47.2517 58.2297 47.3746 64.1096C47.4763 65.8379 47.2397 67.5697 46.6781 69.207L44.521 75.2909ZM62.134 61.8684L65.1832 63.2937L64.6355 56.8182L61.8699 58.7436C61.7729 58.1336 61.448 57.5834 60.9609 57.2033C60.4739 56.8232 59.8615 56.6421 59.2461 56.6959L53.3462 57.2058C53.0253 57.2322 52.7129 57.3222 52.4263 57.47C52.1403 57.6177 51.8865 57.8212 51.6796 58.068C51.4721 58.3142 51.3164 58.5998 51.2199 58.9073C51.1239 59.2142 51.0895 59.5376 51.1189 59.8585L51.3547 62.5947C51.3811 62.9156 51.4711 63.228 51.6189 63.5141C51.7666 63.8002 51.9701 64.0544 52.2169 64.2613C52.4631 64.4683 52.7487 64.6245 53.0557 64.721C53.3631 64.8171 53.6865 64.8514 54.0074 64.822L59.8973 64.3315C60.2177 64.3041 60.5301 64.2136 60.8157 64.0653C61.1012 63.9171 61.3545 63.7136 61.5614 63.4673C61.7684 63.2211 61.9246 62.936 62.0211 62.629C62.0987 62.3823 62.137 62.1251 62.134 61.8674V61.8684Z" fill="#9CE799"/>
<path id="Vector_2" d="M84.2972 48.8234C84.3231 49.0488 84.3037 49.2771 84.2405 49.495C84.1773 49.7129 84.0718 49.9162 83.93 50.0931C83.7878 50.2702 83.6121 50.4169 83.4131 50.5254C83.2141 50.6343 82.9952 50.7025 82.7699 50.7259C82.544 50.7498 82.3162 50.7284 82.0987 50.6637C81.8813 50.5985 81.6789 50.4916 81.5032 50.3478C81.3276 50.204 81.1824 50.0274 81.0754 49.8273C80.9684 49.6272 80.9023 49.408 80.8804 49.1821L80.6068 46.5951C80.5635 46.1442 80.6998 45.6944 80.9863 45.3435C81.2734 44.9927 81.6868 44.7694 82.1376 44.7221C82.5878 44.6748 83.039 44.8074 83.3923 45.091C83.7455 45.3746 83.9723 45.7863 84.0236 46.2364L84.2972 48.8234Z" fill="#9CE799"/>
</g>
<g id="color 1">
<path id="Vector_3" d="M65.3623 17.6461C65.5086 17.9894 65.6195 18.3468 65.6926 18.7127C65.9757 18.1182 66.1429 17.475 66.1847 16.8177C65.8916 17.1386 65.6175 17.4103 65.3623 17.6461Z" fill="#39276F"/>
<path id="Vector_4" d="M39.6973 30.6249C39.7785 31.0713 39.9315 31.5016 40.1505 31.899C40.8773 31.899 41.6798 31.8049 41.8778 31.5124C41.9062 31.4627 41.9345 31.4084 41.9629 31.3517C41.6893 31.891 40.6992 31.3438 39.6973 30.6249Z" fill="#39276F"/>
<path id="Vector_5" d="M14.7123 51.6174C12.9567 49.0971 1.79029 58.3003 3.39473 60.6221L3.66836 60.8674C5.99067 62.1609 16.081 53.5999 14.7123 51.6174Z" fill="#39276F"/>
<path id="Vector_6" d="M33.8168 84.1066C31.5224 85.1976 38.6182 97.9978 40.7818 96.1794C42.0763 94.3009 35.6292 83.2385 33.8168 84.1066Z" fill="#39276F"/>
<path id="Vector_7" d="M12.2299 59.6216C12.1856 59.7843 12.1729 59.9545 12.1925 60.1221C12.2871 60.7261 13.0607 60.7545 13.5801 60.6127C13.2163 60.1783 12.7531 59.8386 12.2299 59.6216Z" fill="#39276F"/>
<path id="Vector_8" d="M17.2416 54.6944C17.6003 55.1382 17.9684 55.5815 18.2988 55.9879C18.3541 55.8297 18.389 55.6645 18.4027 55.4974C18.4122 55.3556 18.3846 55.2133 18.3228 55.0855C18.261 54.9571 18.1669 54.8476 18.0499 54.7666C17.933 54.6855 17.7969 54.6367 17.6553 54.6238C17.5136 54.6113 17.3711 54.6357 17.2416 54.6944Z" fill="#39276F"/>
<path id="Vector_9" d="M34.4208 35.5725C34.3162 35.5837 34.2173 35.6257 34.1365 35.6931C34.0559 35.7606 33.9969 35.8504 33.9672 35.9513C33.9376 36.0522 33.9385 36.1597 33.9699 36.2601C34.0014 36.3604 34.0618 36.4493 34.1437 36.5153C34.2256 36.5813 34.3252 36.6216 34.43 36.631C34.5347 36.6404 34.6399 36.6185 34.7323 36.5681C34.8246 36.5177 34.8999 36.4411 34.9487 36.348C34.9975 36.2548 35.0175 36.1492 35.0063 36.0446C34.9999 35.9748 34.9794 35.907 34.9463 35.8452C34.9131 35.7833 34.8679 35.7288 34.8133 35.6848C34.7587 35.6408 34.6958 35.6082 34.6284 35.5889C34.561 35.5696 34.4904 35.564 34.4208 35.5725Z" fill="#39276F"/>
<path id="Vector_10" d="M30.6452 39.96C30.5407 39.9712 30.4418 40.0132 30.361 40.0806C30.2803 40.148 30.2214 40.2379 30.1918 40.3388C30.1621 40.4397 30.163 40.5472 30.1944 40.6476C30.2259 40.7479 30.2863 40.8368 30.3682 40.9028C30.4501 40.9688 30.5497 41.009 30.6545 41.0184C30.7592 41.0279 30.8644 41.006 30.9567 40.9556C31.0491 40.9052 31.1244 40.8286 31.1732 40.7354C31.222 40.6422 31.242 40.5367 31.2308 40.4321C31.2235 40.3626 31.2025 40.2952 31.1691 40.2338C31.1357 40.1724 31.0905 40.1183 31.0361 40.0744C30.9817 40.0306 30.9191 39.9979 30.8521 39.9782C30.785 39.9586 30.7147 39.9524 30.6452 39.96Z" fill="#39276F"/>
<path id="Vector_11" d="M32.8826 45.7558C32.7779 45.767 32.679 45.8089 32.5982 45.8762C32.5174 45.9436 32.4584 46.0335 32.4287 46.1344C32.3989 46.2353 32.3998 46.3428 32.4312 46.4432C32.4625 46.5436 32.523 46.6325 32.6048 46.6986C32.6867 46.7646 32.7863 46.8049 32.8911 46.8144C32.9959 46.8238 33.1011 46.8019 33.1935 46.7516C33.2858 46.7012 33.3611 46.6246 33.41 46.5313C33.4588 46.4382 33.4788 46.3326 33.4676 46.228C33.4602 46.1585 33.4393 46.0913 33.4058 46.0299C33.3724 45.9686 33.3273 45.9145 33.2729 45.8707C33.2186 45.8268 33.1561 45.7941 33.0892 45.7744C33.0222 45.7547 32.952 45.7484 32.8826 45.7558Z" fill="#39276F"/>
<path id="Vector_12" d="M27.9742 38.9595C27.8696 38.9706 27.7706 39.0125 27.6898 39.0799C27.609 39.1473 27.55 39.2371 27.5203 39.338C27.4906 39.439 27.4915 39.5464 27.5228 39.6468C27.5542 39.7473 27.6146 39.8361 27.6965 39.9022C27.7783 39.9683 27.878 40.0086 27.9828 40.018C28.0875 40.0275 28.1928 40.0056 28.2851 39.9552C28.3775 39.9048 28.4529 39.8282 28.5016 39.735C28.5504 39.6418 28.5705 39.5362 28.5593 39.4316C28.5519 39.3622 28.5309 39.2949 28.4975 39.2336C28.4641 39.1723 28.4189 39.1181 28.3646 39.0743C28.3103 39.0304 28.2478 38.9977 28.1808 38.978C28.1139 38.9583 28.0436 38.952 27.9742 38.9595Z" fill="#39276F"/>
<path id="Vector_13" d="M38.9142 37.6476C38.8096 37.6587 38.7106 37.7007 38.6298 37.7681C38.549 37.8355 38.4901 37.9253 38.4604 38.0263C38.4307 38.1272 38.4316 38.2347 38.4629 38.3351C38.4943 38.4356 38.5548 38.5244 38.6368 38.5904C38.7187 38.6565 38.8184 38.6968 38.9232 38.7061C39.028 38.7155 39.1332 38.6936 39.2256 38.6431C39.3179 38.5927 39.3932 38.516 39.4419 38.4227C39.4906 38.3295 39.5106 38.2238 39.4993 38.1192C39.4918 38.0498 39.4708 37.9826 39.4374 37.9214C39.404 37.8601 39.3588 37.806 39.3045 37.7622C39.2501 37.7184 39.1877 37.6857 39.1207 37.6661C39.0538 37.6464 38.9836 37.6401 38.9142 37.6476Z" fill="#39276F"/>
<path id="Vector_14" d="M35.8367 41.9519C35.7321 41.9632 35.6332 42.0052 35.5525 42.0726C35.4718 42.1401 35.4129 42.23 35.3832 42.3309C35.3536 42.4319 35.3546 42.5393 35.386 42.6397C35.4175 42.7401 35.478 42.8289 35.5599 42.8949C35.6419 42.9609 35.7415 43.0011 35.8463 43.0105C35.9511 43.0198 36.0563 42.9978 36.1486 42.9474C36.2409 42.8969 36.3162 42.8202 36.3649 42.727C36.4136 42.6338 36.4336 42.5281 36.4223 42.4236C36.4149 42.3541 36.3939 42.2868 36.3604 42.2255C36.327 42.1642 36.2818 42.11 36.2274 42.0662C36.173 42.0224 36.1105 41.9898 36.0434 41.9702C35.9764 41.9505 35.9061 41.9443 35.8367 41.9519Z" fill="#39276F"/>
<path id="Vector_15" d="M41.359 43.9529C41.2544 43.964 41.1554 44.0059 41.0746 44.0733C40.9938 44.1407 40.9348 44.2306 40.9051 44.3314C40.8754 44.4324 40.8762 44.5398 40.9076 44.6402C40.939 44.7407 40.9994 44.8295 41.0813 44.8956C41.1631 44.9617 41.2627 45.002 41.3675 45.0114C41.4723 45.0209 41.5776 44.999 41.6699 44.9486C41.7623 44.8982 41.8376 44.8216 41.8864 44.7284C41.9352 44.6352 41.9553 44.5296 41.944 44.425C41.9367 44.3556 41.9157 44.2883 41.8823 44.227C41.8488 44.1657 41.8037 44.1116 41.7493 44.0677C41.695 44.0238 41.6326 43.9912 41.5656 43.9715C41.4986 43.9518 41.4284 43.9454 41.359 43.9529Z" fill="#39276F"/>
<path id="Vector_16" d="M43.6524 34.7969C43.5479 34.8081 43.4489 34.8499 43.3681 34.9173C43.2873 34.9847 43.2283 35.0746 43.1986 35.1755C43.1688 35.2764 43.1697 35.3839 43.2011 35.4843C43.2324 35.5847 43.2928 35.6736 43.3747 35.7396C43.4566 35.8057 43.5562 35.846 43.661 35.8554C43.7658 35.8649 43.871 35.843 43.9634 35.7927C44.0558 35.7423 44.1311 35.6656 44.1799 35.5724C44.2287 35.4792 44.2487 35.3737 44.2375 35.269C44.231 35.1992 44.2106 35.1315 44.1775 35.0697C44.1444 35.0079 44.0992 34.9534 44.0447 34.9094C43.9901 34.8654 43.9274 34.8328 43.8599 34.8134C43.7926 34.7941 43.722 34.7885 43.6524 34.7969Z" fill="#39276F"/>
<path id="Vector_17" d="M48.5986 43.726C48.494 43.7372 48.395 43.7791 48.3142 43.8464C48.2335 43.9139 48.1745 44.0037 48.1447 44.1046C48.115 44.2055 48.1159 44.313 48.1472 44.4134C48.1786 44.5138 48.239 44.6027 48.3209 44.6688C48.4028 44.7348 48.5024 44.7751 48.6072 44.7846C48.712 44.794 48.8172 44.7721 48.9095 44.7218C49.0019 44.6714 49.0772 44.5948 49.126 44.5015C49.1748 44.4084 49.1949 44.3028 49.1836 44.1982C49.1686 44.058 49.0986 43.9295 48.9889 43.841C48.8792 43.7525 48.7388 43.7111 48.5986 43.726Z" fill="#39276F"/>
<path id="Vector_18" d="M48.6175 38.7704C48.687 38.7631 48.7543 38.7422 48.8156 38.7088C48.8769 38.6754 48.9311 38.6302 48.975 38.5759C49.0188 38.5215 49.0515 38.459 49.0712 38.392C49.0909 38.325 49.0971 38.2548 49.0896 38.1854C49.0711 38.0481 48.9997 37.9235 48.8907 37.838C48.7817 37.7525 48.6436 37.713 48.5059 37.7278C48.3681 37.7425 48.2416 37.8105 48.1532 37.9172C48.0648 38.0238 48.0214 38.1607 48.0324 38.2988C48.0398 38.3683 48.0607 38.4356 48.0941 38.4969C48.1275 38.5582 48.1726 38.6123 48.227 38.6561C48.2814 38.6999 48.3438 38.7326 48.4108 38.7522C48.4779 38.7718 48.5481 38.778 48.6175 38.7704Z" fill="#39276F"/>
<path id="Vector_19" d="M54.385 44.8494C54.2805 44.8605 54.1815 44.9024 54.1004 44.9698C54.0198 45.0372 53.9606 45.127 53.9313 45.2279C53.9014 45.3289 53.9024 45.4363 53.9338 45.5367C53.9651 45.6372 54.0253 45.726 54.1074 45.7921C54.189 45.8582 54.289 45.8985 54.3934 45.9079C54.4984 45.9174 54.6034 45.8955 54.6959 45.8451C54.7885 45.7947 54.8636 45.7181 54.9123 45.6249C54.9611 45.5317 54.981 45.4261 54.97 45.3215C54.9626 45.2521 54.9417 45.1848 54.9084 45.1235C54.875 45.0622 54.8298 45.008 54.7755 44.9642C54.7208 44.9203 54.6586 44.8876 54.5914 44.8679C54.5248 44.8482 54.4541 44.8419 54.385 44.8494Z" fill="#39276F"/>
<path id="Vector_20" d="M55.0458 39.2242C54.9413 39.2353 54.8423 39.2772 54.7612 39.3446C54.6806 39.4121 54.6214 39.5019 54.592 39.6029C54.5622 39.7038 54.5632 39.8113 54.5945 39.9117C54.6259 40.0121 54.6866 40.101 54.7681 40.1671C54.8502 40.2331 54.9497 40.2733 55.0547 40.2827C55.1597 40.2921 55.2647 40.2701 55.3572 40.2197C55.4492 40.1693 55.5248 40.0925 55.5736 39.9993C55.6224 39.906 55.6423 39.8004 55.6308 39.6958C55.6234 39.6264 55.6025 39.5591 55.5691 39.4978C55.5358 39.4365 55.4905 39.3825 55.4363 39.3386C55.3816 39.2948 55.3194 39.2622 55.2522 39.2425C55.1856 39.2229 55.1149 39.2166 55.0458 39.2242Z" fill="#39276F"/>
<path id="Vector_21" d="M59.7649 37.3361C59.754 37.2315 59.7117 37.1326 59.6445 37.0518C59.5769 36.971 59.4873 36.912 59.3863 36.8823C59.2853 36.8525 59.1779 36.8534 59.0774 36.8848C58.9769 36.9161 58.8883 36.9766 58.8222 37.0584C58.756 37.1403 58.7157 37.2399 58.7062 37.3447C58.6968 37.4495 58.7187 37.5547 58.7689 37.6471C58.8197 37.7394 58.8963 37.8148 58.9893 37.8636C59.0824 37.9124 59.1883 37.9325 59.2928 37.9212C59.3625 37.9138 59.4296 37.8929 59.4908 37.8594C59.552 37.826 59.6062 37.7809 59.65 37.7265C59.6938 37.6722 59.7266 37.6098 59.7465 37.5428C59.7659 37.4758 59.7724 37.4056 59.7649 37.3361Z" fill="#39276F"/>
<path id="Vector_22" d="M75.5189 7.80106C75.4612 7.06919 75.1448 6.3818 74.6259 5.86251C74.1065 5.34321 73.4194 5.02606 72.6876 4.96803C71.9558 4.91 71.2274 5.11491 70.6329 5.54595C70.0384 5.97693 69.6175 6.60582 69.4454 7.31948C68.5927 6.92263 67.6519 6.75204 66.7141 6.82417C65.7763 6.89631 64.8734 7.20874 64.0913 7.73136C63.3092 8.25399 62.6749 8.96914 62.2496 9.80803C61.8242 10.6469 61.6222 11.5812 61.6625 12.5208C62.7993 12.2127 63.9679 12.0352 65.145 11.992C65.2087 12.3787 65.2967 12.7608 65.4092 13.1363C65.5132 13.3721 65.6734 13.391 65.9564 12.9567C66.5893 12.0413 67.8728 13.4571 66.3718 14.5521C67.0196 15.6733 67.8425 16.6836 68.8096 17.5446C69.9951 17.1627 71.016 16.39 71.7055 15.3526C72.3946 14.3152 72.7115 13.0747 72.6045 11.8338C72.5851 11.6061 72.5518 11.3798 72.505 11.1562C72.5732 11.1566 72.6408 11.1527 72.7085 11.1448C73.1125 11.1097 73.506 10.9955 73.8657 10.8085C74.2259 10.6215 74.5453 10.3655 74.806 10.055C75.0672 9.7445 75.2647 9.38565 75.3865 8.9989C75.5089 8.61219 75.5537 8.20513 75.5189 7.80106Z" fill="#39276F"/>
<path id="Vector_23" d="M35.5159 57.5356L35.6198 61.3664L36.9681 60.149C36.3801 59.3396 35.8925 58.4625 35.5159 57.5356Z" fill="#39276F"/>
<path id="Vector_24" d="M44.1813 40.045L45.5215 41.952L45.5971 44.3967L44.1813 40.045Z" fill="#39276F"/>
<path id="Vector_25" d="M41.8684 27.123C42.0326 27.0929 42.1807 27.0053 42.2863 26.876C42.3919 26.7467 42.448 26.5841 42.4445 26.4172C42.4412 26.2502 42.3785 26.09 42.2677 25.9651C42.1569 25.8402 42.0054 25.7588 41.84 25.7354C41.9679 25.642 42.0606 25.5082 42.1032 25.3557C42.1457 25.2032 42.1357 25.0407 42.0747 24.8946C42.0136 24.7484 41.9052 24.6271 41.7668 24.5501C41.6283 24.4732 41.4681 24.445 41.3117 24.4703C41.3918 24.3373 41.4258 24.1816 41.4084 24.0273C41.391 23.873 41.3232 23.7288 41.2155 23.617C41.1078 23.5051 40.9662 23.432 40.8127 23.4088C40.6592 23.3856 40.5024 23.4137 40.3664 23.4887C40.3989 23.3304 40.3762 23.1657 40.302 23.0221C40.2278 22.8785 40.1066 22.7646 39.9586 22.6995C39.8107 22.6344 39.6449 22.622 39.4889 22.6643C39.3329 22.7066 39.1961 22.8011 39.1013 22.932C39.086 22.7619 39.0119 22.6024 38.8916 22.481C38.7714 22.3597 38.6126 22.2841 38.4426 22.2673C38.2726 22.2505 38.102 22.2936 37.9604 22.389C37.8187 22.4845 37.7148 22.6264 37.6665 22.7902C37.5997 22.6432 37.4847 22.5235 37.3404 22.451C37.1961 22.3785 37.0314 22.3577 36.8736 22.3918C36.7158 22.4261 36.5745 22.5133 36.4732 22.639C36.3719 22.7647 36.3167 22.9213 36.3168 23.0828C36.199 22.9815 36.0512 22.9217 35.8961 22.9127C35.741 22.9037 35.5873 22.9458 35.4585 23.0328C35.3298 23.1197 35.2332 23.2465 35.1835 23.3937C35.1339 23.5409 35.1341 23.7003 35.184 23.8474C35.0372 23.7928 34.8763 23.7887 34.7269 23.8358C34.5775 23.8829 34.4481 23.9785 34.3593 24.1075C34.2704 24.2365 34.2271 24.3915 34.2362 24.5478C34.2454 24.7042 34.3065 24.8531 34.4099 24.9708C34.2433 24.9616 34.0788 25.0117 33.9456 25.112C33.8123 25.2124 33.7188 25.3565 33.6815 25.5192C33.6443 25.6818 33.6657 25.8523 33.742 26.0006C33.8182 26.1491 33.9445 26.2657 34.0984 26.3299C33.9348 26.3616 33.7877 26.4504 33.6835 26.5804C33.5792 26.7104 33.5244 26.8732 33.5289 27.0397C33.5335 27.2063 33.5971 27.3659 33.7082 27.49C33.8195 27.6141 33.9711 27.6947 34.1362 27.7175C34.0111 27.8124 33.9213 27.9465 33.8811 28.0984C33.841 28.2503 33.8528 28.4113 33.9147 28.5557C33.9766 28.7001 34.0851 28.8196 34.2227 28.8953C34.3604 28.9709 34.5195 28.9983 34.6745 28.9732C34.5963 29.1068 34.5642 29.2625 34.5832 29.4161C34.6022 29.5698 34.6712 29.713 34.7796 29.8235C34.888 29.9341 35.0298 30.0059 35.1831 30.0279C35.3364 30.05 35.4926 30.0209 35.6278 29.9453C35.5965 30.1033 35.6203 30.2672 35.6952 30.4098C35.7701 30.5524 35.8916 30.665 36.0393 30.7289C36.1871 30.7929 36.3524 30.8044 36.5076 30.7613C36.6628 30.7183 36.7986 30.6235 36.8924 30.4925C36.9006 30.6104 36.9379 30.7244 37.001 30.8243C37.0641 30.9242 37.151 31.0068 37.2539 31.0648C37.3568 31.1229 37.4725 31.1544 37.5906 31.1568C37.7087 31.1591 37.8256 31.1321 37.9307 31.0781C38.0158 30.9741 39.1744 29.5488 39.5829 29.0294C38.5824 27.8971 39.4127 27.1608 39.951 27.9065C40.2341 28.3125 40.6475 28.1991 40.4038 26.9906C40.7165 26.8546 41.0162 26.6904 41.2993 26.5001C41.4983 27.2642 41.6475 27.916 41.7709 28.4632C41.9142 28.4257 42.0422 28.3443 42.1369 28.2303C42.2316 28.1164 42.2883 27.9757 42.2991 27.828C42.3098 27.6802 42.2741 27.5328 42.1968 27.4064C42.1196 27.28 42.0048 27.1809 41.8684 27.123Z" fill="#39276F"/>
</g>
<g id="outlines">
<path id="Vector_26" d="M41.7739 28.4632C41.6515 27.916 41.5003 27.2647 41.3023 26.5001C41.0193 26.6904 40.7196 26.8546 40.4068 26.9906C40.6526 28.1991 40.2401 28.31 39.9541 27.9065C39.4218 27.1563 38.5855 27.8971 39.5859 29.0294C39.18 29.5488 38.0188 30.9741 37.9337 31.0781C37.8286 31.1321 37.7118 31.1591 37.5936 31.1568C37.4755 31.1545 37.3599 31.1229 37.2569 31.0649C37.154 31.0068 37.0671 30.9241 37.0041 30.8243C36.941 30.7244 36.9037 30.6104 36.8954 30.4925C36.8017 30.6234 36.6658 30.7183 36.5107 30.7613C36.3555 30.8043 36.1902 30.7929 36.0424 30.7289C35.8946 30.665 35.7731 30.5523 35.6983 30.4097C35.6234 30.2672 35.5996 30.1033 35.6308 29.9453C35.4957 30.0209 35.3394 30.0499 35.1861 30.0279C35.0329 30.0059 34.8911 29.9341 34.7827 29.8235C34.6743 29.7129 34.6052 29.5698 34.5863 29.4161C34.5672 29.2625 34.5993 29.1068 34.6776 28.9732C34.5225 28.9983 34.3635 28.9709 34.2258 28.8953C34.0881 28.8196 33.9796 28.7 33.9178 28.5557C33.8559 28.4113 33.844 28.2503 33.8842 28.0984C33.9243 27.9465 34.0141 27.8124 34.1393 27.7175C33.9742 27.6947 33.8225 27.6141 33.7113 27.49C33.6001 27.3659 33.5366 27.2063 33.532 27.0397C33.5275 26.8732 33.5822 26.7103 33.6865 26.5803C33.7908 26.4504 33.9379 26.3616 34.1015 26.3299C33.9476 26.2657 33.8213 26.149 33.745 26.0007C33.6687 25.8523 33.6473 25.6818 33.6846 25.5192C33.7218 25.3565 33.8154 25.2123 33.9486 25.112C34.0819 25.0117 34.2464 24.9616 34.4129 24.9708C34.3096 24.8531 34.2484 24.7042 34.2393 24.5479C34.2301 24.3914 34.2734 24.2365 34.3623 24.1075C34.4512 23.9785 34.5806 23.8829 34.73 23.8358C34.8794 23.7887 35.0402 23.7927 35.187 23.8474C35.1386 23.7007 35.1394 23.5422 35.1894 23.396C35.2394 23.2498 35.3357 23.124 35.4639 23.0376C35.592 22.9513 35.7448 22.9093 35.8991 22.9178C36.0534 22.9264 36.2006 22.9853 36.3183 23.0853C36.3182 22.9238 36.3734 22.7671 36.4747 22.6414C36.576 22.5158 36.7173 22.4285 36.8751 22.3943C37.033 22.3601 37.1977 22.381 37.3419 22.4535C37.4862 22.526 37.6013 22.6457 37.6681 22.7927C37.7163 22.6288 37.8202 22.487 37.9619 22.3915C38.1036 22.296 38.2741 22.253 38.4441 22.2698C38.6142 22.2866 38.773 22.3622 38.8932 22.4835C39.0135 22.6049 39.0876 22.7644 39.1029 22.9345C39.1976 22.8036 39.3344 22.7091 39.4905 22.6668C39.6465 22.6245 39.8122 22.6369 39.9602 22.702C40.1082 22.7671 40.2293 22.8809 40.3035 23.0246C40.3777 23.1682 40.4005 23.3329 40.368 23.4912C40.5039 23.4162 40.6608 23.3881 40.8143 23.4113C40.9678 23.4344 41.1094 23.5076 41.2171 23.6195C41.3248 23.7313 41.3925 23.8755 41.41 24.0298C41.4273 24.1841 41.3933 24.3398 41.3132 24.4728C41.4696 24.4475 41.6299 24.4756 41.7683 24.5526C41.9067 24.6295 42.0152 24.7509 42.0762 24.897C42.1373 25.0432 42.1473 25.2056 42.1047 25.3582C42.0622 25.5107 41.9694 25.6445 41.8416 25.7379C42.0069 25.7613 42.1585 25.8426 42.2692 25.9676C42.38 26.0925 42.4427 26.2527 42.4461 26.4196C42.4495 26.5865 42.3934 26.7492 42.2878 26.8785C42.1823 27.0078 42.0342 27.0954 41.8699 27.1254C42.0054 27.1837 42.1194 27.2827 42.1961 27.4087C42.2727 27.5346 42.3082 27.6814 42.2976 27.8285C42.2871 27.9756 42.231 28.1157 42.1372 28.2295C42.0433 28.3432 41.9163 28.4249 41.7739 28.4632Z" stroke="#39276F" stroke-linecap="round" stroke-linejoin="round"/>
<path id="Vector_27" d="M41.8873 24.5932L44.4171 24.3857C44.7192 24.3594 45.0234 24.3929 45.3124 24.4846C45.6014 24.5763 45.8694 24.7242 46.101 24.9198C46.3325 25.1155 46.5232 25.355 46.6619 25.6245C46.8006 25.8941 46.8846 26.1885 46.9091 26.4907L47.5981 34.7686" stroke="#39276F" stroke-linecap="round" stroke-linejoin="round"/>
<path id="Vector_28" d="M45.6912 44.2643L46.0782 44.236C46.4161 44.2322 46.7462 44.1342 47.0314 43.9529" stroke="#39276F" stroke-linecap="round" stroke-linejoin="round"/>
<path id="Vector_29" d="M28.1722 45.7349L23.0942 46.1693C22.4849 46.2203 21.8802 46.0272 21.413 45.6327C20.9458 45.238 20.6545 44.6742 20.6028 44.0648L19.3093 28.811C19.258 28.2014 19.451 27.5964 19.8457 27.1291C20.2404 26.6618 20.8046 26.3704 21.4142 26.319L33.8305 25.2729" stroke="#39276F" stroke-linecap="round" stroke-linejoin="round"/>
<path id="Vector_30" d="M44.521 75.2909L74.7636 72.7422C75.5894 72.6716 76.3536 72.2761 76.8879 71.6423C77.4227 71.0084 77.6839 70.1886 77.6143 69.3627L75.8586 48.7383C75.7879 47.9125 75.3924 47.1485 74.7586 46.6141C74.1253 46.0796 73.3054 45.8184 72.4796 45.8877L56.3208 47.2473" stroke="#39276F" stroke-linecap="round" stroke-linejoin="round"/>
<path id="Vector_31" d="M45.4175 48.1722L50.4392 47.7473" stroke="#39276F" stroke-linecap="round" stroke-linejoin="round"/>
<path id="Vector_32" d="M61.7098 14.18L52.3836 14.9825C51.5294 15.0778 50.7478 15.5078 50.2099 16.1782C49.672 16.8487 49.4218 17.705 49.514 18.5595L51.3831 40.0714" stroke="#39276F" stroke-linecap="round" stroke-linejoin="round"/>
<path id="Vector_33" d="M58.1228 43.2261L86.4116 40.7813C87.0395 40.7246 87.636 40.4799 88.1226 40.0791C88.6091 39.6783 88.9633 39.14 89.1394 38.5346" stroke="#39276F" stroke-linecap="round" stroke-linejoin="round"/>
<path id="Vector_34" d="M88.2334 25.0559L87.3931 15.2864C87.3369 14.4282 86.9429 13.6272 86.2971 13.0591C85.6509 12.4911 84.8061 12.2023 83.9479 12.2562L72.5552 13.2382" stroke="#39276F" stroke-linecap="round" stroke-linejoin="round"/>
<path id="Vector_35" d="M77.8784 27.8971C76.9063 29.4259 74.8581 33.891 73.6686 36.7884C75.9521 37.681 77.8764 39.3039 79.1411 41.4042" stroke="#39276F" stroke-linecap="round" stroke-linejoin="round"/>
<path id="Vector_36" d="M62.6724 32.7865C63.0176 34.5642 63.4684 36.3198 64.0221 38.0441C63.5027 39.9978 63.2952 41.7345 63.05 42.8012" stroke="#39276F" stroke-linecap="round" stroke-linejoin="round"/>
<path id="Vector_37" d="M63.5783 25.5185C62.8654 26.6176 62.4495 27.8824 62.3704 29.1901" stroke="#39276F" stroke-linecap="round" stroke-linejoin="round"/>
<path id="Vector_38" d="M73.6592 36.7979C70.9975 38.7142 65.9663 39.7331 64.0221 38.0441" stroke="#39276F" stroke-linecap="round" stroke-linejoin="round"/>
<path id="Vector_39" d="M72.4513 37.5247C73.8712 38.6351 75.0089 40.0644 75.7731 41.6968" stroke="#39276F" stroke-linecap="round" stroke-linejoin="round"/>
<path id="Vector_40" d="M65.6991 18.7018C65.9777 18.1097 66.1424 17.4706 66.1847 16.8177C65.8921 17.1386 65.6175 17.4103 65.3623 17.6461" stroke="#39276F" stroke-linecap="round" stroke-linejoin="round"/>
<path id="Vector_41" d="M76.5287 30.4269L79.9082 36.1372C82.5226 40.8759 87.9677 42.3664 91.3861 35.2879C92.9995 31.9462 93.7646 29.7 95.1805 27.3777C92.8651 26.7176 90.7567 25.4765 89.0563 23.7723C87.4847 26.1376 86.0872 28.6139 84.8743 31.1816C78.0312 16.6362 77.1909 19.2008 72.6318 18.9485C71.2408 18.9102 69.901 18.416 68.8185 17.5421" stroke="#39276F" stroke-linecap="round" stroke-linejoin="round"/>
<path id="Vector_42" d="M58.8496 30.5398C60.1993 25.9524 63.2231 23.832 64.5505 22.3848C65.1748 21.7858 65.5912 21.0022 65.737 20.1492C65.8833 19.2962 65.7519 18.4189 65.3624 17.6461C62.9838 19.7416 61.6719 18.071 61.6719 12.5219" stroke="#39276F" stroke-linecap="round" stroke-linejoin="round"/>
<path id="Vector_43" d="M73.2064 18.9675C71.3144 20.4879 69.607 22.2244 68.1185 24.1415C67.8852 24.4319 67.5807 24.6568 67.2344 24.7943C66.8882 24.9317 66.5121 24.9771 66.1429 24.9258C65.7743 24.8745 65.4245 24.7284 65.129 24.5017C64.8335 24.275 64.6017 23.9756 64.4564 23.6325C64.335 23.349 64.2295 23.0853 64.1355 22.8301" stroke="#39276F" stroke-linecap="round" stroke-linejoin="round"/>
<path id="Vector_44" d="M84.8729 31.1816L83.75 33.7114" stroke="#39276F" stroke-linecap="round" stroke-linejoin="round"/>
<path id="Vector_45" d="M37.9322 31.0781C36.6128 32.7696 35.679 32.6587 33.194 33.7681C28.1344 36.0242 29.8712 45.0668 29.8712 45.0668" stroke="#39276F" stroke-linecap="round" stroke-linejoin="round"/>
<path id="Vector_46" d="M41.7739 28.4632C42.1863 30.3751 42.149 31.1069 41.8778 31.5025C41.6788 31.7955 40.8774 31.8895 40.1505 31.8895" stroke="#39276F" stroke-linecap="round" stroke-linejoin="round"/>
<path id="Vector_47" d="M41.9645 31.3438C41.7003 31.891 40.6984 31.3438 39.6974 30.6169C39.8864 31.4855 40.0183 32.5263 40.7262 32.5706C47.0017 32.9641 47.6644 33.675 53.1105 43.0181" stroke="#39276F" stroke-linecap="round" stroke-linejoin="round"/>
<path id="Vector_48" d="M52.4403 41.8574C52.6762 41.1968 54.1393 38.1854 54.989 35.4671C56.8497 35.2668 58.7198 35.7535 60.2466 36.8357C59.6611 39.6107 57.9626 43.8211 56.4989 46.9155C56.2502 47.4385 55.8806 47.8949 55.4204 48.2468C54.9602 48.5987 54.4234 48.8361 53.8532 48.9394C53.2836 49.0427 52.6971 49.0089 52.1428 48.8408C51.5886 48.6727 51.0822 48.3751 50.6658 47.9727C48.222 45.5698 46.0506 42.9049 44.1908 40.0261" stroke="#39276F" stroke-linecap="round" stroke-linejoin="round"/>
<path id="Vector_49" d="M44.2002 40.0261L45.5972 44.3967" stroke="#39276F" stroke-linecap="round" stroke-linejoin="round"/>
<path id="Vector_50" d="M33.8835 47.9648C36.687 48.8603 41.4819 48.5215 45.2295 47.5021C45.7957 46.3882 45.5599 41.9898 45.5599 41.9898" stroke="#39276F" stroke-linecap="round" stroke-linejoin="round"/>
<path id="Vector_51" d="M33.8547 47.7473C32.6468 49.4841 30.2727 49.5483 29.1822 47.7379C27.8081 45.4494 27.219 42.1878 26.9265 38.563C26.9265 38.563 29.0658 37.8784 29.9613 38.1466" stroke="#39276F" stroke-linecap="round" stroke-linejoin="round"/>
<path id="Vector_52" d="M36.9681 60.149L27.0007 68.9747C26.3413 69.5548 25.4942 69.8761 24.6161 69.8796C23.738 69.8826 22.8884 69.5677 22.2247 68.9931L12.4185 60.5092" stroke="#39276F" stroke-linecap="round" stroke-linejoin="round"/>
<path id="Vector_53" d="M25.5957 61.8589L18.1765 54.8646" stroke="#39276F" stroke-linecap="round" stroke-linejoin="round"/>
<path id="Vector_54" d="M32.3349 38.4973C32.3349 38.4973 33.9766 45.1141 33.8736 48.1344C31.8765 49.2696 30.3332 51.0607 29.5056 53.2034C28.3001 56.4605 24.1251 60.4241 24.1251 60.4241" stroke="#39276F" stroke-linecap="round" stroke-linejoin="round"/>
<path id="Vector_55" d="M45.2291 47.5021C47.0788 53.7979 47.2629 57.9993 47.3902 64.0957C47.4919 65.824 47.2553 67.5553 46.6937 69.1931L42.3709 81.3505C39.7271 81.0729 37.1856 80.1774 34.9517 78.7361L39.275 66.3519C39.3583 64.2365 38.6486 62.1664 37.285 60.547C35.9351 58.9028 35.0894 56.9028 34.8497 54.789" stroke="#39276F" stroke-linecap="round" stroke-linejoin="round"/>
<path id="Vector_56" d="M35.7616 32.7582C35.7616 32.7582 37.2715 34.4193 40.8585 32.5786" stroke="#39276F" stroke-linecap="round" stroke-linejoin="round"/>
<path id="Vector_57" d="M27.6722 38.3461C27.6427 36.9059 27.4815 35.4714 27.1906 34.0606C26.9122 32.9748 26.5133 31.9235 26.0011 30.9264C25.2499 29.4617 25.4937 29.0652 26.7001 30.398C27.8915 31.8935 28.8726 33.5449 29.6164 35.3063" stroke="#39276F" stroke-linecap="round" stroke-linejoin="round"/>
<path id="Vector_58" d="M29.1976 34.3735C29.7971 35.0531 30.1558 32.9805 30.3812 32.5218C30.6926 31.8895 31.0777 31.201 31.0513 33.1452C31.0439 33.683 31.108 34.5422 31.1931 35.3914" stroke="#39276F" stroke-linecap="round" stroke-linejoin="round"/>
<path id="Vector_59" d="M26.6244 32.3144C26.3508 32.0124 25.7289 31.4089 25.5483 31.2383C24.7235 30.4493 24.5593 30.7274 24.6528 30.89C25.011 31.5179 25.6827 32.485 25.9961 33.079C26.4976 34.0412 27.5155 35.873 27.5722 36.8168" stroke="#39276F" stroke-linecap="round" stroke-linejoin="round"/>
<path id="Vector_60" d="M25.9639 33.0223C25.8032 32.9094 25.6704 32.8163 25.5957 32.7676C24.6395 32.1442 24.5386 32.4278 24.6505 32.5686C25.1037 33.1347 25.9266 33.9735 26.331 34.5128C26.8059 35.1772 27.2167 35.8852 27.5579 36.6272" stroke="#39276F" stroke-linecap="round" stroke-linejoin="round"/>
<path id="Vector_61" d="M59.8033 36.5242C60.3098 35.0145 60.9476 33.5522 61.7103 32.1542C62.3555 31.0991 63.1187 30.1206 63.9848 29.2374C65.2564 27.9439 65.1291 27.4344 63.4187 28.4443C61.6739 29.6359 60.0988 31.0584 58.7367 32.6731" stroke="#39276F" stroke-linecap="round" stroke-linejoin="round"/>
<path id="Vector_62" d="M59.5302 31.7776C58.5779 32.4875 58.9292 30.0627 58.8401 29.4921C58.7202 28.7269 58.5476 27.8687 57.9337 29.9358C57.764 30.5015 57.0745 32.2547 55.7745 35.4193" stroke="#39276F" stroke-linecap="round" stroke-linejoin="round"/>
<path id="Vector_63" d="M62.8704 30.4925C63.2574 30.2567 64.1071 29.8319 64.3524 29.7095C65.4852 29.1428 65.5593 29.5005 65.419 29.6339C64.8385 30.1856 63.8151 30.9846 63.2952 31.5119C62.4564 32.3631 60.7843 33.9661 60.4067 34.9482" stroke="#39276F" stroke-linecap="round" stroke-linejoin="round"/>
<path id="Vector_64" d="M63.3425 31.4652C63.55 31.399 63.7202 31.3428 63.8147 31.3159C65.0246 30.9453 65.041 31.3055 64.8719 31.4199C64.2082 31.8676 63.0699 32.488 62.4645 32.9298C61.7481 33.4773 61.0849 34.0904 60.4824 34.7611" stroke="#39276F" stroke-linecap="round" stroke-linejoin="round"/>
<path id="Vector_65" d="M14.7124 51.6174C13.0323 49.204 2.73357 57.5297 3.25694 60.2858C3.33803 60.7127 3.70718 61.0948 4.56835 60.9779C7.87823 60.5296 15.9537 53.4034 14.7124 51.6174Z" stroke="#39276F" stroke-linecap="round" stroke-linejoin="round"/>
<path id="Vector_66" d="M14.7123 51.6174C15.2312 52.2781 17.0152 54.4113 18.2898 55.9954" stroke="#39276F" stroke-linecap="round" stroke-linejoin="round"/>
<path id="Vector_67" d="M41.3306 81.2186C40.9326 82.7191 38.6989 86.0125 40.4147 90.2328C41.2938 92.394 41.8023 95.5456 40.6137 96.3387" stroke="#39276F" stroke-linecap="round" stroke-linejoin="round"/>
<path id="Vector_68" d="M33.5149 84.3902C33.7975 83.7534 34.8248 81.4301 35.7427 79.266" stroke="#39276F" stroke-linecap="round" stroke-linejoin="round"/>
<path id="Vector_69" d="M33.8169 84.1066C31.7065 85.1101 37.3402 95.4272 39.9242 96.3685C40.6381 96.6287 40.9794 96.1198 40.951 95.3621C40.8336 92.2099 35.4482 83.3325 33.8169 84.1066Z" stroke="#39276F" stroke-linecap="round" stroke-linejoin="round"/>
<path id="Vector_70" d="M17.2327 54.6944C17.3621 54.6357 17.5045 54.6113 17.6462 54.6238C17.7878 54.6362 17.9237 54.6855 18.0407 54.7666C18.1576 54.8471 18.2516 54.9571 18.3134 55.085C18.3752 55.2133 18.4028 55.3551 18.3934 55.4969C18.2371 57.4869 14.5402 60.8958 12.8781 60.6948C12.3806 60.6341 12.0652 60.2823 12.2313 59.6127" stroke="#39276F" stroke-linecap="round" stroke-linejoin="round"/>
<path id="Vector_71" d="M41.7823 77.8361L44.6793 68.6737C45.182 67.2419 45.3938 65.724 45.3022 64.2091C44.9007 57.6496 44.4151 52.5801 43.2351 47.9648" stroke="#39276F" stroke-linecap="round" stroke-linejoin="round"/>
<path id="Vector_72" d="M36.1293 75.3566C38.272 76.9869 40.8672 77.9137 43.5579 78.0093" stroke="#39276F" stroke-linecap="round" stroke-linejoin="round"/>
<path id="Vector_73" d="M15.2123 62.9255C18.0724 62.0097 19.6773 59.9405 20.64 57.2431" stroke="#39276F" stroke-linecap="round" stroke-linejoin="round"/>
<path id="Vector_74" d="M35.5159 57.5356L27.4832 64.6529C26.8225 65.2414 25.9694 65.5683 25.0846 65.5718C24.1998 65.5752 23.3441 65.2554 22.6789 64.6718L18.4407 60.9525" stroke="#39276F" stroke-linecap="round" stroke-linejoin="round"/>
<path id="Vector_75" d="M36.875 50.4751C36.7526 50.494 36.573 52.8731 36.8939 53.8358C37.5077 54.684 38.2923 55.3949 39.1973 55.9218C39.715 55.0596 40.3364 54.2636 41.0475 53.5527C40.953 52.3537 40.8396 51.7214 40.7078 50.4562C39.437 50.6378 38.1474 50.6443 36.875 50.4751Z" stroke="#39276F" stroke-linecap="round" stroke-linejoin="round"/>
<path id="Vector_76" d="M31.5235 49.994C32.008 50.001 32.4838 50.1239 32.911 50.3527C32.0424 50.7771 31.1648 52.9397 31.1648 52.9397L29.2295 53.8651" stroke="#39276F" stroke-linecap="round" stroke-linejoin="round"/>
<path id="Vector_77" d="M92.9338 19.155C94.4263 19.6267 95.2562 20.3913 96.2173 21.6186" stroke="#39276F" stroke-linecap="round" stroke-linejoin="round"/>
<path id="Vector_78" d="M92.5662 19.855C93.087 20.3836 93.492 21.015 93.7552 21.7088C94.0184 22.4026 94.1338 23.1437 94.095 23.8847" stroke="#39276F" stroke-linecap="round" stroke-linejoin="round"/>
<path id="Vector_79" d="M95.4352 20.6853C96.0143 19.9223 96.4989 19.0919 96.878 18.2122C97.5745 16.5794 98.0013 17.0327 97.6143 18.5804C97.5103 18.9958 97.4068 19.3545 97.3123 19.6565C97.0397 20.5251 96.771 21.4022 96.5193 22.2808C96.2521 23.2141 94.4795 27.1608 94.4795 27.1608C92.8184 26.717 91.0911 25.5091 89.7413 24.3952C89.7697 24.3385 90.4876 23.0176 90.515 22.9698C90.6612 22.7058 90.7234 22.4035 90.6931 22.1032C90.6627 21.803 90.5413 21.5192 90.3453 21.2898C89.6627 20.4709 88.7488 19.25 89.0518 18.9202C89.5219 18.4093 91.0055 20.1371 91.7985 20.242C92.0816 20.2794 92.3084 19.4207 92.3552 19.1092C92.4408 18.5431 92.7388 16.6168 92.7612 16.4287C92.9666 14.6785 93.592 14.975 93.5825 16.5227C93.5731 17.9953 93.5731 18.9485 93.5731 18.9485" stroke="#39276F" stroke-linecap="round" stroke-linejoin="round"/>
<path id="Vector_80" d="M93.4532 19.3261C93.4532 19.3261 94.4826 16.0984 94.5477 15.881C95.0597 14.1919 95.5965 14.5785 95.3408 16.0979C95.096 17.5521 94.8308 19.3261 94.8308 19.3261" stroke="#39276F" stroke-linecap="round" stroke-linejoin="round"/>
<path id="Vector_81" d="M94.5786 19.8456C95.0711 18.8584 95.506 17.8434 95.8811 16.8058C96.493 15.1442 96.9427 15.5685 96.6552 17.0799C96.4975 18.0196 96.2736 18.9469 95.985 19.855" stroke="#39276F" stroke-linecap="round" stroke-linejoin="round"/>
<path id="Vector_82" d="M84.2972 48.8234C84.3231 49.0488 84.3037 49.277 84.2405 49.4949C84.1773 49.7128 84.0718 49.9161 83.93 50.093C83.7878 50.2701 83.6121 50.4169 83.4131 50.5254C83.2141 50.6343 82.9952 50.7025 82.7699 50.7259C82.544 50.7497 82.3162 50.7283 82.0987 50.6637C81.8813 50.5985 81.6789 50.4915 81.5032 50.3478C81.3276 50.204 81.1824 50.0274 81.0754 49.8272C80.9684 49.6272 80.9023 49.4079 80.8804 49.1821L80.6068 46.5951C80.5635 46.1442 80.6998 45.6943 80.9863 45.3435C81.2734 44.9927 81.6868 44.7693 82.1376 44.7221C82.5878 44.6748 83.039 44.8073 83.3923 45.091C83.7455 45.3746 83.9723 45.7863 84.0236 46.2364L84.2972 48.8234Z" stroke="#39276F" stroke-linecap="round" stroke-linejoin="round"/>
<path id="Vector_83" d="M79.4834 48.1438L79.6152 49.4179C79.656 49.8096 79.7739 50.1896 79.9615 50.5358C80.1491 50.8821 80.4033 51.188 80.7092 51.4358C81.0147 51.684 81.3669 51.8691 81.744 51.9815C82.1216 52.0935 82.5177 52.1303 82.9092 52.0895C83.3012 52.0482 83.6808 51.9308 84.0271 51.7432C84.3733 51.5552 84.6793 51.3015 84.9275 50.9955C85.1753 50.6895 85.3609 50.3378 85.4728 49.9602C85.5847 49.5827 85.6216 49.1867 85.5808 48.7951L85.4489 47.521" stroke="#39276F" stroke-linecap="round" stroke-linejoin="round"/>
<path id="Vector_84" d="M82.9097 52.0895L83.1644 54.4681" stroke="#39276F" stroke-linecap="round" stroke-linejoin="round"/>
<path id="Vector_85" d="M81.8903 54.6004L84.4295 54.3357" stroke="#39276F" stroke-linecap="round" stroke-linejoin="round"/>
<path id="Vector_86" d="M62.134 61.8684L65.1832 63.2937L64.6355 56.8182L61.8699 58.7436" stroke="#39276F" stroke-linecap="round" stroke-linejoin="round"/>
<path id="Vector_87" d="M59.2461 56.6959C59.8615 56.6421 60.4739 56.8232 60.961 57.2033C61.448 57.5834 61.7729 58.1336 61.8699 58.7436L62.1246 61.6788C62.153 61.9992 62.1177 62.3221 62.0212 62.629C61.9246 62.936 61.7684 63.2211 61.5615 63.4673C61.3545 63.7136 61.1013 63.9171 60.8157 64.0653C60.5301 64.2136 60.2177 64.3041 59.8973 64.3315L54.0074 64.822C53.6865 64.8514 53.3632 64.817 53.0557 64.721C52.7487 64.6245 52.4632 64.4683 52.2169 64.2613C51.9702 64.0544 51.7667 63.8002 51.6189 63.5141C51.4712 63.228 51.3811 62.9156 51.3548 62.5947L51.1189 59.8585C51.0896 59.5376 51.1239 59.2142 51.2199 58.9072C51.3164 58.5998 51.4722 58.3142 51.6796 58.068C51.8866 57.8212 52.1403 57.6177 52.4264 57.47C52.7129 57.3222 53.0254 57.2322 53.3462 57.2058L59.2461 56.6959Z" stroke="#39276F" stroke-linecap="round" stroke-linejoin="round"/>
<path id="Vector_88" d="M75.5188 7.80106C75.4601 7.07103 75.1437 6.38572 74.6258 5.86778C74.1079 5.34978 73.4229 5.03296 72.6925 4.97396C71.9627 4.91496 71.2354 5.11764 70.6413 5.54574C70.0468 5.97384 69.6245 6.5994 69.4493 7.31053C70.2244 7.66808 70.905 8.2015 71.4378 8.86845C71.9707 9.53535 72.3403 10.3174 72.5174 11.1522C72.9388 11.1425 73.3537 11.0464 73.7368 10.8699C74.1199 10.6935 74.4622 10.4404 74.7437 10.1264C75.0248 9.8124 75.2387 9.444 75.3721 9.04406C75.5054 8.64412 75.5552 8.22105 75.5188 7.80106Z" stroke="#39276F" stroke-linecap="round" stroke-linejoin="round"/>
<path id="Vector_89" d="M72.6024 11.8318C72.4835 10.4018 71.8089 9.07551 70.7229 8.13752C69.6373 7.19953 68.2269 6.72467 66.7946 6.81487C65.3628 6.90506 64.0231 7.55311 63.0634 8.61995C62.1042 9.68678 61.6007 11.0873 61.6624 12.5208C62.7992 12.2127 63.9678 12.0352 65.1449 11.992C65.2086 12.3787 65.2967 12.7608 65.4091 13.1363C65.5131 13.3721 65.6733 13.391 65.9563 12.9567C66.5892 12.0413 67.8727 13.4571 66.3718 14.5521C67.0195 15.6733 67.8424 16.6836 68.8095 17.5446C69.995 17.1623 71.0159 16.3891 71.705 15.3513C72.3935 14.3136 72.7104 13.0728 72.6024 11.8318Z" stroke="#39276F" stroke-linecap="round" stroke-linejoin="round"/>
<path id="Vector_90" d="M9.39807 43.6887L11.3707 43.4902" stroke="#39276F" stroke-linecap="round" stroke-linejoin="round"/>
<path id="Vector_91" d="M14.863 43.1315L16.8361 42.9335" stroke="#39276F" stroke-linecap="round" stroke-linejoin="round"/>
<path id="Vector_92" d="M12.7393 39.5918L12.9378 41.5649" stroke="#39276F" stroke-linecap="round" stroke-linejoin="round"/>
<path id="Vector_93" d="M13.2965 45.0573L13.4945 47.0299" stroke="#39276F" stroke-linecap="round" stroke-linejoin="round"/>
<path id="Vector_94" d="M10.2194 40.9515L11.7576 42.1972" stroke="#39276F" stroke-linecap="round" stroke-linejoin="round"/>
<path id="Vector_95" d="M14.4761 44.4156L16.0148 45.6708" stroke="#39276F" stroke-linecap="round" stroke-linejoin="round"/>
<path id="Vector_96" d="M15.4769 40.4132L14.2307 41.9519" stroke="#39276F" stroke-linecap="round" stroke-linejoin="round"/>
<path id="Vector_97" d="M12.0124 44.6703L10.7572 46.2091" stroke="#39276F" stroke-linecap="round" stroke-linejoin="round"/>
<path id="Vector_98" d="M55.1024 21.0913L53.9582 18.2973C54.6576 17.2574 54.9959 16.0163 54.9208 14.7651C54.7134 11.4816 51.6642 8.9319 48.0304 9.03588C44.3206 9.13936 41.3948 11.9711 41.4983 15.3601C41.6013 18.9376 44.9479 21.4987 48.6041 21.2833C49.9137 21.2007 51.1766 20.7651 52.2587 20.0227L55.1024 21.0913Z" stroke="#39276F" stroke-linecap="round" stroke-linejoin="round"/>
<path id="Vector_99" d="M33.3547 19.6659C33.1802 19.8331 32.96 19.9448 32.722 19.9868C32.4841 20.0289 32.239 19.9994 32.0177 19.9022C31.7965 19.8049 31.609 19.6442 31.4791 19.4404C31.3492 19.2366 31.2827 18.9988 31.2879 18.7572C31.2931 18.5156 31.3699 18.281 31.5085 18.083C31.647 17.885 31.8412 17.7325 32.0665 17.6449C32.2917 17.5573 32.5379 17.5384 32.7738 17.5907C33.0097 17.643 33.2249 17.7641 33.3921 17.9386C33.6154 18.173 33.7368 18.4863 33.7298 18.81C33.7228 19.1337 33.588 19.4414 33.3547 19.6659Z" stroke="#39276F" stroke-linecap="round" stroke-linejoin="round"/>
<path id="Vector_100" d="M83.8346 3.56287L84.2595 8.71697" stroke="#39276F" stroke-linecap="round" stroke-linejoin="round"/>
<path id="Vector_101" d="M86.6285 5.92252L81.4749 6.35683" stroke="#39276F" stroke-linecap="round" stroke-linejoin="round"/>
<path id="Vector_102" d="M13.5795 60.6127C13.2203 60.1724 12.7567 59.8286 12.2308 59.6127C11.3154 59.2819 10.4174 59.5744 9.35078 59.8769C7.20158 60.4739 4.89765 61.7704 3.68872 60.8754" stroke="#39276F" stroke-linecap="round" stroke-linejoin="round"/>
<path id="Vector_103" d="M35.6198 61.3679L35.5159 57.5356" stroke="#39276F" stroke-linecap="round" stroke-linejoin="round"/>
</g>
</g>
</g>
</svg>
