<svg xmlns="http://www.w3.org/2000/svg" width="120" height="120" viewBox="0 0 120 120" fill="none">
  <path d="M25.5853 94.2785C25.4598 93.9018 25.4121 93.503 25.4453 93.1072C25.4784 92.7114 25.5917 92.3263 25.7782 91.9759C24.1977 90.6249 22.438 89.4989 20.549 88.6297C19.1759 90.0661 17.4649 92.1317 16.8058 92.8266C17.9401 92.078 28.3417 99.5303 28.75 101.391C28.9429 98.8271 26.3041 96.5316 25.5853 94.2785Z" fill="#9CE49A"/>
  <path d="M55.8031 90.093C55.3507 89.5599 55.1194 88.8739 55.1565 88.176C53.1966 87.8512 51.2038 87.7706 49.2241 87.9372C49.1987 88.5712 49.1389 89.204 49.045 89.8315C48.8295 91.2046 48.5233 91.7485 48.3077 93.0302C48.6367 91.7938 61.4089 94.0851 61.9987 95.5143C61.5426 92.7699 57.4251 92.0893 55.8031 90.093Z" fill="#9CE49A"/>
  <path d="M109.841 73.5548C109.172 73.0772 107.573 72.1029 105.483 70.8552L95.7519 72.9083L92.8947 59.4442L94.4941 59.1039C93.2368 50.6724 92.9944 49.3501 91.9305 44.8571C88.8345 48.1597 81.3475 49.8539 78.1261 48.9519C78.2109 49.2062 78.2736 49.3698 78.5571 50.0522C73.3035 61.5199 72.4886 63.6184 72.3298 65.5013C72.1507 67.7102 72.3865 69.1878 76.6061 85.5784C79.1732 86.2948 83.4639 85.0877 84.8638 83.6047C83.6842 78.5117 82.4818 73.4414 81.1774 66.8058C81.338 66.3628 81.5278 65.9312 81.7445 65.5127C82.8884 62.1802 83.6269 58.7221 83.9451 55.2132C86.0513 64.7592 86.6704 68.0123 88.1193 69.6302C89.5825 71.2522 91.2834 72.2844 105.44 80.2568C107.563 79.7069 110.208 75.9106 109.841 73.5548Z" fill="#9CE49A"/>
  <path d="M28.5459 69.2445C21.6601 70.094 20.6058 70.2158 14.7414 70.98L26.8557 79.4622C27.3787 78.9332 29.8318 76.4509 30.3494 75.9118C30.0748 75.0444 28.9823 70.9889 28.5459 69.2445Z" fill="#9CE49A"/>
  <path d="M18.893 67.9174C18.893 67.9108 18.9157 65.7849 18.9157 65.7849C18.3687 65.8649 17.8745 66.1551 17.5378 66.5932C17.2011 67.0314 17.0484 67.5837 17.1121 68.1329L17.3957 70.1627L19.1652 69.9359L18.893 67.9174Z" fill="#9CE49A"/>
  <path d="M26.3889 66.9986C26.3236 66.4822 26.0682 66.0093 25.6725 65.6714C25.233 65.8267 24.7757 65.9258 24.3113 65.9664C24.4075 66.3843 24.4379 66.5323 24.5382 67.0326C24.6313 67.1257 24.6033 67.1054 24.8898 69.2415L26.6593 69.0146L26.3889 66.9986Z" fill="#9CE49A"/>
  <path d="M109.83 74.6664C109.356 76.7864 108.1 78.6496 106.313 79.8842C106.493 82.1982 107.482 87.4727 108.423 88.8906C110.274 86.6787 112.688 78.7159 112.813 75.6646C111.845 75.2575 110.848 74.9237 109.83 74.6664Z" fill="#39276F"/>
  <path d="M84.2173 84.1492C82.3607 85.2483 80.2383 85.8167 78.0808 85.794C76.3811 87.9694 75.051 90.41 74.1447 93.0177C77.07 92.6887 83.6502 89.7395 85.828 87.505C85.4113 86.3325 84.8716 85.2077 84.2173 84.1492Z" fill="#39276F"/>
  <path d="M28.1507 101.689C25.6242 101.074 15.7623 94.5621 16.7265 92.8947C17.5951 91.8523 27.3925 98.8945 28.6169 101.094C28.8963 101.601 28.7554 101.837 28.1507 101.689Z" fill="#39276F"/>
  <path d="M56.4305 93.54C52.8605 92.798 48.8188 92.3651 48.3549 92.9657C47.3615 94.2505 54.5106 95.4731 56.1249 95.6827C58.7935 96.0325 61.2668 96.1233 61.8847 95.8086C63.1569 95.1633 57.9141 93.8499 56.4305 93.54Z" fill="#39276F"/>
  <path d="M57.4251 89.4577C57.4025 89.0494 56.858 88.5276 55.1679 88.1873C55.1254 88.8864 55.3574 89.5741 55.8144 90.1043C56.9601 90.1043 57.4478 89.798 57.4251 89.4577Z" fill="#39276F"/>
  <path d="M47.4773 88.8225C47.432 89.3102 48.0105 89.6505 49.054 89.8434C49.1448 89.2082 49.2015 88.5843 49.2331 87.9491C48.0331 88.0966 47.5227 88.4171 47.4773 88.8225Z" fill="#39276F"/>
  <path d="M20.5491 88.6184C20.0613 89.1175 19.4745 89.7867 18.8817 90.4559C17.9969 89.73 17.6877 88.9133 18.0082 88.4823L18.0763 88.4029C18.4052 88.0966 19.2106 88.0626 20.5491 88.6184Z" fill="#39276F"/>
  <path d="M25.7919 91.9759C27.1984 93.1782 27.7334 94.0654 27.5501 94.4487C27.3931 94.7782 26.7107 94.7663 25.5877 94.2785C25.4572 93.9018 25.408 93.5024 25.4432 93.1054C25.4784 92.7084 25.5972 92.3233 25.7919 91.9759Z" fill="#39276F"/>
  <path d="M78.3279 49.5077C77.5864 47.4337 78.2515 49.4659 76.3656 44.1311C76.6742 46.3782 76.7918 48.6473 76.7172 50.9142C77.4002 50.3357 77.956 49.8366 78.3279 49.5077Z" fill="#39276F"/>
  <path d="M91.5216 43.1896C88.7426 46.3537 80.6562 48.4074 77.5244 47.3752C77.7399 47.965 77.9423 48.5095 78.1142 48.9632C81.4049 49.8844 88.8751 48.1035 91.9186 44.8571C91.7831 44.2899 91.6583 43.7228 91.5216 43.1896Z" fill="#39276F"/>
  <path d="M83.9451 55.2132C83.6269 58.7221 82.8884 62.1802 81.7446 65.5126C82.3344 64.3443 83.3212 62.6655 84.9087 59.5803L83.9451 55.2132Z" fill="#39276F"/>
  <path d="M104.192 49.451C103.968 48.9765 103.785 48.4831 103.648 47.9764C104.334 48.0056 104.7 48.1746 104.842 48.3943C105.103 48.7943 104.694 49.288 104.192 49.451Z" fill="#39276F"/>
  <path d="M98.5435 49.0312C97.7268 49.4056 97.4092 49.7799 97.4206 50.0521C97.4546 50.4038 97.8856 50.6306 98.6683 50.4945C98.851 50.1297 98.6182 49.433 98.5435 49.0312Z" fill="#39276F"/>
  <path d="M90.49 39.1175C89.5031 38.9814 88.2327 38.8453 86.5653 38.6865C88.145 39.5026 89.6613 40.4353 91.1025 41.4768C90.8649 40.5467 90.6488 39.73 90.49 39.1175Z" fill="#39276F"/>
  <path d="M78.3876 26.9918C78.1733 27.7556 77.8515 28.485 77.4324 29.1583C77.4551 28.8407 77.4551 28.4419 77.4891 27.9446C77.7405 27.6837 78.0354 27.3661 78.3876 26.9918Z" fill="#39276F"/>
  <path d="M77.4796 22.069C77.4115 21.275 77.1506 21.1138 74.8593 20.9687C72.4319 20.7986 72.2505 21.1956 72.5 22.4887C72.6702 23.3621 73.1239 23.6116 74.0427 23.6116C74.6098 23.6116 75.3561 23.5095 76.2999 23.4074C77.0259 24.3262 77.5023 24.8026 77.5023 24.2468C77.5023 23.1919 78.6025 23.2146 78.6252 24.9035C79.0336 25.3214 79.4873 25.8223 79.975 26.3101C79.4759 22.2958 79.3739 22.2391 77.4796 22.069Z" fill="#39276F"/>
  <path d="M78.5912 33.0717C78.861 32.6704 79.0855 32.2405 79.2604 31.7899C78.9201 31.3022 78.6139 30.7917 78.3052 30.2586C78.1011 30.7362 77.8873 31.2228 77.704 31.6992C77.793 32.1746 77.9536 32.6337 78.1816 33.0603C78.0455 34.3421 77.3423 43.5186 77.3423 44.1198C77.7249 44.9156 78.1966 45.6653 78.7488 46.3543C79.3643 45.6843 79.9111 44.9547 80.3822 44.1765C80.1565 42.475 78.7727 33.6842 78.5912 33.0717Z" fill="#39276F"/>
  <path d="M64.2877 51.3339C64.4924 51.1877 64.9115 51.2545 65.5127 51.6515C65.0023 52.0826 64.7074 52.3435 64.4918 52.525C64.0268 51.9465 64.016 51.528 64.2877 51.3339Z" fill="#39276F"/>
  <path d="M69.1084 55.6896C69.4601 56.3463 69.5263 56.7786 69.4034 56.9941C69.395 57.0174 69.3789 57.0374 69.358 57.0508C69.1538 57.2663 68.6207 57.1529 68.0309 56.6424C68.4505 56.2681 69.1084 55.6896 69.1084 55.6896Z" fill="#39276F"/>
  <path d="M18.6208 60.8394C18.5981 61.1683 18.5867 61.5313 18.5867 61.9056C17.7587 61.9396 17.3677 61.7928 17.3503 61.5766C17.3342 61.3731 17.7473 61.0776 18.6208 60.8394Z" fill="#39276F"/>
  <path d="M24.9955 60.8166C25.0296 61.0208 24.7346 61.2704 23.8385 61.4065C23.6516 61.0913 23.5609 60.7289 23.5777 60.3629C24.4851 60.4178 24.9615 60.6125 24.9955 60.8166Z" fill="#39276F"/>
  <path d="M38.3576 45.8893C38.0973 49.0719 38.0047 52.4426 37.9397 53.9768C32.7565 54.1016 28.3787 54.907 26.371 56.3816C26.3823 56.9941 26.3937 57.5953 26.4277 58.1726C29.4456 55.9863 36.0293 55.6102 39.7671 55.541C39.1564 53.2784 38.6907 48.9656 38.3576 45.8893Z" fill="#39276F"/>
  <path d="M26.8558 48.4415C26.7877 49.0313 26.731 49.6098 26.6856 50.1656C26.1412 50.3447 25.4266 50.5734 24.7233 50.7895C23.986 51.0157 23.26 51.2205 22.761 51.368C24.1745 50.4623 25.5412 49.4856 26.8558 48.4415Z" fill="#39276F"/>
  <path d="M42.044 35.5558C42.0082 35.613 41.9663 35.6663 41.9193 35.7146C41.6411 36.0042 40.7539 35.9648 39.9599 35.84C39.79 35.3661 39.6971 34.8681 39.6847 34.3648C40.6602 35.3403 41.6584 36.1116 42.044 35.5558Z" fill="#39276F"/>
  <path d="M42.339 27.6837C42.407 26.436 40.853 26.6856 40.7271 27.3888C40.6336 27.2249 40.489 27.0961 40.3154 27.0223C40.1418 26.9484 39.9487 26.9335 39.7658 26.9798C39.5829 27.0262 39.4202 27.1312 39.3027 27.2788C39.1851 27.4264 39.1193 27.6085 39.1152 27.7972C38.5594 27.1405 37.4251 27.3793 37.6179 28.3757C36.8352 27.6157 34.8275 28.0694 38.0358 34.206C38.705 33.6388 39.3176 33.083 39.8507 32.5839C38.9432 31.166 39.9868 30.4944 40.4519 31.4156C40.7014 31.9033 41.1683 31.858 41.1086 30.4855C41.4754 30.3909 41.8324 30.2618 42.1748 30.0998C42.851 29.8007 43.4262 29.3122 43.8309 28.6933C44.4261 27.7405 43.2804 26.6062 42.339 27.6837Z" fill="#39276F"/>
  <path d="M39.4352 68.7114C40.1271 74.4849 40.2972 76.6061 40.2632 77.8084C38.8783 73.8951 37.2759 70.0624 35.4633 66.3281C36.554 67.0099 37.8698 67.7812 39.4352 68.7114Z" fill="#39276F"/>
  <path d="M105.349 54.2604L105.79 56.3582L107.537 55.9839L107.015 53.5452C106.924 53.1245 106.684 52.7504 106.341 52.4904C105.998 52.2304 105.573 52.1016 105.143 52.1273C105.3 52.827 105.369 53.5436 105.349 54.2604Z" fill="#39276F"/>
  <path d="M99.3035 53.353L99.1901 53.3757C98.9584 53.423 98.7381 53.516 98.5423 53.6493C98.3471 53.7825 98.1799 53.9534 98.051 54.1519C97.9226 54.3504 97.8343 54.5725 97.7925 54.8053C97.7501 55.0382 97.7549 55.2771 97.8062 55.5081L98.3053 57.9469L100.052 57.5726C100.032 57.4753 99.3704 53.5524 99.3035 53.353Z" fill="#39276F"/>
  <path d="M105.349 54.2604L105.859 56.675L107.605 56.3007L107.015 53.5452C106.924 53.1245 106.684 52.7504 106.341 52.4904C105.998 52.2304 105.573 52.1016 105.143 52.1273C105.3 52.827 105.369 53.5436 105.349 54.2604Z" stroke="#39276F" stroke-linejoin="round"/>
  <path d="M99.3035 53.353L99.1901 53.3757C98.9584 53.423 98.7381 53.516 98.5423 53.6493C98.3471 53.7826 98.1799 53.9534 98.051 54.1519C97.9226 54.3504 97.8343 54.5725 97.7925 54.8054C97.7501 55.0382 97.7549 55.2772 97.8062 55.5081L98.3674 58.2774L100.114 57.9031C100.094 57.8058 99.3704 53.5524 99.3035 53.353Z" stroke="#39276F" stroke-linejoin="round"/>
  <path d="M18.0649 58.9904C18.5073 58.7869 18.5073 59.7618 18.1443 59.8752C17.7814 59.9886 17.7921 59.1158 18.0649 58.9904Z" fill="#39276F"/>
  <path d="M53.9655 59.4895C54.196 59.0489 55.1321 59.1027 54.941 59.5349C54.75 59.9671 53.6861 60.025 53.9655 59.4895Z" fill="#39276F"/>
  <path d="M70.0045 55.1565C70.0953 55.6216 70.9299 54.9774 70.7872 54.5893C70.6445 54.2013 69.9025 54.6347 70.0045 55.1565Z" fill="#39276F"/>
  <path d="M103.183 45.7645C103.625 45.7591 103.899 46.774 103.353 46.7627C102.807 46.7513 102.706 45.7699 103.183 45.7645Z" fill="#39276F"/>
  <path d="M113.516 55.8807L113.63 63.3432C113.631 63.3802 113.619 63.416 113.596 63.4453C113.574 63.4739 113.541 63.4942 113.505 63.502L110.896 64.0578L111.248 65.6912L109.558 66.0542L109.206 64.4208L100.495 66.2715L100.846 67.9049L99.1561 68.2678L98.805 66.6356L96.1961 67.1914C96.1609 67.1962 96.1245 67.1896 96.0929 67.1735C96.0606 67.1574 96.0344 67.1317 96.017 67.1007L93.0917 60.2352L95.7782 72.9167L116.23 68.5723L113.516 55.8807Z" fill="#39276F"/>
  <path d="M113.187 55.1225L93.0535 59.4102L96.2296 66.8625L98.725 66.3294L98.3847 64.7414L100.075 64.3784L100.415 65.9664L109.127 64.1175L108.798 62.5295L110.488 62.1665L110.828 63.7545L113.312 63.2327L113.187 55.1225Z" fill="#39276F"/>
  <path d="M95.7782 72.9167L92.8977 59.4426L113.346 55.0867L116.23 68.5723L95.7782 72.9167Z" stroke="#39276F" stroke-linecap="round" stroke-linejoin="round"/>
  <path d="M96.3842 58.6911L97.9871 56.4156" stroke="#39276F" stroke-linecap="round" stroke-linejoin="round"/>
  <path d="M104.589 47.0123L116.715 29.6915L95.2994 14.696L85.1021 29.2491" stroke="#39276F" stroke-linecap="round" stroke-linejoin="round"/>
  <path d="M83.4006 77.2754L88.4823 70.0045" stroke="#39276F" stroke-linecap="round" stroke-linejoin="round"/>
  <path d="M35.5899 85.5784L63.7659 105.304L77.4682 85.7486" stroke="#39276F" stroke-linecap="round" stroke-linejoin="round"/>
  <path d="M21.4225 43.7455L18.2804 41.5449L3.285 62.9605L26.8558 79.4646" stroke="#39276F" stroke-linecap="round" stroke-linejoin="round"/>
  <path d="M62.8244 61.0662L57.3457 68.8929L55.4288 67.5544" stroke="#39276F" stroke-linecap="round" stroke-linejoin="round"/>
  <path d="M48.5549 33.3553L54.8616 24.3376L60.8167 28.5005L67.8494 18.4733" stroke="#39276F" stroke-linecap="round" stroke-linejoin="round"/>
  <path d="M63.4142 19.2446L67.8494 18.4733L68.632 22.897" stroke="#39276F" stroke-linecap="round" stroke-linejoin="round"/>
  <path d="M20.9461 31.7219L25.0295 30.9959C27.4599 30.5541 26.7644 26.9578 24.3943 27.3888L22.1144 27.7745C19.6864 28.1882 19.1061 24.5722 21.4792 24.1674L25.5627 23.4415" stroke="#39276F" stroke-linecap="round" stroke-linejoin="round"/>
  <path d="M22.3753 22.6248L24.1334 32.5386" stroke="#39276F" stroke-linecap="round" stroke-linejoin="round"/>
  <path d="M61.4973 76.5721L66.4201 75.6987" stroke="#39276F" stroke-linecap="round" stroke-linejoin="round"/>
  <path d="M63.5277 73.6683L64.3897 78.6025" stroke="#39276F" stroke-linecap="round" stroke-linejoin="round"/>
  <path d="M92.2028 85.9301L99.088 84.7164" stroke="#39276F" stroke-linecap="round" stroke-linejoin="round"/>
  <path d="M95.0385 81.8806L96.2522 88.7772" stroke="#39276F" stroke-linecap="round" stroke-linejoin="round"/>
  <path d="M37.9379 100.46C38.8212 100.46 39.5372 99.7446 39.5372 98.8611C39.5372 97.9775 38.8212 97.2617 37.9379 97.2617C37.0545 97.2617 36.3385 97.9775 36.3385 98.8611C36.3385 99.7446 37.0545 100.46 37.9379 100.46Z" stroke="#39276F" stroke-linecap="round" stroke-linejoin="round"/>
  <path d="M23.0332 83.3427L14.231 84.4429L12.5863 71.2493L28.5572 69.2535" stroke="#39276F" stroke-linecap="round" stroke-linejoin="round"/>
  <path d="M42.17 30.1207C42.8562 29.8238 43.4396 29.3312 43.8476 28.7046C44.4261 27.7494 43.3031 26.6062 42.3503 27.6951C42.4184 26.436 40.8757 26.6969 40.7384 27.4002C40.6441 27.2376 40.4994 27.1101 40.3261 27.0371C40.1529 26.9642 39.9605 26.9497 39.7783 26.9958C39.596 27.042 39.4338 27.1463 39.3162 27.293C39.1986 27.4396 39.132 27.6206 39.1265 27.8085C38.5707 27.1518 37.4364 27.3906 37.6292 28.387C36.8466 27.627 34.8388 28.0808 38.0471 34.2173" stroke="#39276F" stroke-linecap="round" stroke-linejoin="round"/>
  <path d="M39.9599 35.84C39.7932 35.3657 39.704 34.8675 39.696 34.3648C40.5915 35.2693 41.5223 36.0078 41.9611 35.6681" stroke="#39276F" stroke-linecap="round" stroke-linejoin="round"/>
  <path d="M27.491 43.3484C26.2546 52.4682 25.977 57.6418 26.9805 62.5635C27.8945 67.0452 29.5214 73.1011 30.3607 75.9255C26.4587 79.9069 18.8136 87.5408 18.0082 88.4936" stroke="#39276F" stroke-linecap="round" stroke-linejoin="round"/>
  <path d="M18.8816 90.4673C17.9969 89.7413 17.6924 88.9264 18.0082 88.4936C18.4536 87.8835 20.1986 88.0488 23.6117 90.3443C26.6301 92.3741 27.8116 93.9072 27.5477 94.4636C27.3907 94.7932 26.7083 94.7812 25.5854 94.2935" stroke="#39276F" stroke-linecap="round" stroke-linejoin="round"/>
  <path d="M49.0427 89.8434C47.9991 89.6506 47.4153 89.3097 47.466 88.8225C47.5382 88.13 48.986 87.699 52.7859 87.9151C56.3679 88.1187 57.3828 88.89 57.4252 89.4577C57.4502 89.798 56.9601 90.1043 55.8031 90.1043" stroke="#39276F" stroke-linecap="round" stroke-linejoin="round"/>
  <path d="M27.5363 94.4469C39.3898 81.5613 39.9062 80.7326 40.1927 78.6121C40.3486 77.4659 40.3062 76.0259 39.4328 68.6983" stroke="#39276F" stroke-linecap="round" stroke-linejoin="round"/>
  <path d="M16.7378 92.9061C17.4643 91.6583 29.5554 100.392 28.716 101.652C28.0605 102.638 15.6608 94.7556 16.7378 92.9061Z" stroke="#39276F" stroke-linecap="round" stroke-linejoin="round"/>
  <path d="M48.3054 93.0649C48.4158 91.7037 62.2226 94.2218 62.0191 95.6397C61.8597 96.7513 48.1424 95.072 48.3054 93.0649Z" stroke="#39276F" stroke-linecap="round" stroke-linejoin="round"/>
  <path d="M20.549 88.6183C19.3353 89.8774 17.3957 92.2003 16.7378 92.8947" stroke="#39276F" stroke-linecap="round" stroke-linejoin="round"/>
  <path d="M25.7919 91.9759C24.0564 95.1179 29.2629 98.1011 28.7172 101.651" stroke="#39276F" stroke-linecap="round" stroke-linejoin="round"/>
  <path d="M48.3054 93.0649C48.6003 91.284 49.0767 90.9324 49.2355 87.9492" stroke="#39276F" stroke-linecap="round" stroke-linejoin="round"/>
  <path d="M55.1679 88.1873C54.9888 91.9192 61.5767 92.0439 62.0304 95.6397" stroke="#39276F" stroke-linecap="round" stroke-linejoin="round"/>
  <path d="M47.4773 88.8226C47.6248 85.0794 47.1711 74.9841 46.9896 73.3394C36.0323 66.3181 31.8127 65.0023 31.1321 61.9056" stroke="#39276F" stroke-linecap="round" stroke-linejoin="round"/>
  <path d="M57.4251 89.4577C56.7332 71.2636 56.5296 69.1544 55.0998 67.0213C53.7034 64.9348 52.5476 64.0494 46.4565 60.3176" stroke="#39276F" stroke-linecap="round" stroke-linejoin="round"/>
  <path d="M17.3503 61.5767C16.6698 52.4909 16.7384 48.9555 18.1897 46.8063C20.2792 43.7216 26.3453 40.3742 32.7314 38.6871C40.7509 36.5654 44.0064 36.8609 45.4696 38.1767C46.6636 39.2548 47.0218 40.9455 47.3752 52.1494C49.5698 52.4091 54.6694 53.0241 55.701 53.2061C57.1643 54.4879 57.4138 58.8776 55.701 60.4997C47.6929 60.4997 44.0392 60.4107 42.4297 59.3994C39.9438 57.8371 39.4805 56.3481 38.3462 45.9012C38.0859 49.0779 37.9838 52.4342 37.9283 53.9727" stroke="#39276F" stroke-linecap="round" stroke-linejoin="round"/>
  <path d="M46.7173 52.0712L47.374 52.1488" stroke="#39276F" stroke-linecap="round" stroke-linejoin="round"/>
  <path d="M18.5754 61.9056C17.7473 61.9283 17.3605 61.7922 17.339 61.5766C17.3038 61.225 18.4846 60.6662 21.0141 60.4197C23.6003 60.1671 24.9275 60.465 24.9842 60.8053C25.0182 61.0095 24.7233 61.259 23.8272 61.3952" stroke="#39276F" stroke-linecap="round" stroke-linejoin="round"/>
  <path d="M26.6874 50.1656C25.5644 50.5399 23.7269 51.0957 22.7627 51.3596C24.1805 50.4643 25.5476 49.4911 26.8575 48.4445" stroke="#39276F" stroke-linecap="round" stroke-linejoin="round"/>
  <path d="M24.9955 60.8167C24.8821 58.4346 24.7233 53.3643 24.7233 50.787" stroke="#39276F" stroke-linecap="round" stroke-linejoin="round"/>
  <path d="M17.1354 58.4914C18.1222 57.0735 23.9072 56.5744 24.86 57.5362" stroke="#39276F" stroke-linecap="round" stroke-linejoin="round"/>
  <path d="M52.3321 52.7518C53.7614 54.0563 53.6252 59.0132 51.8104 60.4878" stroke="#39276F" stroke-linecap="round" stroke-linejoin="round"/>
  <path d="M26.4247 58.1737C28.7608 56.4842 33.658 55.6222 39.7575 55.5422" stroke="#39276F" stroke-linecap="round" stroke-linejoin="round"/>
  <path d="M26.368 56.3816C28.556 54.7697 33.5917 53.9548 39.4047 53.9542" stroke="#39276F" stroke-linecap="round" stroke-linejoin="round"/>
  <path d="M23.5776 60.3516C23.559 60.7612 23.6788 61.1647 23.9179 61.4973C24.097 61.7241 25.291 62.7886 25.5513 63.176C25.8379 63.6053 25.9824 65.4106 25.7555 65.6034C25.4606 65.8536 23.4756 66.0572 22.6815 66.0572C22.1144 66.0572 22.2505 65.093 24.1221 64.6166C22.5699 64.7073 21.5246 64.2536 21.2637 62.9038" stroke="#39276F" stroke-linecap="round" stroke-linejoin="round"/>
  <path d="M18.6207 60.8394C18.5301 62.5068 18.5604 64.1784 18.7115 65.8416" stroke="#39276F" stroke-linecap="round" stroke-linejoin="round"/>
  <path d="M20.2201 65.9891C20.1604 64.9569 21.3902 64.8208 21.5132 65.81C21.6051 66.5473 21.6505 67.0691 21.706 67.6607C21.7436 67.8398 21.7086 68.026 21.6086 68.1795C21.5086 68.3323 21.3519 68.4398 21.1729 68.4774C20.9939 68.515 20.8073 68.4798 20.6541 68.3801C20.501 68.2798 20.3938 68.1234 20.3562 67.9443C20.2774 67.2953 20.232 66.6428 20.2201 65.9891Z" stroke="#39276F" stroke-linecap="round" stroke-linejoin="round"/>
  <path d="M24.3149 65.9437C24.417 66.4213 24.4994 66.8052 24.5872 67.2255C24.6288 67.3956 24.6044 67.5753 24.5187 67.7276C24.433 67.8804 24.2925 67.995 24.1257 68.0482C23.9589 68.1013 23.7781 68.0887 23.6199 68.0135C23.4618 67.9389 23.3381 67.8064 23.2738 67.6434C23.1414 67.121 23.0428 66.5903 22.9789 66.0554" stroke="#39276F" stroke-linecap="round" stroke-linejoin="round"/>
  <path d="M18.9157 65.9891C18.9157 64.9909 20.1097 64.9229 20.1747 65.887C20.2225 66.6034 20.2344 67.1121 20.2541 67.678C20.276 67.8517 20.2292 68.0267 20.1239 68.1664C20.0185 68.3061 19.8628 68.3992 19.6899 68.4255C19.517 68.4523 19.3405 68.4105 19.198 68.3091C19.0556 68.2076 18.9583 68.0541 18.927 67.8822C18.8709 67.407 18.9157 66.8966 18.9157 65.9891Z" stroke="#39276F" stroke-linecap="round" stroke-linejoin="round"/>
  <path d="M22.9538 66.0571C23.0445 66.6016 23.103 67.0326 23.1693 67.509C23.2094 67.6875 23.1787 67.8744 23.0834 68.0302C22.9882 68.186 22.836 68.2989 22.6591 68.3442C22.4822 68.3902 22.2944 68.3651 22.1356 68.275C21.9768 68.1848 21.8594 68.0362 21.8081 67.8607C21.6994 67.2034 21.6237 66.5407 21.5813 65.8756C21.4893 64.9909 22.3526 64.7187 22.7383 65.2404" stroke="#39276F" stroke-linecap="round" stroke-linejoin="round"/>
  <path d="M61.4519 60C61.5856 59.0579 60.5283 58.7851 60.2949 59.6711C60.2024 60.0221 60.08 60.4991 60 60.8651C59.9581 61.0262 59.9813 61.1982 60.0645 61.3427C60.1481 61.4871 60.2848 61.5928 60.4454 61.6376C60.606 61.6823 60.7779 61.662 60.9236 61.5809C61.0692 61.5003 61.1779 61.3653 61.225 61.2053C61.3212 60.8077 61.397 60.4054 61.4519 60Z" stroke="#39276F" stroke-linecap="round" stroke-linejoin="round"/>
  <path d="M60.2496 59.7164C60.4937 58.7791 59.3833 58.4334 59.0926 59.3194C58.9773 59.6704 58.8156 60.1689 58.7409 60.4197C58.4753 61.311 59.6836 61.702 59.9319 60.9188C60.0687 60.4877 60.1755 60 60.2496 59.7164Z" stroke="#39276F" stroke-linecap="round" stroke-linejoin="round"/>
  <path d="M59.0245 59.4442C59.3105 58.5451 58.3236 58.1636 57.9129 58.9904C57.8 59.2179 57.6263 59.6245 57.4705 60.034C57.3953 60.1844 57.3829 60.3588 57.4361 60.5182C57.4893 60.6776 57.6037 60.8095 57.7541 60.8847C57.9045 60.9599 58.0786 60.9725 58.2382 60.9193C58.3977 60.8662 58.5296 60.7516 58.6048 60.6011C58.7266 60.3391 58.9308 59.7379 59.0245 59.4442Z" stroke="#39276F" stroke-linecap="round" stroke-linejoin="round"/>
  <path d="M62.6429 60.1701C62.6734 59.2513 61.6758 59.0358 61.5086 59.9092C61.4394 60.2722 61.3355 60.9838 61.3158 61.1796C61.323 61.3259 61.3815 61.4644 61.4812 61.5719C61.5809 61.6787 61.7152 61.7474 61.8603 61.7647C62.0059 61.7826 62.1528 61.748 62.2752 61.668C62.3976 61.588 62.4877 61.4674 62.5295 61.3271C62.5892 60.9438 62.6268 60.5576 62.6429 60.1701Z" stroke="#39276F" stroke-linecap="round" stroke-linejoin="round"/>
  <path d="M53.6933 87.9945C53.2157 72.5794 53.387 70.0612 52.2641 68.3938C50.6755 66.0345 48.7675 64.9849 39.9002 59.7278C38.4477 58.8669 38.0173 57.9015 37.9492 55.6085" stroke="#39276F" stroke-linecap="round" stroke-linejoin="round"/>
  <path d="M35.4633 66.3181C37.2702 70.0583 38.8725 73.894 40.2632 77.8085" stroke="#39276F" stroke-linecap="round" stroke-linejoin="round"/>
  <path d="M74.054 23.6003C74.8367 28.0778 75.0635 28.7494 75.7668 28.8294C76.4587 28.9082 76.8897 28.6252 78.3984 26.9918C78.2294 27.7763 77.9082 28.5199 77.4527 29.1804" stroke="#39276F" stroke-linecap="round" stroke-linejoin="round"/>
  <path d="M77.4796 22.069C77.4002 21.2863 77.1393 21.1275 74.8707 20.9687C72.4433 20.7986 72.2618 21.1956 72.5113 22.4887C72.7722 23.9065 73.8158 23.6797 76.2999 23.4074C77.0258 24.3262 77.5022 24.814 77.5022 24.2468C77.5022 23.1919 78.6025 23.2146 78.6252 24.9035C79.0162 25.4512 79.47 25.952 79.9756 26.396C79.4759 22.3758 79.375 22.2391 77.4796 22.069Z" stroke="#39276F" stroke-linecap="round" stroke-linejoin="round"/>
  <path d="M77.4808 27.9476C77.5578 28.9625 77.4306 30.1924 76.6969 30.6103C74.5531 31.8466 73.6922 32.3463 72.9651 33.3779C71.5723 35.3534 71.6606 36.6674 71.3997 45.4469C68.7681 47.7155 65.4894 50.2677 64.2877 51.3453" stroke="#39276F" stroke-linecap="round" stroke-linejoin="round"/>
  <path d="M64.4918 52.525C64.0142 51.9465 64.0142 51.5298 64.2877 51.3453C64.6644 51.0886 65.7491 51.5053 67.407 53.3984C69.186 55.4282 69.638 56.5953 69.4034 57.0054C69.2422 57.2878 68.6661 57.2096 68.0303 56.6538" stroke="#39276F" stroke-linecap="round" stroke-linejoin="round"/>
  <path d="M98.6796 50.4945C97.897 50.6306 97.4617 50.4044 97.4319 50.0522C97.3925 49.5877 98.2952 48.8659 100.914 48.294C103.853 47.6528 104.845 48.0552 104.907 48.5662C104.904 48.7727 104.832 48.9722 104.702 49.1326C104.572 49.2931 104.392 49.4052 104.191 49.451" stroke="#39276F" stroke-linecap="round" stroke-linejoin="round"/>
  <path d="M97.4319 50.0635C95.5376 41.7945 95.3424 40.9461 94.5621 40.3766C93.4935 39.5969 92.7472 39.2877 86.554 38.7092C88.1336 39.5253 89.65 40.458 91.0912 41.4995" stroke="#39276F" stroke-linecap="round" stroke-linejoin="round"/>
  <path d="M105.474 70.8552C107.564 72.1143 109.172 73.0784 109.841 73.5548C110.238 76.0622 107.323 79.8615 105.44 80.2586C91.284 72.2844 89.5837 71.251 88.1193 69.632C86.7253 68.0881 86.2364 65.5825 83.9337 55.2263C83.4317 55.1966 82.9373 55.0856 82.4705 54.8974" stroke="#39276F" stroke-linecap="round" stroke-linejoin="round"/>
  <path d="M90.49 39.1288C91.1252 41.5562 92.5879 47.2051 93.269 51.2772C93.6427 53.5118 94.0971 56.5308 94.4941 59.1039" stroke="#39276F" stroke-linecap="round" stroke-linejoin="round"/>
  <path d="M74.5871 34.8299C74.4563 36.0894 74.4563 37.359 74.5871 38.6185C74.6808 39.4817 77.8652 48.4093 78.5571 50.0522C73.3035 61.4973 72.4803 63.6184 72.3298 65.49C72.1507 67.6989 72.3865 69.1765 76.6061 85.5671C79.181 86.3271 83.6388 84.966 84.8525 83.5935C83.6728 78.5004 82.4705 73.4188 81.166 66.7945C81.6084 65.5241 82.6293 63.9701 84.8979 59.5708" stroke="#39276F" stroke-linecap="round" stroke-linejoin="round"/>
  <path d="M109.83 74.6552C110.849 74.9196 111.85 75.2527 112.824 75.6533C112.7 78.7046 110.284 86.6674 108.435 88.8793C107.493 87.4614 106.506 82.1869 106.325 79.8729" stroke="#39276F" stroke-linecap="round" stroke-linejoin="round"/>
  <path d="M84.206 84.1379C84.8603 85.197 85.4006 86.3223 85.8179 87.4954C83.64 89.73 77.0611 92.6792 74.1346 93.0081C75.0528 90.4088 76.3817 87.973 78.0706 85.794" stroke="#39276F" stroke-linecap="round" stroke-linejoin="round"/>
  <path d="M69.3914 57.0251C71.8087 55.1511 76.7835 50.8963 78.3416 49.4963" stroke="#39276F" stroke-linecap="round" stroke-linejoin="round"/>
  <path d="M66.8965 49.1674C69.0177 49.3376 72.0122 53.2736 71.7967 55.0885" stroke="#39276F" stroke-linecap="round" stroke-linejoin="round"/>
  <path d="M96.7155 46.9215C97.5167 45.1836 103.011 44.1305 104.173 45.0708" stroke="#39276F" stroke-linecap="round" stroke-linejoin="round"/>
  <path d="M77.4002 29.4646C77.6497 29.7902 77.9667 30.0573 78.3303 30.2473C79.6598 29.671 80.9099 28.9268 82.0502 28.033" stroke="#39276F" stroke-linecap="round" stroke-linejoin="round"/>
  <path d="M82.7314 28.4664C82.2538 30.0318 80.5875 32.3911 80.1905 32.9129C79.4479 32.1241 78.821 31.2341 78.3279 30.2694C77.9028 31.1484 77.5679 32.0686 77.3297 33.0156C77.1106 31.9814 77.0909 30.9149 77.273 29.8736" stroke="#39276F" stroke-linecap="round" stroke-linejoin="round"/>
  <path d="M77.7309 31.7022C77.8217 32.1772 77.9823 32.6359 78.2085 33.0634C78.0724 34.3338 77.3691 43.5109 77.3691 44.1228C77.7476 44.9209 78.2199 45.6711 78.7757 46.3574C79.3852 45.6855 79.9285 44.9561 80.3977 44.1795C80.1709 42.4781 78.7858 33.6872 78.6067 33.0753C78.8676 32.6711 79.0879 32.2417 79.2634 31.7935" stroke="#39276F" stroke-linecap="round" stroke-linejoin="round"/>
  <path d="M77.5363 47.3752C80.6442 48.4074 88.7318 46.3543 91.5222 43.1896" stroke="#39276F" stroke-linecap="round" stroke-linejoin="round"/>
  <path d="M78.1261 48.9632C81.4043 49.8934 89.0268 48.0677 91.9306 44.8684" stroke="#39276F" stroke-linecap="round" stroke-linejoin="round"/>
  <path d="M76.7309 50.9142C76.8062 48.6473 76.6885 46.3781 76.3793 44.1311" stroke="#39276F" stroke-linecap="round" stroke-linejoin="round"/>
  <path d="M83.9337 55.2019C83.6155 58.7108 82.877 62.1689 81.7332 65.5013" stroke="#39276F" stroke-linecap="round" stroke-linejoin="round"/>
  <path d="M81.3816 49.1561C82.0383 51.9238 82.0735 52.1846 83.0376 52.1279" stroke="#39276F" stroke-linecap="round" stroke-linejoin="round"/>
  <path d="M102.854 71.4111C105.916 73.3507 108.684 75.0975 109.569 75.6647" stroke="#39276F" stroke-linecap="round" stroke-linejoin="round"/>
  <path d="M89.5826 46.6719C90.921 52.3434 92.441 59.9886 92.9174 65.0476C93.2236 65.2631 93.6887 65.5694 94.2785 65.955" stroke="#39276F" stroke-linecap="round" stroke-linejoin="round"/>
  <path d="M65.5127 51.6516C64.4124 52.5703 64.333 52.7763 63.8566 52.7972C62.7337 52.8467 61.7838 52.482 61.3952 52.9106C60.6662 53.7566 59.9955 54.6509 59.3875 55.5876C58.8979 56.304 60.2382 56.8013 61.8829 54.8956C62.3677 55.1469 62.8996 55.2938 63.4447 55.327C63.9897 55.3603 64.5354 55.279 65.047 55.0885" stroke="#39276F" stroke-linecap="round" stroke-linejoin="round"/>
  <path d="M56.3362 54.0897C57.7541 54.2938 58.0478 54.3601 58.4574 54.1237C59.4299 53.5631 59.8305 52.87 60.3857 53.0348C60.6131 53.101 60.8394 53.1709 61.0776 53.2503" stroke="#39276F" stroke-linecap="round" stroke-linejoin="round"/>
  <path d="M69.0971 55.6896C68.598 56.132 67.3956 57.1983 66.8882 57.6973" stroke="#39276F" stroke-linecap="round" stroke-linejoin="round"/>
  <path d="M63.9587 55.3267C66.9079 56.8466 67.4637 57.8221 66.4769 58.7182" stroke="#39276F" stroke-linecap="round" stroke-linejoin="round"/>
  <path d="M64.6847 57.4478C66.3748 58.3099 66.8936 58.7958 66.3521 59.5373C66.0446 59.9552 65.6261 59.9683 64.0268 58.8567" stroke="#39276F" stroke-linecap="round" stroke-linejoin="round"/>
  <path d="M56.2455 59.8209C56.6879 59.8662 57.221 59.9343 57.5046 59.9797" stroke="#39276F" stroke-linecap="round" stroke-linejoin="round"/>
  <path d="M63.3235 59.8866C63.868 60.2495 65.1043 61.4292 65.6828 59.7618" stroke="#39276F" stroke-linecap="round" stroke-linejoin="round"/>
  <path d="M62.5749 61.0095C63.074 61.1343 63.9814 61.4519 64.3103 60.5319" stroke="#39276F" stroke-linecap="round" stroke-linejoin="round"/>
  <path d="M103.648 47.9651C103.931 49.2015 104.702 50.1429 105.2 52.3232C105.359 53.1723 105.386 54.0408 105.279 54.898C105.234 55.0134 105.164 55.1177 105.074 55.204C104.985 55.2903 104.878 55.3565 104.761 55.3984C104.644 55.4402 104.52 55.4567 104.396 55.4468C104.272 55.4367 104.152 55.4005 104.043 55.3404" stroke="#39276F" stroke-linecap="round" stroke-linejoin="round"/>
  <path d="M104.068 53.7159C104.113 54.2102 104.113 54.7076 104.068 55.2019C104.011 55.7243 103.386 56.178 102.635 55.6795" stroke="#39276F" stroke-linecap="round" stroke-linejoin="round"/>
  <path d="M102.65 54.1243C102.686 54.5733 102.693 55.0242 102.672 55.4741C102.66 55.6444 102.599 55.8074 102.496 55.9432C102.392 56.079 102.251 56.1818 102.091 56.2388C101.93 56.2959 101.756 56.3047 101.59 56.2643C101.424 56.2239 101.274 56.136 101.157 56.0114" stroke="#39276F" stroke-linecap="round" stroke-linejoin="round"/>
  <path d="M101.13 54.4759C101.199 54.9147 101.222 55.3595 101.198 55.8031C101.186 55.9958 101.102 56.1768 100.961 56.3096C100.822 56.4424 100.636 56.5171 100.443 56.5186C100.25 56.52 100.063 56.4481 99.9214 56.3174C99.7793 56.1867 99.6921 56.0069 99.6778 55.8144C99.5817 54.7375 99.3918 53.671 99.1107 52.627" stroke="#39276F" stroke-linecap="round" stroke-linejoin="round"/>
  <path d="M98.5435 49.0313C98.6725 49.4382 98.7328 49.8637 98.7226 50.2904C98.6772 50.7781 97.7358 51.765 97.7358 52.3094C97.7656 52.8646 97.9459 53.4012 98.2576 53.8616" stroke="#39276F" stroke-linecap="round" stroke-linejoin="round"/>
  <path d="M100.404 53.7954C101.141 53.5685 103.58 52.9446 104.34 52.8085" stroke="#39276F" stroke-linecap="round" stroke-linejoin="round"/>
  <path d="M41.0572 37.0752C40.5595 36.8026 40.1717 36.3658 39.9599 35.8394C40.7527 35.9636 41.6476 36.0083 41.9193 35.714C42.3969 35.2155 42.5431 34.037 42.17 30.1201C41.8307 30.2788 41.4771 30.4047 41.1139 30.4962C41.1706 31.8693 40.7044 31.9147 40.4572 31.4264C39.9904 30.5088 38.9486 31.1768 39.856 32.5947C37.5086 34.7779 33.732 38.0166 29.6127 39.6423" stroke="#39276F" stroke-linecap="round" stroke-linejoin="round"/>
  <path d="M104.894 48.5663C102.865 38.2328 101.671 35.8167 99.4838 33.7977C95.7758 30.3607 91.5216 30.0306 84.2382 29.147C83.4221 29.0408 81.4269 27.7262 79.9738 26.3967" stroke="#39276F" stroke-linecap="round" stroke-linejoin="round"/>
  <path d="M100.455 66.124L109.167 64.2751" stroke="#39276F" stroke-linecap="round" stroke-linejoin="round"/>
  <path d="M100.075 64.3784L98.3847 64.7413L99.156 68.2678L100.846 67.9048L100.075 64.3784Z" stroke="#39276F" stroke-linecap="round" stroke-linejoin="round"/>
  <path d="M110.488 62.1665L108.798 62.5295L109.558 66.0542L111.248 65.6912L110.488 62.1665Z" stroke="#39276F" stroke-linecap="round" stroke-linejoin="round"/>
  <path d="M110.863 63.9193L113.478 63.3605L113.371 55.2018" stroke="#39276F" stroke-linecap="round" stroke-linejoin="round"/>
  <path d="M98.7602 66.4941L96.1549 67.0374L92.921 59.5531" stroke="#39276F" stroke-linecap="round" stroke-linejoin="round"/>
  <path d="M18.893 67.9174C18.893 67.9108 18.9157 65.7849 18.9157 65.7849C18.3687 65.8649 17.8745 66.1551 17.5378 66.5932C17.2011 67.0314 17.0484 67.5837 17.1121 68.1329L17.4469 70.6236L19.2164 70.3967L18.893 67.9174Z" stroke="#39276F" stroke-linejoin="round"/>
  <path d="M26.3889 66.9986C26.3236 66.4822 26.0682 66.0094 25.6725 65.6715C25.233 65.8267 24.7757 65.9258 24.3113 65.9664C24.4075 66.3843 24.4379 66.5324 24.5382 67.0327C24.6313 67.1258 24.6544 67.5515 24.941 69.6875L26.7105 69.4607L26.3889 66.9986Z" stroke="#39276F" stroke-linejoin="round"/>
</svg>
